if (_typeface_js && _typeface_js.loadFace) _typeface_js.loadFace({"glyphs":{"0":{"ha":906,"x_min":0,"x_max":0,"o":"m 179 486 b 453 893 179 686 247 893 b 726 486 660 893 726 686 b 453 79 726 286 660 79 b 179 486 247 79 179 286 z m 68 486 b 453 -18 68 210 188 -18 b 838 486 718 -18 838 210 b 453 990 838 763 718 990 b 68 486 188 990 68 763 z "},"1":{"ha":513,"x_min":0,"x_max":0,"o":"m 56 840 b 43 818 46 833 43 828 l 43 779 b 64 761 43 764 50 760 l 249 836 l 249 22 b 269 0 249 6 253 0 l 336 0 b 358 22 353 0 358 6 l 358 950 b 336 972 358 967 354 972 l 294 972 b 250 954 279 972 265 963 z "},"2":{"ha":778,"x_min":0,"x_max":0,"o":"m 632 558 b 393 990 797 747 683 990 b 65 849 258 990 154 938 b 65 819 53 838 57 831 l 104 779 b 135 778 114 768 122 765 b 393 893 208 857 293 893 b 551 611 599 893 651 728 l 72 51 b 61 25 64 40 61 35 l 61 11 b 72 0 61 3 64 0 l 699 0 b 721 22 715 0 721 6 l 721 74 b 699 96 721 90 715 96 l 235 96 z "},"3":{"ha":811,"x_min":0,"x_max":0,"o":"m 413 449 b 639 281 547 449 639 375 b 382 79 639 149 561 79 b 128 193 268 79 185 135 b 97 192 117 204 107 203 l 61 153 b 60 124 51 142 49 135 b 382 -18 144 39 247 -18 b 747 272 593 -18 747 69 b 567 493 747 408 639 474 l 567 494 b 718 701 636 518 718 596 b 382 990 718 906 540 990 b 79 849 247 990 164 933 b 79 819 67 838 71 831 l 117 779 b 147 779 126 769 135 767 b 382 893 201 839 275 893 b 610 693 515 893 610 821 b 414 540 610 639 568 540 l 267 540 b 244 519 250 540 244 536 l 244 471 b 267 449 244 454 250 449 z "},"4":{"ha":899,"x_min":0,"x_max":0,"o":"m 561 972 b 539 961 549 972 544 968 l 78 336 b 63 296 67 321 63 313 l 63 247 b 85 225 63 231 68 225 l 563 225 l 563 22 b 585 0 563 6 568 0 l 644 0 b 667 22 661 0 667 6 l 667 225 l 821 225 b 843 247 838 225 843 231 l 843 292 b 821 313 843 308 838 313 l 667 313 l 667 950 b 644 972 667 967 663 972 z m 563 838 l 563 313 l 175 313 z "},"5":{"ha":804,"x_min":0,"x_max":0,"o":"m 185 972 b 164 950 168 972 165 968 l 103 506 b 125 483 100 489 108 483 l 383 483 b 629 294 535 483 629 431 b 376 79 629 132 532 79 b 121 193 250 79 176 139 b 92 192 110 204 101 201 l 54 151 b 53 125 44 142 42 136 b 376 -18 142 36 242 -18 b 738 297 583 -18 738 76 b 389 581 738 514 581 581 l 210 581 l 251 876 l 654 876 b 676 899 671 876 676 882 l 676 950 b 654 972 676 967 671 972 z "},"6":{"ha":847,"x_min":0,"x_max":0,"o":"m 469 635 b 181 461 321 635 224 560 b 446 893 181 704 254 893 b 681 803 542 893 603 876 b 714 804 694 789 703 792 l 751 844 b 753 875 764 857 765 864 b 453 990 663 956 576 990 b 72 428 149 990 72 719 b 446 -18 72 210 132 -18 b 782 331 658 -18 782 140 b 469 635 782 532 635 635 z m 442 76 b 192 313 232 76 192 243 b 442 544 192 435 314 544 b 674 325 567 544 674 461 b 442 76 674 193 596 76 z "},"7":{"ha":781,"x_min":0,"x_max":0,"o":"m 757 956 b 739 972 757 967 751 972 l 65 972 b 43 950 49 972 43 967 l 43 892 b 65 871 43 875 49 871 l 593 871 l 83 21 b 101 0 76 6 88 0 l 178 0 b 210 19 193 0 201 6 l 744 915 b 757 949 754 933 757 939 z "},"8":{"ha":833,"x_min":0,"x_max":0,"o":"m 417 -18 b 767 257 661 -18 767 106 b 571 496 767 418 610 485 l 571 500 b 743 722 604 513 743 571 b 418 990 743 875 625 990 b 90 722 210 990 90 875 b 264 500 90 571 231 513 l 264 497 b 67 257 224 485 67 418 b 417 -18 67 106 175 -18 z m 418 456 b 660 263 539 446 660 381 b 417 76 660 164 593 76 b 174 263 247 76 174 164 b 418 456 174 381 294 446 z m 418 896 b 636 717 551 896 636 819 b 418 540 636 611 536 549 b 197 717 299 549 197 611 b 418 896 197 819 285 896 z "},"9":{"ha":846,"x_min":0,"x_max":0,"o":"m 381 338 b 668 511 529 338 625 413 b 403 79 668 268 594 79 b 158 176 307 79 238 106 b 125 175 144 189 136 188 l 88 135 b 86 104 75 122 74 115 b 396 -18 176 22 272 -18 b 776 544 700 -18 776 253 b 403 990 776 763 717 990 b 67 642 190 990 67 832 b 381 338 67 440 215 338 z m 408 896 b 658 660 617 896 658 729 b 408 428 658 538 536 428 b 175 647 282 428 175 511 b 408 896 175 779 253 896 z "},"E":{"ha":881,"x_min":0,"x_max":0,"o":"m 774 0 b 794 22 790 0 794 6 l 794 74 b 774 96 794 90 790 96 l 243 96 l 243 443 l 749 443 b 771 465 765 443 771 449 l 771 517 b 749 539 771 533 765 539 l 243 539 l 243 876 l 774 876 b 794 899 789 876 794 882 l 794 950 b 774 972 794 967 789 972 l 156 972 b 133 950 139 972 133 967 l 133 22 b 156 0 133 6 139 0 z "},"F":{"ha":867,"x_min":0,"x_max":0,"o":"m 247 443 l 764 443 b 786 465 781 443 786 449 l 786 517 b 764 539 786 533 781 539 l 247 539 l 247 876 l 776 876 b 799 899 792 876 799 882 l 799 950 b 776 972 799 967 793 972 l 160 972 b 138 950 143 972 138 967 l 138 22 b 160 0 138 6 143 0 l 226 0 b 247 22 242 0 247 6 z "},"G":{"ha":1049,"x_min":0,"x_max":0,"o":"m 564 893 b 851 772 676 893 788 836 b 883 772 865 760 874 761 l 925 818 b 928 849 936 831 940 836 b 564 990 835 936 699 990 b 69 486 290 990 69 763 b 564 -18 69 210 290 -18 b 938 128 700 -18 846 38 b 960 178 953 143 960 156 l 960 485 b 939 507 960 500 956 507 l 585 507 b 563 485 568 507 563 501 l 563 432 b 585 411 563 415 568 411 l 850 411 l 850 186 b 564 79 783 126 686 79 b 181 486 347 79 181 278 b 564 893 181 696 347 893 z "},"H":{"ha":1053,"x_min":0,"x_max":0,"o":"m 800 536 l 253 536 l 253 950 b 232 972 253 967 249 972 l 165 972 b 143 950 149 972 143 967 l 143 22 b 165 0 143 6 149 0 l 232 0 b 253 22 249 0 253 6 l 253 439 l 800 439 l 800 22 b 821 0 800 6 804 0 l 888 0 b 910 22 904 0 910 6 l 910 950 b 888 972 910 967 904 972 l 821 972 b 800 950 804 972 800 967 z "},"I":{"ha":396,"x_min":0,"x_max":0,"o":"m 143 22 b 165 0 143 6 149 0 l 232 0 b 253 22 249 0 253 6 l 253 950 b 232 972 253 967 249 972 l 165 972 b 143 950 149 972 143 967 z "},"J":{"ha":625,"x_min":0,"x_max":0,"o":"m 411 885 l 411 378 b 82 82 411 175 322 82 b 56 58 61 82 53 75 l 61 4 b 90 -18 64 -12 68 -18 b 521 378 371 -17 521 90 l 521 950 b 500 972 521 967 517 972 l 190 972 b 168 950 174 972 168 967 l 168 907 b 190 885 168 890 174 885 z "},"K":{"ha":906,"x_min":0,"x_max":0,"o":"m 347 508 l 836 950 b 828 972 849 965 842 972 l 739 972 b 700 950 722 972 717 967 l 254 546 l 254 950 b 232 972 254 968 249 972 l 165 972 b 143 950 149 972 143 967 l 143 22 b 165 0 143 6 149 0 l 232 0 b 254 22 249 0 254 4 l 254 467 l 725 22 b 761 0 740 6 747 0 l 856 0 b 863 22 868 0 878 6 z "},"L":{"ha":792,"x_min":0,"x_max":0,"o":"m 247 96 l 247 950 b 225 972 247 967 242 972 l 160 972 b 138 950 143 972 138 967 l 138 22 b 160 0 138 6 143 0 l 725 0 b 746 22 742 0 746 6 l 746 74 b 725 96 746 90 742 96 z "},"M":{"ha":1383,"x_min":0,"x_max":0,"o":"m 1100 746 l 1181 22 b 1201 0 1182 6 1186 0 l 1269 0 b 1290 22 1286 0 1292 7 l 1174 978 b 1161 990 1172 988 1171 990 l 1153 990 b 1136 978 1147 990 1143 989 l 692 138 l 247 978 b 231 990 240 989 236 990 l 222 990 b 210 978 213 990 211 988 l 93 22 b 113 0 90 7 97 0 l 181 0 b 203 22 197 0 200 6 l 285 744 l 660 4 b 686 -18 669 -10 675 -18 l 697 -18 b 722 4 708 -18 715 -10 z "},"N":{"ha":1078,"x_min":0,"x_max":0,"o":"m 251 769 l 897 -7 b 918 -18 906 -15 911 -18 l 925 -18 b 936 -7 933 -18 936 -17 l 936 950 b 915 972 936 968 932 972 l 849 972 b 826 950 832 972 826 968 l 826 208 l 179 981 b 161 990 174 988 169 990 l 154 990 b 142 979 144 990 142 989 l 142 22 b 164 0 142 6 147 0 l 229 0 b 251 22 246 0 251 6 z "},"O":{"ha":1133,"x_min":0,"x_max":0,"o":"m 69 486 b 567 -18 69 210 293 -18 b 1064 486 840 -18 1064 210 b 567 990 1064 763 840 990 b 69 486 293 990 69 763 z m 181 486 b 567 893 181 696 350 893 b 953 486 786 893 953 696 b 567 79 953 278 786 79 b 181 486 350 79 181 278 z "},"P":{"ha":861,"x_min":0,"x_max":0,"o":"m 247 475 l 247 878 l 479 878 b 721 682 672 878 721 779 b 479 475 721 576 672 475 z m 486 381 b 828 682 656 381 828 457 b 486 972 828 907 656 972 l 160 972 b 138 950 143 972 138 969 l 138 22 b 160 0 138 6 142 0 l 225 0 b 247 22 243 0 247 6 l 247 381 z "},"Q":{"ha":1133,"x_min":0,"x_max":0,"o":"m 69 486 b 567 -18 69 210 293 -18 b 757 26 649 -18 697 0 l 879 -156 b 908 -162 888 -168 896 -171 l 963 -124 b 968 -93 975 -115 978 -107 l 846 75 b 1064 486 964 165 1064 294 b 567 990 1064 763 840 990 b 69 486 293 990 69 763 z m 181 486 b 567 893 181 696 350 893 b 953 486 786 892 953 696 b 567 79 953 278 786 79 b 181 486 350 79 181 278 z "},"R":{"ha":928,"x_min":0,"x_max":0,"o":"m 828 681 b 490 972 828 906 649 972 l 160 972 b 138 950 143 972 138 967 l 138 22 b 160 0 138 3 143 0 l 225 0 b 247 22 242 0 247 4 l 247 381 l 496 381 l 751 22 b 789 0 761 8 772 0 l 854 0 b 871 26 871 0 882 8 l 610 393 b 828 681 739 428 828 515 z m 247 475 l 247 878 l 483 878 b 721 681 626 878 721 819 b 483 475 721 554 649 475 z "},"S":{"ha":888,"x_min":0,"x_max":0,"o":"m 456 890 b 733 799 553 890 644 858 b 764 808 747 788 756 793 l 790 851 b 783 882 796 865 799 874 b 442 988 678 946 585 988 b 92 697 172 988 92 804 b 419 446 92 513 268 467 b 706 268 601 421 706 383 b 444 82 706 124 572 82 b 136 175 340 82 225 114 b 104 167 119 185 114 182 l 78 122 b 83 92 69 107 69 100 b 458 -15 189 18 311 -15 b 813 272 697 -15 813 124 b 481 538 813 458 660 514 b 199 700 328 557 199 586 b 456 890 199 772 244 890 z "},"T":{"ha":846,"x_min":0,"x_max":0,"o":"m 36 972 b 14 950 19 972 14 967 l 14 894 b 36 872 14 878 18 872 l 368 872 l 368 22 b 390 0 368 6 372 0 l 457 0 b 478 22 474 0 478 6 l 478 872 l 811 872 b 832 894 828 872 832 878 l 832 950 b 811 972 832 967 829 972 z "},"U":{"ha":994,"x_min":0,"x_max":0,"o":"m 497 -18 b 890 400 724 -18 890 124 l 890 950 b 869 972 890 967 886 972 l 803 972 b 781 950 786 972 781 967 l 781 407 b 497 79 781 176 664 79 b 214 407 331 79 214 176 l 214 950 b 192 972 214 967 208 972 l 126 972 b 104 950 110 972 104 968 l 104 400 b 497 -18 104 124 271 -18 z "},"V":{"ha":989,"x_min":0,"x_max":0,"o":"m 476 -4 b 494 -24 485 -18 486 -24 l 499 -24 b 515 -4 506 -24 508 -17 l 969 950 b 956 972 974 961 971 972 l 875 972 b 847 950 863 972 856 968 l 497 188 l 496 188 l 146 950 b 117 972 138 968 132 972 l 36 972 b 24 950 24 972 18 963 z "},"W":{"ha":1335,"x_min":0,"x_max":0,"o":"m 147 950 b 119 972 142 967 135 972 l 35 972 b 25 950 21 972 18 967 l 385 -4 b 400 -24 390 -18 394 -24 l 410 -24 b 425 -4 415 -24 419 -17 l 669 783 l 914 -4 b 929 -24 919 -17 924 -24 l 939 -24 b 954 -4 946 -24 949 -17 l 1314 950 b 1304 972 1321 967 1318 972 l 1219 972 b 1192 950 1204 972 1197 967 l 929 210 l 696 968 b 676 990 690 983 686 990 l 663 990 b 643 968 653 990 649 983 l 410 210 z "},"X":{"ha":926,"x_min":0,"x_max":0,"o":"m 465 396 l 769 22 b 803 0 783 6 788 0 l 885 0 b 894 22 899 0 906 6 l 528 483 l 894 950 b 885 972 907 967 899 972 l 804 972 b 771 950 790 972 785 968 l 465 572 l 160 950 b 126 972 149 967 142 972 l 46 972 b 36 950 31 972 25 967 l 404 483 l 38 22 b 49 0 26 6 35 0 l 129 0 b 163 22 144 0 150 6 z "},"Y":{"ha":865,"x_min":0,"x_max":0,"o":"m 382 381 l 382 22 b 404 0 382 6 388 0 l 467 0 b 489 22 483 0 489 6 l 489 381 l 851 950 b 842 972 860 965 858 972 l 765 972 b 735 950 751 972 746 968 l 436 483 l 136 950 b 107 972 128 967 121 972 l 28 972 b 18 950 13 972 8 967 z "},"Z":{"ha":863,"x_min":0,"x_max":0,"o":"m 783 0 b 806 22 800 0 806 6 l 806 74 b 783 96 806 92 799 96 l 213 96 l 815 931 b 824 951 822 942 824 943 l 824 961 b 811 972 824 969 821 972 l 107 972 b 85 950 90 972 85 967 l 85 899 b 107 876 85 882 90 876 l 656 876 l 51 40 b 43 21 46 32 43 31 l 43 11 b 54 0 43 1 47 0 z "},",":{"ha":372,"x_min":0,"x_max":0,"o":"m 193 -8 b 79 -175 186 -68 151 -129 b 75 -190 71 -181 71 -185 l 93 -221 b 110 -222 97 -226 103 -225 b 269 50 206 -169 269 -82 b 185 154 269 117 232 154 b 104 72 138 154 104 117 b 183 -8 104 28 139 -7 z "},"D":{"ha":1053,"x_min":0,"x_max":0,"o":"m 160 972 b 138 950 143 972 138 967 l 138 22 b 160 0 138 6 144 0 l 500 0 b 983 486 774 0 983 210 b 500 972 983 763 774 972 z m 499 878 b 872 486 725 878 872 696 b 499 94 872 278 725 94 l 247 94 l 247 878 z "},"@":{"ha":1464,"x_min":0,"x_max":0,"o":"m 1301 361 b 1163 35 1301 190 1279 35 b 1051 174 1097 35 1051 76 l 1051 685 b 1031 707 1051 701 1046 707 l 986 707 b 965 689 975 707 969 700 l 953 558 b 693 722 932 596 857 722 b 375 354 499 722 375 557 b 693 -15 375 153 499 -15 b 965 151 857 -15 932 100 l 976 106 b 1168 -51 1000 3 1071 -51 b 1394 361 1353 -54 1394 179 b 728 1001 1394 772 1096 1001 b 69 354 343 1001 69 711 b 713 -294 69 -4 343 -294 b 917 -253 789 -294 857 -281 b 929 -221 933 -244 933 -237 l 918 -178 b 889 -171 915 -162 907 -164 b 713 -206 846 -192 774 -206 b 163 354 404 -206 163 43 b 728 913 163 664 404 913 b 1301 361 1036 913 1301 719 z m 713 78 b 475 354 567 78 475 199 b 713 628 475 497 568 628 b 950 353 858 628 950 492 b 713 78 950 214 858 78 z "},"B":{"ha":929,"x_min":0,"x_max":0,"o":"m 526 0 b 868 268 710 0 868 72 b 674 500 868 422 728 483 l 674 501 b 832 703 733 524 832 581 b 492 972 832 907 650 972 l 156 972 b 133 950 139 972 133 967 l 133 22 b 156 0 133 4 139 0 z m 243 94 l 243 451 l 531 451 b 756 279 658 451 756 374 b 518 94 756 163 686 94 z m 243 543 l 243 878 l 485 878 b 721 693 628 878 721 821 b 517 543 721 603 636 543 z "},"C":{"ha":997,"x_min":0,"x_max":0,"o":"m 567 79 b 181 486 350 79 181 276 b 567 893 181 696 350 893 b 857 771 696 893 796 836 b 889 772 868 760 878 760 l 929 817 b 931 847 940 829 942 836 b 567 990 842 936 701 990 b 69 486 293 990 69 763 b 567 -18 69 210 293 -18 b 931 125 701 -18 842 36 b 932 158 943 138 943 144 l 890 203 b 860 204 881 213 872 215 b 567 79 794 136 696 79 z "},"A":{"ha":989,"x_min":0,"x_max":0,"o":"m 497 806 l 701 353 l 292 353 l 496 806 z m 515 976 b 499 996 510 988 506 996 l 494 996 b 476 976 486 996 483 988 l 24 22 b 36 0 18 10 24 0 l 117 0 b 146 22 132 0 138 6 l 254 258 l 739 258 l 847 22 b 875 0 856 6 861 0 l 956 0 b 969 22 969 0 975 10 z "},"a":{"ha":788,"x_min":0,"x_max":0,"o":"m 174 608 b 388 631 226 618 299 631 b 585 392 533 631 585 567 b 360 440 514 421 433 440 b 75 215 189 440 75 367 b 322 -15 75 67 189 -15 b 601 117 472 -15 564 65 l 607 22 b 628 0 611 6 617 0 l 668 0 b 689 22 683 0 689 6 l 689 389 b 392 722 689 618 625 722 b 153 697 285 722 169 701 b 136 669 136 692 132 685 l 147 628 b 174 608 151 611 156 604 z m 381 363 b 585 313 460 363 514 342 l 585 197 b 354 67 540 132 450 67 b 179 215 242 67 179 129 b 381 363 179 310 249 363 z "},"`":{"ha":329,"x_min":0,"x_max":0,"o":"m 185 815 b 219 801 194 807 206 801 l 276 801 b 279 825 290 801 294 810 l 107 1008 b 78 1003 97 1019 86 1015 l 51 961 b 57 933 46 950 46 943 z "},"l":{"ha":390,"x_min":0,"x_max":0,"o":"m 143 22 b 165 0 143 6 149 0 l 226 0 b 247 22 243 0 247 6 l 247 1003 b 226 1025 247 1019 243 1025 l 165 1025 b 143 1003 149 1025 143 1019 z "},"b":{"ha":879,"x_min":0,"x_max":0,"o":"m 235 1003 b 214 1025 235 1019 229 1025 l 151 1025 b 131 1003 136 1025 131 1019 l 131 22 b 151 0 131 6 136 0 l 185 0 b 208 22 197 0 201 6 l 219 151 b 492 -15 253 99 328 -15 b 813 354 686 -15 813 153 b 492 722 813 557 686 722 b 235 560 328 722 253 599 z m 472 78 b 235 353 326 78 235 215 b 472 628 235 492 326 628 b 710 354 617 628 710 497 b 472 78 710 200 617 78 z "},"d":{"ha":879,"x_min":0,"x_max":0,"o":"m 644 560 b 388 722 628 599 551 722 b 67 354 193 722 67 557 b 388 -15 67 153 193 -15 b 661 151 551 -15 626 99 l 672 22 b 696 0 678 6 683 0 l 728 0 b 749 22 743 0 749 6 l 749 1003 b 728 1025 749 1019 743 1025 l 665 1025 b 644 1003 650 1025 644 1019 z m 408 78 b 171 354 263 78 171 200 b 408 628 171 497 263 628 b 646 353 553 628 646 492 b 408 78 646 215 553 78 z "},"p":{"ha":879,"x_min":0,"x_max":0,"o":"m 235 147 b 492 -15 253 108 328 -15 b 813 353 686 -15 813 150 b 492 722 813 554 686 722 b 219 556 328 722 253 608 l 208 685 b 185 707 201 701 197 707 l 151 707 b 131 685 136 707 131 701 l 131 -261 b 151 -283 131 -278 136 -283 l 214 -283 b 235 -261 229 -283 235 -278 z m 472 629 b 710 353 617 629 710 507 b 472 79 710 210 617 79 b 235 354 326 79 235 215 b 472 629 235 492 326 629 z "},"q":{"ha":879,"x_min":0,"x_max":0,"o":"m 644 -261 b 665 -283 644 -278 650 -283 l 728 -283 b 749 -261 743 -283 749 -278 l 749 685 b 728 707 749 701 743 707 l 696 707 b 672 685 683 707 678 701 l 661 556 b 388 722 626 608 551 722 b 67 353 193 722 67 554 b 388 -15 67 150 193 -15 b 644 147 551 -15 628 108 z m 408 629 b 646 354 553 629 646 492 b 408 79 646 215 553 79 b 171 353 263 79 171 210 b 408 629 171 507 263 629 z "},"r":{"ha":575,"x_min":0,"x_max":0,"o":"m 508 619 b 533 640 525 619 529 624 l 542 703 b 522 722 544 717 542 722 b 233 546 325 722 261 604 l 217 685 b 193 707 210 701 204 707 l 158 707 b 138 685 143 707 138 701 l 138 22 b 158 0 138 6 143 0 l 221 0 b 242 22 236 0 242 6 l 242 364 b 508 619 242 493 328 619 z "},"o":{"ha":864,"x_min":0,"x_max":0,"o":"m 67 353 b 432 -15 67 150 229 -15 b 797 353 635 -15 797 150 b 432 722 797 556 635 722 b 67 353 229 722 67 556 z m 432 78 b 171 353 288 78 171 200 b 432 628 171 506 288 628 b 694 353 578 628 694 506 b 432 78 694 200 578 78 z "},"c":{"ha":751,"x_min":0,"x_max":0,"o":"m 432 79 b 169 353 286 79 169 199 b 432 628 169 506 286 628 b 625 550 508 628 578 597 b 654 554 636 539 644 542 l 688 589 b 688 618 699 601 699 608 b 431 722 617 689 526 722 b 67 353 228 722 67 556 b 431 -15 67 150 228 -15 b 688 89 526 -15 617 18 b 688 118 699 99 699 106 l 654 153 b 625 157 644 165 636 168 b 432 79 578 110 508 79 z "},"s":{"ha":706,"x_min":0,"x_max":0,"o":"m 354 69 b 119 147 263 69 181 104 b 89 139 103 160 96 153 l 69 104 b 74 74 61 89 61 82 b 360 -15 176 6 286 -15 b 644 204 539 -15 644 76 b 374 403 644 339 511 383 b 178 511 247 421 178 435 b 351 638 178 588 235 638 b 569 571 442 638 494 617 b 600 581 586 560 593 567 l 618 614 b 611 644 625 626 628 635 b 346 722 514 704 418 722 b 79 506 182 722 79 638 b 349 310 79 360 211 328 b 544 199 475 292 544 260 b 354 69 544 128 489 69 z "},"f":{"ha":574,"x_min":0,"x_max":0,"o":"m 167 704 l 64 704 b 42 682 47 704 42 699 l 42 640 b 64 618 42 622 47 618 l 167 618 l 167 22 b 188 0 167 6 171 0 l 249 0 b 269 22 265 0 269 6 l 269 618 l 521 618 b 542 640 536 618 542 622 l 542 682 b 521 704 542 699 538 704 l 269 704 l 269 740 b 429 963 269 903 318 963 b 513 947 465 963 485 958 b 540 958 531 939 535 940 l 549 1003 b 539 1031 553 1018 551 1022 b 418 1057 490 1056 436 1057 b 167 747 235 1057 167 942 z "},"h":{"ha":836,"x_min":0,"x_max":0,"o":"m 238 1003 b 217 1025 238 1019 232 1025 l 154 1025 b 133 1003 139 1025 133 1019 l 133 367 l 133 22 b 154 0 133 6 139 0 l 217 0 b 238 22 232 0 238 6 l 238 372 b 436 628 238 511 315 628 b 632 382 549 628 632 547 l 632 22 b 653 0 632 6 638 0 l 715 0 b 736 22 731 0 736 6 l 736 410 b 461 722 736 632 610 722 b 238 575 333 722 263 622 z "},"i":{"ha":432,"x_min":0,"x_max":0,"o":"m 165 22 b 186 0 165 6 169 0 l 247 0 b 269 22 264 0 269 6 l 269 685 b 247 707 269 701 265 707 l 186 707 b 165 685 169 707 165 701 z m 143 939 b 215 867 143 899 175 867 b 289 939 256 867 289 899 b 215 1011 289 979 256 1011 b 143 939 175 1011 143 979 z "},"j":{"ha":528,"x_min":0,"x_max":0,"o":"m 249 939 b 322 867 249 899 281 867 b 394 939 361 867 394 899 b 322 1011 394 979 361 1011 b 249 939 281 1011 249 979 z m 60 642 b 81 619 60 626 67 619 l 274 619 l 274 586 l 274 -11 b 114 -233 274 -174 225 -233 b 13 -208 88 -233 47 -229 b -14 -221 -6 -199 -10 -200 l -24 -264 b -14 -292 -28 -281 -25 -285 b 124 -328 43 -328 106 -328 b 376 -18 307 -328 376 -212 l 376 685 b 356 707 376 701 372 707 l 81 707 b 60 685 67 707 60 701 z "},"k":{"ha":769,"x_min":0,"x_max":0,"o":"m 344 375 l 692 685 b 685 707 703 696 699 707 l 597 707 b 561 685 582 707 575 701 l 239 396 l 239 1003 b 217 1025 239 1019 235 1025 l 157 1025 b 135 1003 140 1025 135 1019 l 135 22 b 157 0 135 6 140 0 l 217 0 b 239 22 233 0 239 6 l 239 347 l 579 22 b 615 0 593 6 600 0 l 704 0 b 711 22 717 0 726 6 z "},"g":{"ha":879,"x_min":0,"x_max":0,"o":"m 644 39 b 410 -250 644 -128 589 -250 b 175 -203 290 -250 218 -218 b 151 -215 160 -196 156 -199 l 138 -268 b 150 -293 133 -283 136 -287 b 425 -343 179 -304 274 -343 b 749 50 640 -343 749 -217 l 749 685 b 728 707 749 701 743 707 l 696 707 b 672 685 683 707 678 701 l 661 556 b 388 722 626 608 551 722 b 67 353 193 722 67 554 b 388 -15 67 150 192 -15 b 644 147 551 -15 628 108 z m 408 629 b 646 354 553 629 646 492 b 408 79 646 215 553 79 b 171 353 263 79 171 211 b 408 629 171 507 263 629 z "},"e":{"ha":833,"x_min":0,"x_max":0,"o":"m 692 144 b 660 146 681 157 675 154 b 442 76 593 97 510 76 b 174 317 301 76 183 188 l 753 317 b 774 339 771 317 774 322 b 431 722 774 547 647 722 b 67 353 228 722 67 556 b 438 -15 67 150 228 -15 b 718 82 540 -15 653 18 b 718 113 728 92 728 100 z m 176 389 b 429 635 181 514 286 635 b 667 389 571 635 661 514 z "},"u":{"ha":840,"x_min":0,"x_max":0,"o":"m 624 22 b 647 0 631 6 636 0 l 682 0 b 703 22 697 0 703 6 l 703 340 l 703 685 b 682 707 703 701 697 707 l 619 707 b 599 685 604 707 599 701 l 599 335 b 400 79 599 196 521 79 b 204 325 288 79 204 160 l 204 685 b 183 707 204 701 199 707 l 121 707 b 100 685 106 707 100 701 l 100 297 b 375 -15 100 75 226 -15 b 613 147 511 -15 583 92 z "},"m":{"ha":1275,"x_min":0,"x_max":0,"o":"m 681 551 b 446 722 656 618 582 722 b 225 556 314 722 250 614 l 214 685 b 190 707 207 701 201 707 l 156 707 b 135 685 140 707 135 701 l 135 22 b 156 0 135 6 140 0 l 218 0 b 239 22 233 0 239 6 l 239 372 b 421 628 239 519 308 628 b 603 382 535 628 603 528 l 603 22 b 624 0 603 6 610 0 l 686 0 b 707 22 703 0 707 6 l 707 379 b 889 628 707 532 786 628 b 1071 382 988 628 1071 547 l 1071 22 b 1092 0 1071 6 1078 0 l 1154 0 b 1175 22 1171 0 1175 6 l 1175 410 b 914 722 1175 632 1050 722 b 681 551 782 722 708 614 z "},"n":{"ha":840,"x_min":0,"x_max":0,"o":"m 217 685 b 193 707 210 701 204 707 l 158 707 b 138 685 143 707 138 701 l 138 367 l 138 22 b 158 0 138 6 143 0 l 221 0 b 242 22 236 0 242 6 l 242 372 b 440 628 242 511 319 628 b 636 382 553 628 636 547 l 636 22 b 657 0 636 6 642 0 l 719 0 b 740 22 735 0 740 6 l 740 410 b 465 722 740 632 614 722 b 228 560 329 722 257 615 z "},"t":{"ha":608,"x_min":0,"x_max":0,"o":"m 539 18 b 549 44 551 25 553 31 l 540 89 b 513 100 535 108 531 110 b 417 79 478 82 456 79 b 257 301 306 79 257 139 l 257 621 l 508 621 b 529 643 525 621 529 626 l 529 685 b 508 707 529 703 524 707 l 257 707 l 257 850 b 236 872 257 867 253 872 l 175 872 b 154 850 158 872 154 867 l 154 707 l 86 707 b 64 685 69 707 64 703 l 64 643 b 86 621 64 626 69 621 l 154 621 l 154 293 b 406 -15 154 100 222 -15 b 539 18 424 -15 483 -15 z "},"z":{"ha":678,"x_min":0,"x_max":0,"o":"m 610 0 b 632 22 626 0 632 6 l 632 71 b 610 93 632 89 626 93 l 206 93 l 619 665 b 628 688 625 675 628 679 l 628 696 b 615 707 628 704 625 707 l 103 707 b 81 685 86 707 81 701 l 81 636 b 103 614 81 619 86 614 l 468 614 l 53 40 b 44 19 47 32 44 29 l 44 11 b 56 0 44 1 49 0 z "},"v":{"ha":713,"x_min":0,"x_max":0,"o":"m 338 -4 b 354 -24 346 -18 347 -24 l 358 -24 b 376 -4 367 -24 368 -17 l 701 685 b 688 707 706 696 703 707 l 618 707 b 590 685 606 707 599 703 l 357 176 l 357 178 l 122 685 b 93 707 114 703 108 707 l 24 707 b 11 685 11 707 6 697 z "},"y":{"ha":717,"x_min":0,"x_max":0,"o":"m 360 154 l 358 154 l 124 685 b 96 707 115 703 110 707 l 24 707 b 13 685 8 707 6 701 l 303 36 l 171 -261 b 182 -283 163 -278 167 -283 l 253 -283 b 282 -261 267 -283 274 -279 l 703 685 b 692 707 711 701 707 707 l 621 707 b 592 685 607 707 600 703 z "},"w":{"ha":1018,"x_min":0,"x_max":0,"o":"m 133 688 b 106 707 128 703 119 707 l 31 707 b 19 685 15 707 13 701 l 235 6 b 254 -15 240 -8 247 -15 l 263 -15 b 283 6 271 -15 276 -8 l 510 563 l 735 6 b 756 -15 742 -8 747 -15 l 765 -15 b 783 6 771 -15 778 -8 l 999 685 b 988 707 1006 701 1004 707 l 913 707 b 883 685 897 707 889 703 l 736 200 l 533 708 b 514 728 528 718 524 728 l 504 728 b 485 708 493 728 490 718 l 282 200 z "},"x":{"ha":672,"x_min":0,"x_max":0,"o":"m 339 289 l 531 22 b 563 0 542 4 547 0 l 640 0 b 650 22 656 0 661 6 l 410 353 l 650 685 b 640 707 661 701 656 707 l 563 707 b 531 685 547 707 542 703 l 339 417 l 142 685 b 110 707 132 701 125 707 l 32 707 b 22 685 17 707 11 701 l 268 353 l 22 22 b 32 0 11 6 17 0 l 110 0 b 142 22 125 0 132 4 z "},"=":{"ha":661,"x_min":0,"x_max":0,"o":"m 556 518 b 576 539 572 518 576 522 l 576 581 b 556 603 576 597 572 603 l 106 603 b 85 579 89 603 85 597 l 85 539 b 106 518 85 522 89 518 z m 556 243 b 576 264 572 243 576 249 l 576 307 b 556 328 576 322 572 328 l 106 328 b 85 306 89 328 85 324 l 85 265 b 106 243 85 249 89 243 z "},"ﬀ":{"ha":1032,"x_min":0,"x_max":0,"o":"m 269 704 l 269 740 b 429 963 269 903 318 963 b 513 947 465 963 485 958 b 540 958 531 939 536 940 l 549 1003 b 539 1031 553 1018 551 1022 b 418 1057 490 1056 436 1057 b 167 747 235 1057 167 942 l 167 704 l 64 704 b 42 682 47 704 42 699 l 42 639 b 64 618 42 622 47 618 l 167 618 l 167 22 b 188 0 167 6 171 0 l 249 0 b 269 22 265 0 269 6 l 269 618 l 624 618 l 624 22 b 646 0 624 6 628 0 l 706 0 b 728 22 722 0 728 6 l 728 618 l 978 618 b 1000 639 994 618 1000 622 l 1000 682 b 978 704 1000 699 994 704 l 728 704 l 728 740 b 886 963 728 903 775 963 b 971 947 922 963 943 958 b 997 958 989 939 993 940 l 1007 1003 b 996 1031 1010 1018 1008 1022 b 876 1057 947 1056 894 1057 b 624 747 693 1057 624 942 l 624 704 z "},"_":{"ha":714,"x_min":0,"x_max":0,"o":"m 636 -106 b 657 -85 653 -106 657 -100 l 657 -39 b 636 -17 657 -22 653 -17 l 83 -17 b 61 -39 67 -17 61 -22 l 61 -83 b 83 -106 61 -100 67 -106 z "},"{":{"ha":625,"x_min":0,"x_max":0,"o":"m 50 318 b 71 294 50 306 57 299 b 192 160 128 279 192 226 l 192 50 b 535 -299 192 -261 419 -299 b 556 -276 550 -299 556 -294 l 556 -222 b 535 -201 556 -206 551 -201 b 299 50 454 -201 299 -165 l 299 160 b 174 343 299 265 229 326 l 174 349 b 299 532 229 365 299 426 l 299 642 b 535 893 299 857 454 893 b 556 914 551 893 556 897 l 556 968 b 535 990 556 985 551 990 b 192 642 419 990 192 953 l 192 532 b 71 397 192 467 128 413 b 50 374 57 392 50 386 z "},"ı":{"ha":388,"x_min":0,"x_max":0,"o":"m 142 22 b 164 0 142 6 147 0 l 224 0 b 246 22 240 0 246 6 l 246 685 b 224 707 246 701 242 707 l 164 707 b 142 685 147 707 142 701 z "},".":{"ha":369,"x_min":0,"x_max":0,"o":"m 104 65 b 185 -15 104 19 139 -15 b 265 65 229 -15 265 19 b 185 147 265 111 229 147 b 104 65 139 147 104 111 z "},":":{"ha":369,"x_min":0,"x_max":0,"o":"m 104 65 b 185 -15 104 19 138 -15 b 265 65 229 -15 265 19 b 185 147 265 110 229 147 b 104 65 138 147 104 110 z m 104 538 b 183 458 104 493 138 458 b 265 538 229 458 265 493 b 183 621 265 585 229 621 b 104 538 138 621 104 585 z "},";":{"ha":372,"x_min":0,"x_max":0,"o":"m 104 539 b 185 458 104 493 139 458 b 265 539 229 458 265 493 b 185 621 265 585 229 621 b 104 539 139 621 104 585 z m 193 -15 b 79 -182 186 -75 151 -136 b 75 -199 71 -187 71 -192 l 93 -228 b 110 -229 97 -233 103 -233 b 269 43 206 -176 269 -89 b 185 147 269 108 232 147 b 104 65 138 147 104 110 b 183 -15 104 21 139 -15 z "},"!":{"ha":472,"x_min":0,"x_max":0,"o":"m 186 351 b 208 329 186 335 192 329 l 265 329 b 286 351 282 329 286 335 l 299 950 b 278 972 299 967 294 972 l 196 972 b 174 950 179 972 174 967 z m 157 64 b 236 -15 157 19 192 -15 b 317 64 281 -15 317 19 b 236 144 317 108 281 144 b 157 64 192 144 157 108 z "},"„":{"ha":643,"x_min":0,"x_max":0,"o":"m 193 -15 b 79 -182 186 -75 151 -136 b 75 -199 71 -187 71 -192 l 93 -228 b 110 -229 97 -233 103 -233 b 269 43 206 -176 269 -89 b 185 147 269 108 232 147 b 104 65 138 147 104 110 b 183 -15 104 21 139 -15 z m 464 -15 b 350 -182 457 -75 422 -136 b 346 -199 342 -187 342 -192 l 364 -228 b 381 -229 368 -233 374 -233 b 540 43 476 -176 540 -89 b 456 147 540 108 503 147 b 375 65 408 147 375 110 b 454 -15 375 21 410 -15 z "},"‚":{"ha":372,"x_min":0,"x_max":0,"o":"m 193 -15 b 79 -182 186 -75 151 -136 b 75 -199 71 -187 71 -192 l 93 -228 b 110 -229 97 -233 103 -233 b 269 43 206 -176 269 -89 b 185 147 269 108 232 147 b 104 65 138 147 104 110 b 183 -15 104 21 139 -15 z "},"’":{"ha":372,"x_min":0,"x_max":0,"o":"m 193 828 b 79 661 186 768 151 707 b 75 646 71 656 71 651 l 93 615 b 110 614 97 610 103 610 b 269 886 206 667 269 754 b 185 990 269 951 232 990 b 104 908 138 990 104 953 b 183 828 104 864 139 829 z "},"‘":{"ha":372,"x_min":0,"x_max":0,"o":"m 179 772 b 294 939 186 832 221 893 b 299 954 301 944 303 949 l 279 985 b 264 986 275 990 269 989 b 104 714 167 933 104 846 b 189 610 104 647 140 610 b 269 692 235 610 269 647 b 190 772 269 736 235 771 z "},"“":{"ha":643,"x_min":0,"x_max":0,"o":"m 450 772 b 565 940 457 832 492 893 b 569 956 572 944 574 949 l 550 985 b 535 988 546 992 540 990 b 375 715 438 935 375 847 b 460 610 375 649 411 610 b 540 692 506 610 540 647 b 461 772 540 736 506 772 z m 179 772 b 294 940 186 832 221 893 b 299 956 301 944 303 949 l 279 985 b 264 988 275 992 269 990 b 104 715 167 935 104 847 b 189 610 104 649 140 610 b 269 692 235 610 269 647 b 190 772 269 736 235 772 z "},"”":{"ha":643,"x_min":0,"x_max":0,"o":"m 193 828 b 79 661 186 768 151 707 b 75 646 71 656 71 651 l 93 615 b 110 614 97 610 103 610 b 269 886 206 667 269 754 b 185 990 269 951 232 990 b 104 908 138 990 104 953 b 183 828 104 864 139 829 z m 464 828 b 350 661 457 768 422 707 b 346 646 342 656 342 651 l 364 615 b 381 614 368 610 374 610 b 540 886 476 667 540 754 b 456 990 540 951 503 990 b 375 908 408 990 375 953 b 454 828 375 864 410 829 z "},"'":{"ha":265,"x_min":0,"x_max":0,"o":"m 83 638 b 104 615 83 619 88 615 l 131 615 b 150 631 143 615 149 619 l 181 947 b 160 972 183 963 179 972 l 104 972 b 83 950 88 972 83 967 z "},"\"":{"ha":517,"x_min":0,"x_max":0,"o":"m 89 638 b 111 615 89 619 94 615 l 138 615 b 157 631 150 615 154 619 l 188 947 b 167 972 190 963 186 972 l 111 972 b 89 950 94 972 89 967 z m 336 638 b 358 615 336 619 342 615 l 383 615 b 404 631 397 615 401 619 l 433 947 b 413 972 438 963 433 972 l 358 972 b 336 950 342 972 336 967 z "},"$":{"ha":854,"x_min":0,"x_max":0,"o":"m 390 -104 b 411 -126 390 -121 394 -126 l 433 -126 b 456 -104 450 -126 456 -121 l 456 -15 b 790 272 681 -8 790 126 b 456 538 790 469 613 518 l 456 889 b 711 799 556 886 639 846 b 742 808 726 788 733 793 l 768 851 b 763 882 775 865 776 874 b 456 986 671 938 572 982 l 456 1068 b 433 1089 456 1083 450 1089 l 411 1089 b 390 1068 394 1089 390 1085 l 390 986 b 69 697 172 976 69 825 b 390 447 69 515 243 468 l 390 83 b 119 175 303 88 200 119 b 89 167 103 185 96 181 l 61 122 b 67 92 53 107 53 100 b 390 -14 168 22 275 -7 z m 683 268 b 456 83 683 129 557 89 l 456 438 b 683 268 596 411 683 372 z m 176 700 b 390 888 176 767 221 876 l 390 547 b 176 700 301 561 176 597 z "},"&":{"ha":1050,"x_min":0,"x_max":0,"o":"m 617 254 b 378 76 561 185 489 76 b 178 261 258 76 178 143 b 422 450 178 364 314 421 z m 438 557 b 303 754 383 604 303 688 b 461 900 303 838 360 900 b 636 754 564 900 636 838 b 442 554 636 661 524 582 z m 974 432 b 979 463 988 442 992 449 l 943 506 b 914 508 933 517 925 517 b 683 324 846 461 744 389 l 510 490 b 742 768 588 525 742 614 b 461 990 742 867 647 990 b 197 768 276 990 197 867 b 347 519 197 664 283 581 l 349 518 b 65 258 224 482 65 419 b 365 -18 65 99 174 -18 b 679 188 513 -18 596 90 l 849 24 b 890 0 864 10 872 0 l 986 0 b 993 24 1004 0 1007 10 l 751 257 b 974 432 821 331 906 385 z "},"%":{"ha":1199,"x_min":0,"x_max":0,"o":"m 285 493 b 518 742 421 493 518 579 b 285 990 518 904 421 990 b 53 742 149 990 53 904 b 285 493 53 579 149 493 z m 285 561 b 132 742 188 561 132 632 b 285 922 132 851 188 922 b 438 742 382 922 438 851 b 285 561 438 632 382 561 z m 974 950 b 960 972 983 965 978 972 l 910 972 b 882 956 896 972 890 968 l 226 22 b 240 0 215 6 222 0 l 289 0 b 318 17 303 0 308 4 z m 913 -3 b 1146 246 1049 -3 1146 83 b 913 494 1146 408 1049 494 b 681 246 776 494 681 408 b 913 -3 681 83 776 -3 z m 913 65 b 761 246 815 65 761 136 b 913 426 761 356 815 426 b 1067 246 1011 426 1067 356 b 913 65 1067 136 1011 65 z "},"#":{"ha":1154,"x_min":0,"x_max":0,"o":"m 161 714 b 140 692 144 714 140 708 l 140 653 b 161 632 140 636 144 632 l 390 632 l 317 346 l 76 346 b 56 324 60 346 56 340 l 56 286 b 76 264 56 269 60 264 l 294 264 l 233 22 b 251 0 229 6 233 0 l 290 0 b 318 19 306 0 313 3 l 379 264 l 663 264 l 601 22 b 618 0 597 6 601 0 l 658 0 b 686 19 672 0 681 3 l 749 264 l 1004 264 b 1026 286 1021 264 1026 269 l 1026 324 b 1004 346 1026 340 1021 346 l 769 346 l 843 632 l 1090 632 b 1113 653 1108 632 1113 636 l 1113 692 b 1090 714 1113 708 1107 714 l 864 714 l 924 950 b 906 972 929 967 922 972 l 868 972 b 839 953 853 972 844 968 l 778 714 l 496 714 l 556 950 b 538 972 561 967 554 972 l 500 972 b 472 953 485 972 476 968 l 411 714 z m 476 632 l 757 632 l 685 346 l 401 346 z "},"…":{"ha":1038,"x_min":0,"x_max":0,"o":"m 104 65 b 185 -15 104 19 139 -15 b 265 65 229 -15 265 19 b 185 147 265 111 229 147 b 104 65 139 147 104 111 z m 438 65 b 518 -15 438 19 474 -15 b 600 65 564 -15 600 19 b 518 147 600 111 564 147 b 438 65 474 147 438 111 z m 772 65 b 853 -15 772 19 807 -15 b 935 65 897 -15 935 19 b 853 147 935 111 897 147 b 772 65 807 147 772 111 z "},"•":{"ha":318,"x_min":0,"x_max":0,"o":"m 60 476 b 160 376 60 419 103 376 b 260 476 214 376 260 419 b 160 576 260 531 214 576 b 60 476 103 576 60 531 z "},"?":{"ha":718,"x_min":0,"x_max":0,"o":"m 294 478 b 279 460 283 476 279 472 l 279 311 b 300 289 279 294 283 289 l 354 289 b 376 311 371 289 376 294 l 376 414 b 704 693 554 453 704 519 b 338 988 704 826 599 988 b 26 879 213 988 107 932 b 19 849 13 871 13 861 l 47 804 b 76 794 56 789 63 785 b 332 890 168 856 246 890 b 597 688 500 890 597 794 b 294 478 597 569 467 510 z m 244 64 b 325 -17 244 18 281 -17 b 407 64 371 -17 407 18 b 325 146 407 108 371 146 b 244 64 281 146 244 108 z "},"[":{"ha":532,"x_min":0,"x_max":0,"o":"m 439 -189 b 418 -167 439 -172 435 -167 l 233 -167 l 233 899 l 418 899 b 439 921 435 899 439 904 l 439 967 b 418 989 439 983 435 989 l 157 989 b 135 967 140 989 135 983 l 135 -235 b 157 -257 135 -251 140 -257 l 418 -257 b 439 -235 435 -257 439 -251 z "},"]":{"ha":528,"x_min":0,"x_max":0,"o":"m 90 -235 b 111 -257 90 -251 94 -257 l 372 -257 b 394 -235 389 -257 394 -251 l 394 967 b 372 989 394 983 389 989 l 111 989 b 90 967 94 989 90 983 l 90 921 b 111 899 90 904 94 899 l 296 899 l 296 -167 l 111 -167 b 90 -189 94 -167 90 -172 z "},"/":{"ha":521,"x_min":0,"x_max":0,"o":"m 475 950 b 457 972 481 967 475 972 l 400 972 b 372 953 386 972 378 968 l 53 22 b 69 0 47 6 53 0 l 128 0 b 156 19 143 0 149 3 z "},"\\":{"ha":597,"x_min":0,"x_max":0,"o":"m 413 19 b 438 0 418 3 421 0 l 492 0 b 511 22 510 0 517 6 l 190 953 b 164 972 186 967 179 972 l 108 972 b 90 950 90 972 85 967 z "},"-":{"ha":596,"x_min":0,"x_max":0,"o":"m 489 353 b 511 374 506 353 511 358 l 511 415 b 489 438 511 432 506 438 l 106 438 b 85 415 89 438 85 432 l 85 375 b 106 353 85 358 89 353 z "},"}":{"ha":625,"x_min":0,"x_max":0,"o":"m 575 374 b 554 397 575 386 569 392 b 433 532 497 413 433 467 l 433 642 b 92 990 433 953 207 990 b 69 968 75 990 69 985 l 69 914 b 92 893 69 897 75 893 b 326 642 172 893 326 857 l 326 532 b 453 349 326 426 397 365 l 453 343 b 326 160 397 326 326 265 l 326 50 b 92 -201 326 -165 172 -201 b 69 -222 74 -201 69 -206 l 69 -276 b 92 -299 69 -294 75 -299 b 433 50 207 -299 433 -261 l 433 160 b 554 294 433 226 497 279 b 575 318 569 299 575 306 z "},"(":{"ha":539,"x_min":0,"x_max":0,"o":"m 50 400 b 406 -183 50 126 194 -75 b 438 -174 422 -192 431 -187 l 465 -126 b 453 -90 475 -110 469 -99 b 156 400 276 -8 156 176 b 453 890 156 624 276 808 b 465 926 469 899 475 910 l 438 974 b 406 983 431 988 422 992 b 50 400 194 872 50 674 z "},"À":{"ha":989,"x_min":0,"x_max":0,"o":"m 497 806 l 701 353 l 292 353 l 496 806 z m 515 976 b 499 996 510 988 506 996 l 494 996 b 476 976 486 996 483 988 l 24 22 b 36 0 18 10 24 0 l 117 0 b 146 22 132 0 138 6 l 254 258 l 739 258 l 847 22 b 875 0 856 6 861 0 l 956 0 b 969 22 969 0 975 10 z m 472 1081 b 508 1067 482 1072 494 1067 l 564 1067 b 568 1090 578 1067 583 1075 l 394 1274 b 367 1268 385 1285 375 1281 l 340 1226 b 344 1199 333 1215 333 1208 z "},"ß":{"ha":894,"x_min":0,"x_max":0,"o":"m 449 543 b 426 521 432 543 426 538 l 426 474 b 449 451 426 457 432 451 l 513 451 b 738 279 642 451 738 374 b 500 94 738 163 668 94 l 406 94 b 383 72 389 94 383 89 l 383 22 b 406 0 383 6 389 0 l 508 0 b 850 268 682 0 850 64 b 656 500 850 422 710 483 l 656 501 b 814 703 715 524 814 581 b 464 972 814 907 632 972 l 456 972 b 122 703 297 972 122 907 l 122 22 b 144 0 122 6 128 0 l 210 0 b 231 22 226 0 231 6 l 231 400 l 231 694 b 461 878 231 829 331 878 b 703 693 610 878 703 819 b 499 543 703 603 618 543 z "},")":{"ha":539,"x_min":0,"x_max":0,"o":"m 524 400 b 168 983 524 674 379 872 b 136 974 151 992 143 988 l 108 926 b 121 890 99 910 104 899 b 418 400 297 808 418 624 b 121 -90 418 176 297 -8 b 108 -126 104 -99 99 -110 l 136 -174 b 168 -183 143 -187 151 -192 b 524 400 379 -75 524 126 z "},"|":{"ha":357,"x_min":0,"x_max":0,"o":"m 133 -115 b 156 -137 133 -132 139 -137 l 201 -137 b 224 -115 218 -137 224 -132 l 224 1088 b 201 1110 224 1104 219 1110 l 156 1110 b 133 1088 139 1110 133 1104 z "},"<":{"ha":757,"x_min":0,"x_max":0,"o":"m 22 488 b 40 463 22 476 28 468 l 667 111 b 688 121 682 103 688 107 l 688 178 b 667 208 688 193 682 201 l 169 489 l 667 768 b 688 799 682 775 688 785 l 688 857 b 667 865 688 869 682 874 l 40 515 b 22 490 28 508 22 503 z "},"+":{"ha":683,"x_min":0,"x_max":0,"o":"m 386 675 b 365 697 386 692 381 697 l 319 697 b 299 675 303 697 299 692 l 299 469 l 92 469 b 69 447 75 469 69 465 l 69 404 b 92 382 69 388 75 382 l 299 382 l 299 174 b 321 151 299 157 303 151 l 364 151 b 386 174 381 151 386 157 l 386 382 l 593 382 b 614 403 610 382 614 388 l 614 449 b 593 469 614 465 610 469 l 386 469 z "},"*":{"ha":607,"x_min":0,"x_max":0,"o":"m 69 635 b 61 604 53 626 54 619 l 75 575 b 104 565 83 560 92 558 l 272 661 l 267 468 b 289 446 265 451 272 446 l 321 446 b 343 468 338 446 343 451 l 336 663 l 504 571 b 533 581 518 563 526 567 l 550 611 b 540 640 557 625 556 633 l 376 715 l 535 793 b 543 822 551 800 551 806 l 528 851 b 499 861 521 865 514 869 l 336 769 l 343 953 b 322 975 343 969 338 975 l 289 975 b 267 953 272 975 265 969 l 272 768 l 108 857 b 78 847 93 865 85 861 l 63 818 b 72 789 56 804 57 796 l 233 714 z "},">":{"ha":757,"x_min":0,"x_max":0,"o":"m 735 490 b 717 515 735 503 731 508 l 92 865 b 69 857 75 874 69 869 l 69 799 b 92 768 69 785 76 775 l 589 489 l 92 208 b 69 178 76 201 69 193 l 69 121 b 92 111 69 107 75 103 l 717 463 b 735 488 729 468 735 476 z "},"Þ":{"ha":894,"x_min":0,"x_max":0,"o":"m 503 0 b 831 353 689 0 831 150 b 503 707 831 554 689 707 l 232 707 l 232 968 b 211 990 232 985 228 990 l 150 990 b 128 968 133 990 128 985 l 128 -261 b 150 -283 128 -278 133 -283 l 211 -283 b 232 -261 228 -283 232 -278 l 232 0 z m 232 94 l 232 614 l 481 614 b 726 353 610 614 726 515 b 481 94 726 192 610 94 z "},"Đ":{"ha":1099,"x_min":0,"x_max":0,"o":"m 39 539 b 17 517 22 539 17 533 l 17 469 b 39 447 17 453 22 447 l 183 447 l 183 22 b 206 0 183 6 190 0 l 546 0 b 1029 486 819 0 1029 210 b 546 972 1029 763 819 972 l 206 972 b 183 950 189 972 183 967 l 183 539 z m 544 878 b 918 486 771 878 918 696 b 544 94 918 278 771 94 l 293 94 l 293 447 l 528 447 b 550 469 544 447 550 453 l 550 517 b 528 539 550 533 544 539 l 293 539 l 293 878 z "},"Æ":{"ha":1351,"x_min":0,"x_max":0,"o":"m 618 0 l 1244 0 b 1265 22 1261 0 1265 6 l 1265 74 b 1244 96 1265 90 1261 96 l 714 96 l 714 443 l 1213 443 b 1235 465 1229 443 1235 449 l 1235 517 b 1213 539 1235 533 1229 539 l 714 539 l 714 876 l 1244 876 b 1265 899 1260 876 1265 882 l 1265 950 b 1244 972 1265 967 1260 972 l 582 972 b 549 935 569 972 563 960 l 24 22 b 36 0 18 10 24 0 l 117 0 b 146 22 132 0 138 4 l 283 258 l 596 258 l 596 22 b 618 0 596 6 601 0 z m 596 821 l 596 353 l 332 353 z "},"æ":{"ha":1301,"x_min":0,"x_max":0,"o":"m 582 392 b 346 440 511 421 419 440 b 67 213 176 440 67 367 b 314 -15 67 63 181 -15 b 635 140 464 -15 585 79 b 901 -15 671 71 771 -15 b 1188 83 1007 -15 1124 19 b 1185 113 1196 92 1196 100 l 1158 144 b 1128 146 1150 154 1142 154 b 907 76 1063 97 974 76 b 689 226 807 76 721 150 l 689 317 l 1221 317 b 1242 336 1239 317 1242 324 l 1242 342 b 901 722 1242 522 1139 722 b 635 613 799 722 717 692 b 388 722 588 696 506 722 b 146 697 286 722 163 701 b 131 669 129 692 126 685 l 140 628 b 168 608 144 614 151 606 b 382 631 221 618 293 631 b 582 507 493 631 561 603 z m 582 197 b 335 67 539 132 432 67 b 163 211 222 67 163 129 b 368 363 163 311 236 363 b 582 313 447 363 511 342 z m 692 510 b 900 635 731 574 793 635 b 1135 389 1058 635 1129 514 l 692 389 z "},"¶":{"ha":1067,"x_min":0,"x_max":0,"o":"m 426 -307 b 449 -329 426 -324 432 -329 l 497 -329 b 519 -307 514 -329 519 -324 l 519 875 l 732 875 l 732 -308 b 754 -331 732 -325 738 -331 l 803 -331 b 825 -308 819 -331 825 -325 l 825 875 l 985 875 b 1007 896 1001 875 1007 879 l 1007 950 b 985 972 1007 967 1001 972 l 382 972 b 63 657 218 972 63 860 b 426 326 63 454 218 326 z "},"»":{"ha":747,"x_min":0,"x_max":0,"o":"m 442 657 b 414 663 432 668 425 669 l 372 639 b 368 611 360 631 360 622 l 588 353 l 368 94 b 372 67 360 83 360 75 l 414 43 b 442 49 425 36 432 38 l 675 306 b 697 349 692 324 697 339 l 697 357 b 675 400 697 368 690 382 z m 143 657 b 114 663 132 668 126 669 l 72 639 b 68 611 60 631 60 622 l 288 353 l 68 94 b 72 67 60 83 60 75 l 114 43 b 143 49 126 36 132 38 l 375 306 b 397 349 392 324 397 339 l 397 357 b 375 400 397 368 390 382 z "},"¡":{"ha":472,"x_min":0,"x_max":0,"o":"m 174 -429 b 196 -451 174 -446 179 -451 l 278 -451 b 299 -429 294 -451 299 -446 l 286 169 b 265 192 286 186 282 192 l 208 192 b 186 169 192 192 186 186 z m 157 457 b 236 376 157 413 192 376 b 317 457 281 376 317 413 b 236 536 317 501 281 536 b 157 457 192 536 157 501 z "},"×":{"ha":574,"x_min":0,"x_max":0,"o":"m 438 211 b 468 211 449 199 457 199 l 500 242 b 500 272 511 253 511 260 l 351 421 l 500 569 b 500 600 511 581 511 588 l 468 631 b 438 631 456 643 449 643 l 289 482 l 142 631 b 110 631 129 643 122 643 l 79 600 b 79 569 67 588 67 581 l 226 421 l 79 272 b 79 242 67 261 67 253 l 110 211 b 142 211 122 199 129 199 l 289 360 z "},"Ø":{"ha":1133,"x_min":0,"x_max":0,"o":"m 69 488 b 296 64 69 307 164 153 l 242 -37 b 260 -60 235 -50 242 -60 l 297 -60 b 325 -43 314 -60 319 -54 l 363 28 b 567 -18 415 1 490 -18 b 1064 486 840 -18 1064 210 b 824 917 1064 719 917 854 l 874 1008 b 857 1032 882 1022 875 1032 l 818 1032 b 790 1015 803 1032 796 1026 l 757 951 b 567 990 703 974 631 990 b 69 488 293 990 69 764 z m 953 486 b 567 79 953 278 786 79 b 408 117 497 79 438 103 l 775 822 b 953 486 833 778 953 668 z m 181 486 b 567 893 178 696 351 893 b 713 861 632 893 686 872 l 347 158 b 181 486 294 201 182 311 z "},"«":{"ha":747,"x_min":0,"x_max":0,"o":"m 72 400 b 51 357 57 382 51 368 l 51 349 b 72 306 51 339 57 324 l 306 49 b 335 43 317 38 322 36 l 376 67 b 379 94 388 75 389 83 l 160 353 l 379 611 b 376 639 389 622 389 631 l 335 663 b 306 657 322 669 317 668 z m 372 400 b 351 357 357 382 351 368 l 351 349 b 372 306 351 339 356 324 l 606 49 b 633 43 617 38 622 36 l 676 67 b 679 94 688 75 689 83 l 460 353 l 679 611 b 676 639 689 622 689 631 l 633 663 b 606 657 622 669 617 668 z "},"℮":{"ha":1118,"x_min":0,"x_max":0,"o":"m 221 724 b 561 918 274 807 393 918 b 897 729 735 918 840 813 l 897 519 l 221 519 z m 1038 447 b 1058 469 1054 447 1058 451 l 1058 486 b 561 990 1058 763 835 990 b 64 486 288 990 64 763 b 561 -18 64 208 288 -18 b 908 124 700 -18 814 36 b 910 157 922 136 921 146 l 886 183 b 856 183 874 196 868 194 b 561 53 793 115 683 53 b 221 247 393 53 279 158 l 221 447 z "},"®":{"ha":1142,"x_min":0,"x_max":0,"o":"m 756 588 b 581 740 756 707 665 740 l 406 740 b 393 729 397 740 393 738 l 393 243 b 406 232 393 235 396 232 l 450 232 b 461 243 457 232 461 235 l 461 431 l 569 431 l 703 243 b 722 232 708 235 714 232 l 765 232 b 779 246 778 232 783 235 l 640 438 b 756 588 699 453 756 501 z m 461 489 l 461 682 l 576 682 b 690 588 647 682 690 657 b 579 489 690 524 651 489 z m 67 486 b 571 -18 67 207 292 -18 b 1075 486 849 -18 1075 207 b 571 990 1075 764 849 990 b 67 486 292 990 67 764 z m 110 486 b 571 947 110 740 315 947 b 1032 486 825 947 1032 740 b 571 25 1032 231 825 25 b 110 486 315 25 110 231 z "},"©":{"ha":1142,"x_min":0,"x_max":0,"o":"m 67 486 b 571 -18 67 207 292 -18 b 571 990 1225 -18 1225 990 b 67 486 292 990 67 764 z m 111 486 b 572 947 111 740 317 947 b 572 25 1169 947 1169 25 b 111 486 317 25 111 231 z m 569 290 b 710 349 631 290 676 315 b 726 347 717 354 719 354 l 750 322 b 749 303 756 314 756 311 b 569 232 701 257 636 232 b 319 485 429 232 319 346 b 569 740 319 625 429 740 b 749 668 636 740 701 715 b 750 650 756 660 756 657 l 726 624 b 710 624 719 618 717 618 b 569 682 676 657 631 682 b 385 485 460 682 385 592 b 569 290 385 381 461 290 z "},"§":{"ha":881,"x_min":0,"x_max":0,"o":"m 806 272 b 475 538 806 458 653 513 b 192 700 322 558 192 586 b 447 890 192 763 239 890 b 726 799 547 890 638 858 b 757 808 742 788 749 793 l 783 851 b 775 883 790 865 792 874 b 435 988 669 950 578 988 b 85 697 165 988 85 804 b 175 524 85 617 117 563 b 85 325 125 475 85 401 b 414 74 85 140 258 94 b 699 -104 594 50 699 11 b 438 -290 699 -249 565 -290 b 135 -197 333 -290 221 -256 b 104 -206 119 -187 113 -190 l 76 -250 b 86 -283 68 -265 68 -272 b 451 -387 192 -354 307 -387 b 806 -101 690 -387 806 -258 b 724 79 806 -15 774 39 b 806 272 775 125 806 206 z m 414 446 b 699 268 594 421 699 383 b 622 128 699 197 657 143 b 475 165 600 135 582 149 b 192 328 322 186 192 214 b 275 476 192 382 226 447 b 414 446 292 472 396 449 z "},"¨":{"ha":550,"x_min":0,"x_max":0,"o":"m 78 939 b 140 876 78 904 106 876 b 204 939 175 876 204 904 b 140 1003 204 974 175 1003 b 78 939 106 1003 78 974 z m 346 939 b 410 876 346 904 374 876 b 472 939 444 876 472 904 b 410 1003 472 974 444 1003 b 346 939 374 1003 346 974 z "},"¢":{"ha":746,"x_min":0,"x_max":0,"o":"m 335 -185 b 353 -210 332 -203 336 -207 l 372 -211 b 399 -192 389 -214 394 -210 l 421 -17 b 688 89 532 -17 619 21 b 688 118 699 99 699 106 l 654 153 b 625 157 644 165 636 168 b 433 81 583 115 522 79 l 507 617 b 625 550 543 608 590 586 b 654 554 636 539 644 542 l 688 589 b 688 618 699 601 699 608 b 519 711 644 661 581 699 l 539 846 b 519 869 540 864 535 868 l 500 872 b 475 853 483 875 478 869 l 457 721 l 431 722 b 67 353 236 726 67 556 b 358 -8 67 182 183 26 z m 169 353 b 444 626 169 504 288 632 l 371 89 b 169 353 275 108 169 210 z "},"‰":{"ha":1750,"x_min":0,"x_max":0,"o":"m 285 493 b 518 742 421 493 518 579 b 285 990 518 904 421 990 b 53 742 149 990 53 904 b 285 493 53 579 149 493 z m 285 561 b 132 742 188 561 132 632 b 285 922 132 851 188 922 b 438 742 382 922 438 851 b 285 561 438 632 382 561 z m 974 950 b 960 972 983 965 978 972 l 910 972 b 882 956 896 972 890 968 l 226 22 b 240 0 215 6 222 0 l 289 0 b 318 17 303 0 308 4 z m 913 -3 b 1146 246 1049 -3 1146 83 b 913 494 1146 408 1049 494 b 681 246 776 494 681 408 b 913 -3 681 83 776 -3 z m 913 65 b 761 246 815 65 761 136 b 913 426 761 356 815 426 b 1067 246 1011 426 1067 356 b 913 65 1067 136 1011 65 z m 1464 -3 b 1697 246 1600 -3 1697 83 b 1464 494 1697 408 1600 494 b 1232 246 1328 494 1232 408 b 1464 -3 1232 83 1328 -3 z m 1464 65 b 1313 246 1367 65 1313 136 b 1464 426 1313 356 1367 426 b 1618 246 1563 426 1618 356 b 1464 65 1618 136 1563 65 z "},"†":{"ha":572,"x_min":0,"x_max":0,"o":"m 485 579 b 507 601 501 579 507 583 l 507 643 b 485 664 507 660 501 664 l 331 664 l 331 950 b 310 972 331 967 326 972 l 263 972 b 242 950 246 972 242 967 l 242 664 l 86 664 b 65 643 69 664 65 660 l 65 601 b 86 579 65 585 69 579 l 242 579 l 250 -115 b 271 -137 250 -132 254 -137 l 300 -137 b 322 -115 317 -137 322 -132 l 329 579 z "},"‡":{"ha":589,"x_min":0,"x_max":0,"o":"m 493 182 b 515 204 510 182 515 188 l 515 244 b 493 267 515 261 510 267 l 339 267 l 339 619 l 493 619 b 515 642 510 619 515 624 l 515 682 b 493 704 515 699 510 704 l 339 704 l 339 950 b 318 972 339 967 335 972 l 271 972 b 250 950 254 972 250 967 l 250 704 l 94 704 b 74 682 78 704 74 699 l 74 642 b 94 619 74 625 78 619 l 250 619 l 250 267 l 94 267 b 74 244 78 267 74 261 l 74 204 b 94 182 74 188 78 182 l 250 182 l 250 -115 b 271 -137 250 -132 254 -137 l 318 -137 b 339 -115 335 -137 339 -132 l 339 182 z "},"Ω":{"ha":1183,"x_min":0,"x_max":0,"o":"m 976 486 b 746 117 976 313 831 186 b 713 53 719 82 713 71 l 713 22 b 735 0 713 6 718 0 l 1090 0 b 1113 22 1107 0 1113 6 l 1113 74 b 1090 96 1113 90 1107 96 l 846 96 b 1088 486 969 181 1088 331 b 590 990 1088 763 864 990 b 93 486 317 990 93 763 b 313 96 93 331 189 181 l 97 96 b 75 74 81 96 75 90 l 75 22 b 97 0 75 6 81 0 l 424 0 b 446 22 440 0 446 6 l 446 53 b 411 117 446 71 439 82 b 204 486 328 186 207 313 b 590 893 200 696 374 893 b 976 486 808 893 976 696 z "},"¥":{"ha":890,"x_min":0,"x_max":0,"o":"m 443 483 l 143 950 b 114 972 135 967 128 972 l 35 972 b 25 950 19 972 15 967 l 304 517 l 119 517 b 97 494 103 517 97 511 l 97 465 b 119 443 97 449 103 443 l 349 443 l 389 381 l 389 283 l 119 283 b 97 261 103 283 97 278 l 97 232 b 119 210 97 215 103 210 l 389 210 l 389 22 b 411 0 389 6 394 0 l 474 0 b 496 22 490 0 496 6 l 496 210 l 771 210 b 793 232 788 210 793 215 l 793 261 b 771 283 793 278 788 283 l 496 283 l 496 353 l 510 404 l 544 443 l 771 443 b 793 465 788 443 793 449 l 793 494 b 771 517 793 511 788 517 l 581 517 l 858 950 b 849 972 874 981 875 972 l 772 972 b 742 950 758 972 753 968 z "},"İ":{"ha":432,"x_min":0,"x_max":0,"o":"m 161 22 b 183 0 161 6 167 0 l 250 0 b 271 22 267 0 271 6 l 271 950 b 250 972 271 967 267 972 l 183 972 b 161 950 167 972 161 967 z m 143 1206 b 215 1133 143 1165 175 1133 b 289 1206 256 1133 289 1165 b 215 1278 289 1246 256 1278 b 143 1206 175 1278 143 1246 z "},"µ":{"ha":863,"x_min":0,"x_max":0,"o":"m 647 22 b 671 0 653 6 658 0 l 704 0 b 725 22 719 0 725 6 l 725 685 b 704 707 725 701 719 707 l 642 707 b 621 685 626 707 621 701 l 621 354 b 424 79 621 207 542 79 b 242 326 281 79 242 201 l 242 685 b 221 707 242 701 236 707 l 158 707 b 138 685 143 707 138 701 l 138 -261 b 158 -283 138 -278 143 -283 l 221 -283 b 242 -261 236 -283 242 -278 l 242 72 b 401 -15 274 13 339 -15 b 636 151 535 -15 588 85 z "},"™":{"ha":1231,"x_min":0,"x_max":0,"o":"m 25 972 b 14 961 17 972 14 969 l 14 917 b 25 906 14 908 17 906 l 204 906 l 204 447 b 215 438 204 439 207 438 l 264 438 b 276 447 274 438 276 440 l 276 906 l 456 906 b 465 917 463 906 465 908 l 465 961 b 456 972 465 969 464 972 z m 1074 818 l 1115 450 b 1126 438 1115 440 1118 438 l 1171 438 b 1182 450 1181 438 1183 440 l 1119 976 b 1113 983 1118 982 1118 983 l 1108 983 b 1097 976 1104 983 1101 982 l 853 529 l 608 976 b 599 983 604 982 603 983 l 593 983 b 588 976 589 983 589 982 l 524 450 b 535 438 522 440 525 438 l 578 438 b 592 450 588 438 590 440 l 633 818 l 836 440 b 850 428 840 432 843 428 l 856 428 b 871 440 863 428 865 432 z "},"¤":{"ha":728,"x_min":0,"x_max":0,"o":"m 126 475 b 171 335 126 433 133 388 l 76 242 b 76 211 64 229 65 222 l 99 188 b 129 188 110 176 118 176 l 224 282 b 364 238 275 246 322 238 b 504 281 404 238 451 246 l 599 186 b 629 186 610 175 618 175 l 651 210 b 651 239 663 221 664 228 l 556 335 b 603 475 594 388 603 433 b 556 614 603 515 594 564 l 653 711 b 653 740 664 722 664 729 l 631 764 b 600 764 618 775 611 775 l 504 668 b 364 714 453 706 406 714 b 224 669 322 714 275 706 l 128 764 b 99 765 117 775 108 775 l 75 740 b 75 711 64 729 64 722 l 169 615 b 126 475 133 564 126 517 z m 204 475 b 364 639 204 564 265 639 b 524 475 461 639 524 564 b 364 313 524 386 461 313 b 204 475 265 313 204 386 z "},"¦":{"ha":360,"x_min":0,"x_max":0,"o":"m 142 -101 b 164 -122 142 -118 147 -122 l 197 -122 b 218 -101 214 -122 218 -118 l 218 410 b 197 432 218 425 214 432 l 164 432 b 142 410 147 432 142 426 z m 142 607 b 164 585 142 590 147 585 l 197 585 b 218 607 214 585 218 590 l 218 1050 b 197 1072 218 1067 214 1072 l 164 1072 b 142 1050 147 1072 142 1067 z "},"Ĳ":{"ha":1014,"x_min":0,"x_max":0,"o":"m 143 22 b 165 0 143 6 149 0 l 232 0 b 253 22 249 0 253 6 l 253 950 b 232 972 253 967 249 972 l 165 972 b 143 950 149 972 143 967 z m 578 885 b 556 907 561 885 556 890 l 556 950 b 578 972 556 967 561 972 l 888 972 b 908 950 904 972 908 967 l 908 378 b 478 -18 908 90 758 -17 b 449 4 456 -18 451 -12 l 443 58 b 469 82 440 75 449 82 b 799 378 710 82 799 175 l 799 885 z "},"ĳ":{"ha":972,"x_min":0,"x_max":0,"o":"m 165 22 b 186 0 165 6 169 0 l 247 0 b 269 22 264 0 269 6 l 269 685 b 247 707 269 701 265 707 l 186 707 b 165 685 169 707 165 701 z m 143 939 b 215 867 143 899 175 867 b 289 939 256 867 289 899 b 215 1011 289 979 256 1011 b 143 939 175 1011 143 979 z m 694 939 b 768 867 694 899 726 867 b 840 939 807 867 840 899 b 768 1011 840 979 807 1011 b 694 939 726 1011 694 979 z m 506 642 b 526 619 506 626 513 619 l 719 619 l 719 586 l 719 -11 b 560 -233 719 -174 671 -233 b 458 -208 533 -233 493 -229 b 432 -221 440 -199 436 -200 l 422 -264 b 432 -292 418 -281 421 -285 b 569 -328 489 -328 551 -328 b 822 -18 753 -328 822 -212 l 822 685 b 801 707 822 701 818 707 l 526 707 b 506 685 513 707 506 701 z "},"Δ":{"ha":1075,"x_min":0,"x_max":0,"o":"m 1032 0 b 1050 38 1058 0 1064 8 l 572 953 b 542 990 558 976 554 990 l 538 990 b 507 953 525 990 521 976 l 29 38 b 47 0 15 8 21 0 z m 900 94 l 179 96 l 540 800 z "},"±":{"ha":776,"x_min":0,"x_max":0,"o":"m 432 903 b 411 925 432 919 428 925 l 367 925 b 344 903 350 925 344 919 l 344 697 l 139 697 b 117 675 121 697 117 693 l 117 632 b 139 610 117 615 121 610 l 344 610 l 344 422 b 367 400 344 406 350 400 l 411 400 b 432 422 428 400 432 406 l 432 610 l 639 610 b 661 631 656 610 661 615 l 661 676 b 639 697 661 693 656 697 l 432 697 z m 649 122 b 671 143 665 122 671 128 l 671 189 b 649 211 671 206 665 211 l 128 211 b 106 189 111 211 106 206 l 106 143 b 128 122 106 128 111 122 z "},"£":{"ha":736,"x_min":0,"x_max":0,"o":"m 97 490 b 75 468 81 490 75 485 l 75 454 b 97 433 75 438 81 433 l 199 433 b 103 22 228 276 103 76 b 124 0 103 6 107 0 l 644 0 b 667 22 661 0 667 6 l 667 74 b 644 96 667 90 661 96 l 238 96 b 303 433 258 171 321 311 l 571 433 b 593 454 588 433 593 438 l 593 468 b 571 490 593 485 588 490 l 290 490 b 190 715 250 561 190 644 b 368 893 190 796 240 893 b 599 807 431 893 538 856 b 629 815 614 797 621 803 l 657 861 b 651 890 664 876 664 882 b 363 990 547 958 456 990 b 85 728 164 990 85 850 b 181 490 85 618 146 551 z "},"€":{"ha":865,"x_min":0,"x_max":0,"o":"m 667 343 b 688 364 683 343 688 349 l 688 379 b 667 400 688 396 683 400 l 247 400 b 239 493 243 425 239 465 l 242 549 l 667 549 b 688 569 683 549 688 554 l 688 585 b 667 606 688 601 683 606 l 253 606 b 594 893 289 744 396 893 b 751 863 649 893 715 879 b 778 872 765 856 772 858 l 797 925 b 789 953 801 938 801 947 b 594 990 728 978 660 990 b 139 606 363 990 183 826 l 39 606 b 17 583 22 606 17 601 l 17 571 b 39 549 17 554 22 549 l 131 549 l 128 493 b 135 400 128 465 131 426 l 39 400 b 17 379 22 400 17 396 l 17 365 b 39 343 17 349 22 343 l 149 343 b 594 -18 197 139 375 -18 b 789 19 660 -18 729 -7 b 796 47 801 25 803 32 l 776 99 b 749 110 771 111 765 117 b 594 79 713 92 638 79 b 263 343 404 79 299 231 z "},"¼":{"ha":897,"x_min":0,"x_max":0,"o":"m 701 950 b 685 972 710 965 701 972 l 649 972 b 621 953 633 972 626 967 l 143 22 b 161 0 136 7 143 0 l 196 0 b 225 19 211 0 218 6 z m 65 910 b 58 896 60 907 58 903 l 58 860 b 71 850 58 850 63 849 l 163 886 l 163 556 b 176 542 163 544 167 542 l 219 542 b 232 556 229 542 232 544 l 232 958 b 219 972 232 968 229 972 l 189 972 b 161 963 181 972 171 968 z m 699 431 b 682 422 689 431 686 426 l 510 176 b 499 150 501 167 499 160 l 499 128 b 513 114 499 117 501 114 l 699 114 l 699 14 b 713 0 699 3 701 0 l 747 0 b 761 14 757 0 761 3 l 761 114 l 826 114 b 839 128 836 114 839 117 l 839 157 b 826 171 839 167 836 171 l 761 171 l 761 417 b 747 431 761 426 757 431 z m 699 350 l 699 171 l 571 171 z "},"–":{"ha":558,"x_min":0,"x_max":0,"o":"m 476 351 b 497 372 493 351 497 357 l 497 415 b 476 436 497 432 493 436 l 83 436 b 61 414 67 436 61 432 l 61 374 b 83 351 61 357 67 351 z "},"—":{"ha":793,"x_min":0,"x_max":0,"o":"m 711 351 b 732 372 728 351 732 357 l 732 415 b 711 436 732 432 728 436 l 83 436 b 61 414 67 436 61 432 l 61 374 b 83 351 61 357 67 351 z "},"Ω":{"ha":1183,"x_min":0,"x_max":0,"o":"m 976 486 b 746 117 976 313 831 186 b 713 53 719 82 713 71 l 713 22 b 735 0 713 6 718 0 l 1090 0 b 1113 22 1107 0 1113 6 l 1113 74 b 1090 96 1113 90 1107 96 l 846 96 b 1088 486 969 181 1088 331 b 590 990 1088 763 864 990 b 93 486 317 990 93 763 b 313 96 93 331 189 181 l 97 96 b 75 74 81 96 75 90 l 75 22 b 97 0 75 6 81 0 l 424 0 b 446 22 440 0 446 6 l 446 53 b 411 117 446 71 439 82 b 204 486 328 186 207 313 b 590 893 200 696 374 893 b 976 486 808 893 976 696 z "},"‹":{"ha":457,"x_min":0,"x_max":0,"o":"m 74 400 b 53 357 58 382 53 368 l 53 349 b 74 306 53 339 58 324 l 307 49 b 336 43 318 38 324 36 l 378 67 b 381 94 390 75 390 83 l 161 353 l 381 611 b 378 639 390 622 390 631 l 336 663 b 307 657 324 669 318 668 z "},"›":{"ha":457,"x_min":0,"x_max":0,"o":"m 149 657 b 121 663 139 668 132 669 l 79 639 b 75 611 67 631 67 622 l 294 353 l 75 94 b 79 67 67 83 67 75 l 121 43 b 149 49 132 36 139 38 l 382 306 b 404 349 399 324 404 339 l 404 357 b 382 400 404 368 397 382 z "},"∆":{"ha":1071,"x_min":0,"x_max":0,"o":"m 1028 0 b 1046 38 1054 0 1060 8 l 568 953 b 538 990 554 976 550 990 l 533 990 b 503 953 521 990 517 976 l 25 38 b 43 0 11 8 17 0 z m 896 94 l 175 96 l 536 800 z "},"π":{"ha":1035,"x_min":0,"x_max":0,"o":"m 44 707 b 22 685 28 707 22 701 l 22 633 b 44 611 22 617 28 611 l 232 611 l 232 22 b 254 0 232 6 236 0 l 314 0 b 336 22 332 0 336 6 l 336 611 l 581 611 l 581 293 b 833 -15 581 100 650 -15 b 965 18 840 -15 908 -18 b 975 44 978 25 979 31 l 967 89 b 939 100 961 108 957 110 b 843 79 906 82 882 79 b 685 301 732 79 685 139 l 685 611 l 936 611 b 957 633 953 611 957 617 l 957 685 b 936 707 957 701 953 707 z "},"∑":{"ha":843,"x_min":0,"x_max":0,"o":"m 511 467 b 511 503 521 481 519 490 l 274 876 l 740 876 b 763 899 757 876 763 882 l 763 950 b 740 972 763 967 757 972 l 122 972 b 100 950 106 972 100 967 l 401 483 l 100 22 b 122 0 100 6 106 0 l 740 0 b 763 22 757 0 763 6 l 763 74 b 740 96 763 90 757 96 l 274 96 z "},"´":{"ha":361,"x_min":0,"x_max":0,"o":"m 294 933 b 299 961 306 943 306 950 l 272 1003 b 244 1008 264 1015 254 1019 l 71 825 b 75 801 56 810 61 801 l 131 801 b 167 815 144 801 157 807 z "},"∏":{"ha":915,"x_min":0,"x_max":0,"o":"m 251 876 l 664 876 l 664 22 b 686 0 664 6 669 0 l 753 0 b 774 22 769 0 774 6 l 774 950 b 753 972 774 967 768 972 l 164 972 b 142 950 147 972 142 967 l 142 22 b 164 0 142 6 147 0 l 229 0 b 251 22 246 0 251 6 z "},"∞":{"ha":960,"x_min":0,"x_max":0,"o":"m 910 515 b 675 814 910 724 806 814 b 471 647 538 814 481 681 l 468 647 b 278 793 457 675 407 793 b 50 515 149 793 50 693 b 278 238 50 338 149 238 b 468 386 407 238 457 356 l 471 386 b 675 217 481 350 538 217 b 910 515 806 217 910 310 z m 506 515 b 671 722 514 619 569 722 b 829 515 754 722 829 664 b 671 308 829 371 754 308 b 506 515 569 308 514 411 z m 131 515 b 282 703 131 629 196 703 b 433 515 374 703 426 618 b 282 329 426 414 374 329 b 131 515 196 329 131 403 z "},"∕":{"ha":668,"x_min":0,"x_max":0,"o":"m 608 950 b 590 972 615 965 608 972 l 556 972 b 526 953 540 972 533 967 l 67 22 b 83 0 58 7 67 0 l 119 0 b 147 19 135 0 142 6 z "},"₧":{"ha":2144,"x_min":0,"x_max":0,"o":""},"−":{"ha":796,"x_min":0,"x_max":0,"o":"m 706 360 b 726 381 722 360 726 364 l 726 417 b 706 439 726 433 722 439 l 92 439 b 69 415 75 439 69 432 l 69 381 b 92 360 69 364 75 360 z "},"⁄":{"ha":638,"x_min":0,"x_max":0,"o":"m 596 950 b 578 972 603 965 596 972 l 543 972 b 514 953 528 972 521 967 l 54 22 b 71 0 46 7 54 0 l 107 0 b 135 19 122 0 129 6 z "},"∂":{"ha":847,"x_min":0,"x_max":0,"o":"m 379 635 b 65 331 214 635 65 532 b 401 -18 65 140 189 -18 b 775 428 715 -18 775 210 b 394 990 775 719 699 990 b 85 868 271 990 176 950 b 86 838 72 857 74 850 l 124 797 b 157 796 135 785 144 783 b 401 893 236 867 306 893 b 667 461 593 893 667 704 b 379 635 624 560 528 635 z m 407 76 b 174 325 251 76 174 193 b 407 544 174 461 281 544 b 657 313 535 544 657 435 b 407 76 657 243 615 76 z "},"μ":{"ha":863,"x_min":0,"x_max":0,"o":"m 647 22 b 671 0 653 6 658 0 l 704 0 b 725 22 719 0 725 6 l 725 685 b 704 707 725 701 719 707 l 642 707 b 621 685 626 707 621 701 l 621 354 b 424 79 621 207 542 79 b 242 326 281 79 242 201 l 242 685 b 221 707 242 701 236 707 l 158 707 b 138 685 143 707 138 701 l 138 -261 b 158 -283 138 -278 143 -283 l 221 -283 b 242 -261 236 -283 242 -278 l 242 72 b 401 -15 274 13 339 -15 b 636 151 535 -15 588 85 z "},"÷":{"ha":746,"x_min":0,"x_max":0,"o":"m 682 386 b 703 407 699 386 703 392 l 703 443 b 682 465 703 460 699 465 l 69 465 b 47 443 53 465 47 460 l 47 408 b 69 386 47 392 53 386 z m 308 156 b 374 90 308 118 336 90 b 440 156 411 90 440 118 b 374 224 440 194 411 224 b 308 156 336 224 308 194 z m 308 685 b 374 619 308 649 336 619 b 440 685 411 619 440 649 b 374 753 440 722 410 753 b 308 685 336 753 308 722 z "},"≠":{"ha":778,"x_min":0,"x_max":0,"o":"m 165 22 b 182 0 160 7 164 0 l 215 0 b 243 19 231 0 238 6 l 368 336 l 688 336 b 708 357 704 336 708 340 l 708 399 b 688 421 708 415 704 421 l 401 421 l 475 610 l 688 610 b 708 631 704 610 708 615 l 708 672 b 688 694 708 689 704 694 l 508 694 b 610 957 601 932 608 951 b 592 972 613 968 606 972 l 558 972 b 531 953 543 972 536 967 l 428 694 l 92 694 b 69 672 75 694 69 689 l 69 632 b 92 610 69 615 75 610 l 396 610 l 321 421 l 92 421 b 69 399 75 421 69 415 l 69 357 b 92 336 69 340 75 336 l 288 336 z "},"¬":{"ha":718,"x_min":0,"x_max":0,"o":"m 556 107 b 576 85 556 90 560 85 l 618 85 b 640 107 636 85 640 90 l 640 453 b 619 475 640 469 636 475 l 92 475 b 69 453 75 475 69 469 l 69 413 b 92 390 69 396 75 390 l 556 390 z "},"­":{"ha":565,"x_min":0,"x_max":0,"o":"m 475 351 b 496 372 492 351 496 357 l 496 415 b 475 436 496 432 492 436 l 92 436 b 69 414 75 436 69 432 l 69 374 b 92 351 69 357 75 351 z "},"^":{"ha":497,"x_min":0,"x_max":0,"o":"m 232 1046 b 201 1024 218 1046 210 1036 l 57 818 b 65 796 47 803 51 796 l 108 796 b 143 818 124 796 133 803 l 250 981 l 358 818 b 393 796 367 803 378 796 l 436 796 b 444 818 450 796 454 803 l 299 1024 b 269 1046 290 1036 283 1046 z "},"√":{"ha":968,"x_min":0,"x_max":0,"o":"m 946 871 b 968 893 961 871 968 875 l 968 950 b 946 972 968 967 963 972 l 746 972 b 717 950 732 972 725 967 l 363 178 l 138 685 b 108 707 129 701 122 707 l 36 707 b 26 685 22 707 18 701 l 344 -3 b 361 -22 351 -15 354 -22 l 365 -22 b 382 -3 371 -22 375 -17 l 789 871 z "},"◊":{"ha":942,"x_min":0,"x_max":0,"o":"m 157 486 l 474 857 l 790 486 l 474 115 z m 874 429 b 874 543 913 468 913 504 l 522 953 b 476 982 507 971 490 982 b 471 982 475 982 472 982 b 425 953 457 982 440 971 l 74 543 b 74 429 35 504 35 468 l 425 19 b 471 -10 440 1 457 -10 b 476 -10 472 -10 475 -10 b 522 19 490 -10 507 1 z "},"≤":{"ha":757,"x_min":0,"x_max":0,"o":"m 115 700 b 97 675 101 693 97 688 l 97 619 b 115 594 97 608 103 600 l 622 349 b 643 358 638 342 643 344 l 643 424 b 622 453 643 438 636 446 l 219 647 l 622 842 b 643 871 636 849 643 857 l 643 936 b 622 946 643 950 638 953 z m 654 124 b 675 144 671 124 675 128 l 675 190 b 654 213 675 207 671 213 l 101 213 b 79 189 85 213 79 207 l 79 144 b 101 124 79 128 85 124 z "},"≥":{"ha":757,"x_min":0,"x_max":0,"o":"m 135 946 b 113 936 118 953 113 950 l 113 871 b 135 842 113 857 119 849 l 538 647 l 135 453 b 113 424 119 446 113 438 l 113 358 b 135 349 113 344 118 342 l 642 594 b 660 619 654 600 660 608 l 660 675 b 642 700 660 688 654 693 z m 656 124 b 676 144 672 124 676 128 l 676 189 b 656 213 676 207 672 213 l 103 213 b 81 190 86 213 81 207 l 81 144 b 103 124 81 128 86 124 z "},"∫":{"ha":682,"x_min":0,"x_max":0,"o":"m 271 -11 b 113 -233 271 -174 224 -233 b 11 -208 64 -233 35 -219 b -15 -221 -7 -200 -12 -201 l -25 -264 b -15 -292 -29 -281 -26 -285 b 122 -328 44 -326 104 -328 b 375 -18 306 -328 375 -212 l 375 674 b 533 896 375 835 424 896 b 636 871 582 896 613 882 b 663 883 654 863 657 863 l 671 926 b 663 954 675 943 674 947 b 525 990 603 989 543 990 b 271 681 342 990 271 875 z "},"∙":{"ha":308,"x_min":0,"x_max":0,"o":"m 68 476 b 154 390 68 428 107 390 b 240 476 201 390 240 428 b 154 563 240 524 201 563 b 68 476 107 563 68 524 z "},"ƒ":{"ha":667,"x_min":0,"x_max":0,"o":"m 346 618 l 596 618 b 618 640 613 618 618 622 l 618 682 b 596 704 618 699 613 704 l 346 704 l 346 740 b 504 963 346 903 394 963 b 606 939 543 963 571 958 b 633 950 624 929 628 931 l 642 993 b 632 1021 646 1008 644 1014 b 494 1057 576 1057 513 1057 b 242 747 311 1057 242 942 l 242 704 l 118 704 b 96 682 101 704 96 699 l 96 640 b 118 618 96 622 101 618 l 242 618 l 242 -11 b 126 -233 242 -136 217 -233 b 25 -208 106 -233 58 -229 b -1 -221 7 -199 3 -200 l -11 -264 b -1 -292 -15 -281 -12 -285 b 136 -328 54 -328 118 -328 b 346 -18 281 -328 346 -232 z "},"¯":{"ha":518,"x_min":0,"x_max":0,"o":"m 426 911 b 449 932 443 911 449 917 l 449 968 b 426 990 449 985 443 990 l 92 990 b 69 968 75 990 69 985 l 69 933 b 92 911 69 917 75 911 z "},"°":{"ha":556,"x_min":0,"x_max":0,"o":"m 67 778 b 276 567 67 658 158 567 b 489 778 393 567 489 658 b 276 988 489 896 393 988 b 67 778 158 988 67 896 z m 142 778 b 276 911 142 849 201 911 b 411 778 350 911 411 849 b 276 642 411 701 350 642 b 142 778 201 642 142 701 z "},"º":{"ha":465,"x_min":0,"x_max":0,"o":"m 51 757 b 233 524 51 629 107 524 b 414 757 360 524 414 629 b 233 990 414 885 360 990 b 51 757 107 990 51 885 z m 124 757 b 233 922 124 853 156 922 b 342 757 311 922 342 853 b 233 592 342 661 311 592 b 124 757 156 592 124 661 z "},"½":{"ha":944,"x_min":0,"x_max":0,"o":"m 731 950 b 714 972 739 965 731 972 l 678 972 b 650 953 663 972 656 967 l 172 22 b 190 0 165 7 172 0 l 226 0 b 254 19 240 0 247 6 z m 65 910 b 58 896 60 907 58 903 l 58 860 b 71 850 58 850 63 849 l 163 886 l 163 556 b 176 542 163 544 167 542 l 219 542 b 232 556 229 542 232 544 l 232 958 b 219 972 232 968 229 972 l 189 972 b 161 963 181 972 171 968 z m 707 65 l 872 65 b 886 53 883 65 886 63 l 886 13 b 872 0 886 3 883 0 l 596 0 b 592 4 593 0 592 1 l 592 10 b 597 24 592 14 592 17 l 778 260 b 736 386 835 336 790 386 b 636 344 704 386 668 378 b 617 344 628 336 622 338 l 590 372 b 590 390 585 378 583 383 b 736 449 631 426 675 449 b 840 249 865 449 903 336 z "},"ℓ":{"ha":660,"x_min":0,"x_max":0,"o":"m 157 319 l 157 290 b 433 -15 157 111 250 -15 b 571 21 451 -15 515 -17 b 581 47 582 28 583 33 l 574 63 b 549 72 571 81 564 82 b 443 44 525 56 464 44 b 221 310 299 44 221 136 l 221 342 b 550 590 378 401 493 475 b 392 988 639 793 581 988 b 157 682 190 988 157 850 l 157 381 b 58 351 144 376 72 356 b 46 325 47 347 44 340 l 50 308 b 76 296 53 293 58 289 z m 496 618 b 221 403 457 532 347 451 l 221 682 b 392 929 221 863 274 929 b 496 618 538 929 558 758 z "},"¾":{"ha":964,"x_min":0,"x_max":0,"o":"m 764 950 b 746 972 771 965 764 972 l 711 972 b 682 953 696 972 689 967 l 206 22 b 222 0 197 7 206 0 l 258 0 b 286 19 274 0 281 6 z m 210 531 b 371 660 283 531 371 567 b 296 760 371 715 333 749 l 296 761 b 371 861 333 774 371 807 b 210 992 371 956 283 992 b 64 931 149 992 104 971 b 64 913 57 924 58 918 l 88 886 b 107 886 94 881 99 878 b 210 933 131 910 156 933 b 310 854 283 933 310 897 b 210 788 310 818 269 788 l 169 788 b 156 774 160 788 156 785 l 156 747 b 169 735 156 738 160 735 l 210 735 b 310 667 269 735 310 704 b 210 589 310 625 283 589 b 107 635 156 589 131 611 b 88 635 99 643 94 642 l 64 610 b 64 592 58 604 57 599 b 210 531 104 551 149 531 z m 760 431 b 743 422 750 431 747 426 l 571 176 b 560 150 563 167 560 160 l 560 128 b 574 114 560 117 564 114 l 761 114 l 761 14 b 774 0 761 3 764 0 l 810 0 b 822 14 818 0 822 3 l 822 114 l 888 114 b 900 128 897 114 900 117 l 900 157 b 888 171 900 167 897 171 l 822 171 l 822 417 b 810 431 822 426 818 431 z m 761 350 l 761 171 l 632 171 z "},"≈":{"ha":708,"x_min":0,"x_max":0,"o":"m 340 518 b 468 460 376 485 415 460 b 635 565 554 460 597 514 b 635 599 646 579 647 589 l 606 626 b 574 622 592 638 585 638 b 464 540 543 568 511 540 b 367 592 428 540 407 554 b 235 653 329 625 288 653 b 68 546 150 653 107 599 b 69 513 58 533 57 524 l 97 485 b 131 490 113 474 119 478 b 239 572 161 544 192 572 b 340 518 276 572 301 553 z m 344 260 b 474 201 382 226 421 201 b 640 307 558 201 601 256 b 639 340 650 321 651 331 l 611 368 b 578 364 596 379 590 379 b 469 282 547 310 517 282 b 371 333 432 282 413 296 b 240 394 333 367 293 394 b 74 288 154 394 111 340 b 74 254 63 275 61 265 l 103 226 b 135 232 117 215 124 219 b 244 314 167 286 197 314 b 344 260 281 314 306 294 z "},"~":{"ha":753,"x_min":0,"x_max":0,"o":"m 365 518 b 493 460 401 485 440 460 b 660 565 579 460 622 514 b 660 599 671 579 672 589 l 631 626 b 599 622 617 638 610 638 b 489 540 568 568 536 540 b 392 592 453 540 432 554 b 260 653 354 625 313 653 b 93 546 175 653 132 599 b 94 513 83 533 82 524 l 122 485 b 156 490 138 474 144 478 b 264 572 186 544 217 572 b 365 518 301 572 326 553 z "},"·":{"ha":326,"x_min":0,"x_max":0,"o":"m 74 476 b 163 386 74 426 113 386 b 253 476 213 386 253 426 b 163 565 253 525 213 565 b 74 476 113 565 74 525 z "},"í":{"ha":403,"x_min":0,"x_max":0,"o":"m 149 22 b 171 0 149 6 154 0 l 231 0 b 253 22 247 0 253 6 l 253 685 b 231 707 253 701 249 707 l 171 707 b 149 685 154 707 149 701 z m 369 933 b 374 961 381 943 381 950 l 347 1003 b 319 1008 339 1015 329 1019 l 146 825 b 150 801 131 810 136 801 l 206 801 b 242 815 219 801 232 807 z "},"ì":{"ha":408,"x_min":0,"x_max":0,"o":"m 153 22 b 175 0 153 6 158 0 l 235 0 b 257 22 251 0 257 6 l 257 685 b 235 707 257 701 253 707 l 175 707 b 153 685 158 707 153 701 z m 163 815 b 197 801 172 807 183 801 l 254 801 b 257 825 268 801 272 810 l 85 1008 b 56 1003 75 1019 64 1015 l 29 961 b 35 933 24 950 24 943 z "},"è":{"ha":833,"x_min":0,"x_max":0,"o":"m 718 113 b 718 82 728 100 728 92 b 438 -15 653 18 540 -15 b 67 353 228 -15 67 150 b 431 722 67 556 228 722 b 774 339 647 722 774 547 b 753 317 774 322 771 317 l 174 317 b 442 76 183 188 301 76 b 660 146 510 76 593 97 b 692 144 675 154 681 157 z m 667 389 b 429 635 661 514 571 635 b 176 389 286 635 181 514 z m 407 815 b 442 801 417 807 428 801 l 499 801 b 501 825 513 801 517 810 l 329 1008 b 300 1003 319 1019 308 1015 l 274 961 b 279 933 268 950 268 943 z "},"á":{"ha":779,"x_min":0,"x_max":0,"o":"m 165 608 b 379 631 218 618 290 631 b 576 392 525 631 576 567 b 351 440 506 421 425 440 b 67 215 181 440 67 367 b 314 -15 67 67 181 -15 b 593 117 464 -15 556 65 l 599 22 b 619 0 603 6 608 0 l 660 0 b 681 22 675 0 681 6 l 681 389 b 383 722 681 618 617 722 b 144 697 276 722 161 701 b 128 669 128 692 124 685 l 139 628 b 165 608 143 611 147 604 z m 372 363 b 576 313 451 363 506 342 l 576 197 b 346 67 532 132 442 67 b 171 215 233 67 171 129 b 372 363 171 310 240 363 z m 529 933 b 533 961 540 943 540 950 l 507 1003 b 479 1008 499 1015 489 1019 l 306 825 b 310 801 290 810 296 801 l 365 801 b 401 815 379 801 392 807 z "},"à":{"ha":779,"x_min":0,"x_max":0,"o":"m 165 608 b 379 631 218 618 290 631 b 576 392 525 631 576 567 b 351 440 506 421 425 440 b 67 215 181 440 67 367 b 314 -15 67 67 181 -15 b 593 117 464 -15 556 65 l 599 22 b 619 0 603 6 608 0 l 660 0 b 681 22 675 0 681 6 l 681 389 b 383 722 681 618 617 722 b 144 697 276 722 161 701 b 128 669 128 692 124 685 l 139 628 b 165 608 143 611 147 604 z m 372 363 b 576 313 451 363 506 342 l 576 197 b 346 67 532 132 442 67 b 171 215 233 67 171 129 b 372 363 171 310 240 363 z m 399 815 b 433 801 408 807 419 801 l 490 801 b 493 825 504 801 508 810 l 321 1008 b 292 1003 311 1019 300 1015 l 265 961 b 271 933 260 950 260 943 z "},"Ì":{"ha":425,"x_min":0,"x_max":0,"o":"m 150 22 b 172 0 150 6 156 0 l 239 0 b 260 22 256 0 260 6 l 260 950 b 239 972 260 967 256 972 l 172 972 b 150 950 156 972 150 967 z m 175 1081 b 210 1067 185 1072 196 1067 l 267 1067 b 269 1090 281 1067 285 1075 l 97 1274 b 68 1268 88 1285 76 1281 l 42 1226 b 47 1199 36 1215 36 1208 z "},"È":{"ha":881,"x_min":0,"x_max":0,"o":"m 767 0 b 788 22 783 0 788 6 l 788 74 b 767 96 788 90 783 96 l 236 96 l 236 443 l 742 443 b 764 465 758 443 764 449 l 764 517 b 742 539 764 533 758 539 l 236 539 l 236 876 l 767 876 b 788 899 782 876 788 882 l 788 950 b 767 972 788 967 782 972 l 149 972 b 126 950 132 972 126 967 l 126 22 b 149 0 126 6 132 0 z m 442 1081 b 476 1067 451 1072 463 1067 l 533 1067 b 536 1090 547 1067 551 1075 l 364 1274 b 335 1268 354 1285 343 1281 l 308 1226 b 314 1199 303 1215 303 1208 z "},"É":{"ha":881,"x_min":0,"x_max":0,"o":"m 767 0 b 788 22 783 0 788 6 l 788 74 b 767 96 788 90 783 96 l 236 96 l 236 443 l 742 443 b 764 465 758 443 764 449 l 764 517 b 742 539 764 533 758 539 l 236 539 l 236 876 l 767 876 b 788 899 782 876 788 882 l 788 950 b 767 972 788 967 782 972 l 149 972 b 126 950 132 972 126 967 l 126 22 b 149 0 126 6 132 0 z m 581 1199 b 585 1226 592 1208 592 1215 l 558 1268 b 531 1274 550 1281 540 1285 l 357 1090 b 361 1067 342 1075 347 1067 l 417 1067 b 453 1081 431 1067 443 1072 z "},"Ê":{"ha":858,"x_min":0,"x_max":0,"o":"m 439 1311 b 408 1289 426 1311 418 1301 l 264 1083 b 274 1061 256 1068 258 1061 l 315 1061 b 350 1083 332 1061 342 1068 l 458 1246 l 565 1083 b 600 1061 575 1068 585 1061 l 643 1061 b 651 1083 657 1061 661 1068 l 507 1289 b 478 1311 497 1301 490 1311 z m 764 0 b 785 22 781 0 785 6 l 785 74 b 764 96 785 90 781 96 l 233 96 l 233 443 l 739 443 b 761 465 756 443 761 449 l 761 517 b 739 539 761 533 756 539 l 233 539 l 233 876 l 764 876 b 785 899 779 876 785 882 l 785 950 b 764 972 785 967 779 972 l 146 972 b 124 950 129 972 124 967 l 124 22 b 146 0 124 6 129 0 z "},"Á":{"ha":989,"x_min":0,"x_max":0,"o":"m 497 806 l 701 353 l 292 353 l 496 806 z m 515 976 b 499 996 510 988 506 996 l 494 996 b 476 976 486 996 483 988 l 24 22 b 36 0 18 10 24 0 l 117 0 b 146 22 132 0 138 6 l 254 258 l 739 258 l 847 22 b 875 0 856 6 861 0 l 956 0 b 969 22 969 0 975 10 z m 665 1199 b 669 1226 676 1208 676 1215 l 643 1268 b 615 1274 635 1281 625 1285 l 442 1090 b 446 1067 426 1075 432 1067 l 501 1067 b 538 1081 515 1067 528 1072 z "},"Í":{"ha":415,"x_min":0,"x_max":0,"o":"m 153 22 b 175 0 153 6 158 0 l 242 0 b 263 22 258 0 263 6 l 263 950 b 242 972 263 967 258 972 l 175 972 b 153 950 158 972 153 967 z m 360 1199 b 364 1226 371 1208 371 1215 l 338 1268 b 310 1274 329 1281 319 1285 l 136 1090 b 140 1067 121 1075 126 1067 l 196 1067 b 232 1081 210 1067 222 1072 z "},"Ò":{"ha":1133,"x_min":0,"x_max":0,"o":"m 69 486 b 567 -18 69 210 293 -18 b 1064 486 840 -18 1064 210 b 567 990 1064 763 840 990 b 69 486 293 990 69 763 z m 181 486 b 567 893 181 696 350 893 b 953 486 786 893 953 696 b 567 79 953 278 786 79 b 181 486 350 79 181 278 z m 546 1081 b 581 1067 556 1072 567 1067 l 638 1067 b 640 1090 651 1067 656 1075 l 468 1274 b 439 1268 458 1285 447 1281 l 413 1226 b 418 1199 407 1215 407 1208 z "},"Ó":{"ha":1133,"x_min":0,"x_max":0,"o":"m 69 486 b 567 -18 69 210 293 -18 b 1064 486 840 -18 1064 210 b 567 990 1064 763 840 990 b 69 486 293 990 69 763 z m 181 486 b 567 893 181 696 350 893 b 953 486 786 893 953 696 b 567 79 953 278 786 79 b 181 486 350 79 181 278 z m 722 1199 b 726 1226 733 1208 733 1215 l 700 1268 b 672 1274 692 1281 682 1285 l 499 1090 b 503 1067 483 1075 489 1067 l 558 1067 b 594 1081 572 1067 585 1072 z "},"Ù":{"ha":994,"x_min":0,"x_max":0,"o":"m 497 -18 b 890 400 724 -18 890 124 l 890 950 b 869 972 890 967 886 972 l 803 972 b 781 950 786 972 781 967 l 781 407 b 497 79 781 176 664 79 b 214 407 331 79 214 176 l 214 950 b 192 972 214 967 208 972 l 126 972 b 104 950 110 972 104 968 l 104 400 b 497 -18 104 124 271 -18 z m 472 1081 b 507 1067 482 1072 493 1067 l 564 1067 b 567 1090 578 1067 582 1075 l 394 1274 b 365 1268 385 1285 374 1281 l 339 1226 b 344 1199 333 1215 333 1208 z "},"Ú":{"ha":994,"x_min":0,"x_max":0,"o":"m 497 -18 b 890 400 724 -18 890 124 l 890 950 b 869 972 890 967 886 972 l 803 972 b 781 950 786 972 781 967 l 781 407 b 497 79 781 176 664 79 b 214 407 331 79 214 176 l 214 950 b 192 972 214 967 208 972 l 126 972 b 104 950 110 972 104 968 l 104 400 b 497 -18 104 124 271 -18 z m 621 1199 b 625 1226 632 1208 632 1215 l 599 1268 b 571 1274 590 1281 581 1285 l 397 1090 b 401 1067 382 1075 388 1067 l 457 1067 b 493 1081 471 1067 483 1072 z "},"Ý":{"ha":868,"x_min":0,"x_max":0,"o":"m 385 381 l 385 22 b 407 0 385 6 390 0 l 469 0 b 492 22 486 0 492 6 l 492 381 l 854 950 b 844 972 863 965 861 972 l 768 972 b 738 950 754 972 749 968 l 439 483 l 139 950 b 110 972 131 967 124 972 l 31 972 b 21 950 15 972 11 967 z m 565 1199 b 569 1226 576 1208 576 1215 l 543 1268 b 515 1274 535 1281 525 1285 l 342 1090 b 346 1067 326 1075 332 1067 l 401 1067 b 438 1081 415 1067 428 1072 z "},"é":{"ha":833,"x_min":0,"x_max":0,"o":"m 692 144 b 660 146 681 157 675 154 b 442 76 593 97 510 76 b 174 317 301 76 183 188 l 753 317 b 774 339 771 317 774 322 b 431 722 774 547 647 722 b 67 353 228 722 67 556 b 438 -15 67 150 228 -15 b 718 82 540 -15 653 18 b 718 113 728 92 728 100 z m 176 389 b 429 635 181 514 286 635 b 667 389 571 635 661 514 z m 578 933 b 582 961 589 943 589 950 l 556 1003 b 528 1008 547 1015 538 1019 l 354 825 b 358 801 339 810 344 801 l 414 801 b 450 815 428 801 440 807 z "},"ò":{"ha":864,"x_min":0,"x_max":0,"o":"m 67 353 b 432 -15 67 150 229 -15 b 797 353 635 -15 797 150 b 432 722 797 556 635 722 b 67 353 229 722 67 556 z m 432 78 b 171 353 288 78 171 200 b 432 628 171 506 288 628 b 694 353 578 628 694 506 b 432 78 694 200 578 78 z m 414 815 b 449 801 424 807 435 801 l 506 801 b 508 825 519 801 524 810 l 336 1008 b 307 1003 326 1019 315 1015 l 281 961 b 286 933 275 950 275 943 z "},"ó":{"ha":864,"x_min":0,"x_max":0,"o":"m 67 353 b 432 -15 67 150 229 -15 b 797 353 635 -15 797 150 b 432 722 797 556 635 722 b 67 353 229 722 67 556 z m 432 78 b 171 353 288 78 171 200 b 432 628 171 506 288 628 b 694 353 578 628 694 506 b 432 78 694 200 578 78 z m 574 933 b 578 961 585 943 585 950 l 551 1003 b 524 1008 543 1015 533 1019 l 350 825 b 354 801 335 810 340 801 l 410 801 b 446 815 424 801 436 807 z "},"ù":{"ha":840,"x_min":0,"x_max":0,"o":"m 613 147 b 375 -15 583 92 511 -15 b 100 297 226 -15 100 75 l 100 685 b 121 707 100 701 106 707 l 183 707 b 204 685 199 707 204 701 l 204 325 b 400 79 204 160 288 79 b 599 335 521 79 599 196 l 599 685 b 619 707 599 701 604 707 l 682 707 b 703 685 697 707 703 701 l 703 340 l 703 22 b 682 0 703 6 697 0 l 647 0 b 624 22 636 0 631 6 z m 372 815 b 407 801 382 807 393 801 l 464 801 b 467 825 478 801 482 810 l 294 1008 b 265 1003 285 1019 274 1015 l 239 961 b 244 933 233 950 233 943 z "},"ú":{"ha":840,"x_min":0,"x_max":0,"o":"m 624 22 b 647 0 631 6 636 0 l 682 0 b 703 22 697 0 703 6 l 703 340 l 703 685 b 682 707 703 701 697 707 l 619 707 b 599 685 604 707 599 701 l 599 335 b 400 79 599 196 521 79 b 204 325 288 79 204 160 l 204 685 b 183 707 204 701 199 707 l 121 707 b 100 685 106 707 100 701 l 100 297 b 375 -15 100 75 226 -15 b 613 147 511 -15 583 92 z m 542 933 b 546 961 553 943 553 950 l 519 1003 b 492 1008 511 1015 501 1019 l 318 825 b 322 801 303 810 308 801 l 378 801 b 414 815 392 801 404 807 z "},"ý":{"ha":717,"x_min":0,"x_max":0,"o":"m 360 154 l 358 154 l 124 685 b 96 707 115 703 110 707 l 24 707 b 13 685 8 707 6 701 l 303 36 l 171 -261 b 182 -283 163 -278 167 -283 l 253 -283 b 282 -261 267 -283 274 -279 l 703 685 b 692 707 711 701 707 707 l 621 707 b 592 685 607 707 600 703 z m 489 933 b 493 961 500 943 500 950 l 467 1003 b 439 1008 458 1015 449 1019 l 265 825 b 269 801 250 810 256 801 l 325 801 b 361 815 339 801 351 807 z "},"Ć":{"ha":1007,"x_min":0,"x_max":0,"o":"m 561 79 b 175 486 344 79 175 276 b 561 893 175 696 344 893 b 851 771 690 893 790 836 b 883 772 863 760 872 760 l 924 817 b 925 847 935 829 936 836 b 561 990 836 936 696 990 b 64 486 288 990 64 763 b 561 -18 64 210 288 -18 b 925 125 696 -18 836 36 b 926 158 938 138 938 144 l 885 203 b 854 204 875 213 867 215 b 561 79 789 136 690 79 z m 664 1199 b 668 1226 675 1208 675 1215 l 642 1268 b 614 1274 633 1281 624 1285 l 440 1090 b 444 1067 425 1075 431 1067 l 500 1067 b 536 1081 514 1067 526 1072 z "},"ć":{"ha":739,"x_min":0,"x_max":0,"o":"m 429 79 b 167 353 283 79 167 199 b 429 628 167 506 283 628 b 622 550 506 628 575 597 b 651 554 633 539 642 542 l 685 589 b 685 618 696 601 696 608 b 428 722 614 689 524 722 b 64 353 225 722 64 556 b 428 -15 64 150 225 -15 b 685 89 524 -15 614 18 b 685 118 696 99 696 106 l 651 153 b 622 157 642 165 633 168 b 429 79 575 110 506 79 z m 568 933 b 572 961 579 943 579 950 l 546 1003 b 518 1008 538 1015 528 1019 l 344 825 b 349 801 329 810 335 801 l 404 801 b 440 815 418 801 431 807 z "},"Ĺ":{"ha":792,"x_min":0,"x_max":0,"o":"m 247 96 l 247 950 b 225 972 247 967 242 972 l 160 972 b 138 950 143 972 138 967 l 138 22 b 160 0 138 6 143 0 l 725 0 b 746 22 742 0 746 6 l 746 74 b 725 96 746 90 742 96 z m 403 1199 b 407 1226 414 1208 414 1215 l 381 1268 b 353 1274 372 1281 363 1285 l 179 1090 b 183 1067 164 1075 169 1067 l 239 1067 b 275 1081 253 1067 265 1072 z "},"ĺ":{"ha":392,"x_min":0,"x_max":0,"o":"m 153 22 b 175 0 153 6 158 0 l 236 0 b 257 22 253 0 257 6 l 257 1003 b 236 1025 257 1019 253 1025 l 175 1025 b 153 1003 158 1025 153 1019 z m 372 1199 b 376 1226 383 1208 383 1215 l 350 1268 b 322 1274 342 1281 332 1285 l 149 1090 b 153 1067 133 1075 139 1067 l 208 1067 b 244 1081 222 1067 235 1072 z "},"Ń":{"ha":1078,"x_min":0,"x_max":0,"o":"m 251 769 l 897 -7 b 918 -18 906 -15 911 -18 l 925 -18 b 936 -7 933 -18 936 -17 l 936 950 b 915 972 936 968 932 972 l 849 972 b 826 950 832 972 826 968 l 826 208 l 179 981 b 161 990 174 988 169 990 l 154 990 b 142 979 144 990 142 989 l 142 22 b 164 0 142 6 147 0 l 229 0 b 251 22 246 0 251 6 z m 675 1199 b 679 1226 686 1208 686 1215 l 653 1268 b 625 1274 644 1281 635 1285 l 451 1090 b 456 1067 436 1075 442 1067 l 511 1067 b 547 1081 525 1067 538 1072 z "},"ń":{"ha":840,"x_min":0,"x_max":0,"o":"m 217 685 b 193 707 210 701 204 707 l 158 707 b 138 685 143 707 138 701 l 138 367 l 138 22 b 158 0 138 6 143 0 l 221 0 b 242 22 236 0 242 6 l 242 372 b 440 628 242 511 319 628 b 636 382 553 628 636 547 l 636 22 b 657 0 636 6 642 0 l 719 0 b 740 22 735 0 740 6 l 740 410 b 465 722 740 632 614 722 b 228 560 329 722 257 615 z m 549 933 b 553 961 560 943 560 950 l 526 1003 b 499 1008 518 1015 508 1019 l 325 825 b 329 801 310 810 315 801 l 385 801 b 421 815 399 801 411 807 z "},"Ŕ":{"ha":928,"x_min":0,"x_max":0,"o":"m 828 681 b 490 972 828 906 649 972 l 160 972 b 138 950 143 972 138 967 l 138 22 b 160 0 138 3 143 0 l 225 0 b 247 22 242 0 247 4 l 247 381 l 496 381 l 751 22 b 789 0 761 8 772 0 l 854 0 b 871 26 871 0 882 8 l 610 393 b 828 681 739 428 828 515 z m 247 475 l 247 878 l 483 878 b 721 681 626 878 721 819 b 483 475 721 554 649 475 z m 583 1199 b 588 1226 594 1208 594 1215 l 561 1268 b 533 1274 553 1281 543 1285 l 360 1090 b 364 1067 344 1075 350 1067 l 419 1067 b 456 1081 433 1067 446 1072 z "},"ŕ":{"ha":575,"x_min":0,"x_max":0,"o":"m 508 619 b 533 640 525 619 529 624 l 542 703 b 522 722 544 717 542 722 b 233 546 325 722 261 604 l 217 685 b 193 707 210 701 204 707 l 158 707 b 138 685 143 707 138 701 l 138 22 b 158 0 138 6 143 0 l 221 0 b 242 22 236 0 242 6 l 242 364 b 508 619 242 493 328 619 z m 492 933 b 496 961 503 943 503 950 l 469 1003 b 442 1008 461 1015 451 1019 l 268 825 b 272 801 253 810 258 801 l 328 801 b 364 815 342 801 354 807 z "},"Ś":{"ha":888,"x_min":0,"x_max":0,"o":"m 456 890 b 733 799 553 890 644 858 b 764 808 747 788 756 793 l 790 851 b 783 882 796 865 799 874 b 442 988 678 946 585 988 b 92 697 172 988 92 804 b 419 446 92 513 268 467 b 706 268 601 421 706 383 b 444 82 706 124 572 82 b 136 175 340 82 225 114 b 104 167 119 185 114 182 l 78 122 b 83 92 69 107 69 100 b 458 -15 189 18 311 -15 b 813 272 697 -15 813 124 b 481 538 813 458 660 514 b 199 700 328 557 199 586 b 456 890 199 772 244 890 z m 590 1199 b 594 1226 601 1208 601 1215 l 568 1268 b 540 1274 560 1281 550 1285 l 367 1090 b 371 1067 351 1075 357 1067 l 426 1067 b 463 1081 440 1067 453 1072 z "},"ś":{"ha":706,"x_min":0,"x_max":0,"o":"m 354 69 b 119 147 263 69 181 104 b 89 139 103 160 96 153 l 69 104 b 74 74 61 89 61 82 b 360 -15 176 6 286 -15 b 644 204 539 -15 644 76 b 374 403 644 339 511 383 b 178 511 247 421 178 435 b 351 638 178 588 235 638 b 569 571 442 638 494 617 b 600 581 586 560 593 567 l 618 614 b 611 644 625 626 628 635 b 346 722 514 704 418 722 b 79 506 182 722 79 638 b 349 310 79 360 211 328 b 544 199 475 292 544 260 b 354 69 544 128 489 69 z m 503 933 b 507 961 514 943 514 950 l 481 1003 b 453 1008 472 1015 463 1019 l 279 825 b 283 801 264 810 269 801 l 339 801 b 375 815 353 801 365 807 z "},"Ź":{"ha":863,"x_min":0,"x_max":0,"o":"m 783 0 b 806 22 800 0 806 6 l 806 74 b 783 96 806 92 799 96 l 213 96 l 815 931 b 824 951 822 942 824 943 l 824 961 b 811 972 824 969 821 972 l 107 972 b 85 950 90 972 85 967 l 85 899 b 107 876 85 882 90 876 l 656 876 l 51 40 b 43 21 46 32 43 31 l 43 11 b 54 0 43 1 47 0 z m 589 1199 b 593 1226 600 1208 600 1215 l 567 1268 b 539 1274 558 1281 549 1285 l 365 1090 b 369 1067 350 1075 356 1067 l 425 1067 b 461 1081 439 1067 451 1072 z "},"ź":{"ha":678,"x_min":0,"x_max":0,"o":"m 610 0 b 632 22 626 0 632 6 l 632 71 b 610 93 632 89 626 93 l 206 93 l 619 665 b 628 688 625 675 628 679 l 628 696 b 615 707 628 704 625 707 l 103 707 b 81 685 86 707 81 701 l 81 636 b 103 614 81 619 86 614 l 468 614 l 53 40 b 44 19 47 32 44 29 l 44 11 b 56 0 44 1 49 0 z m 500 933 b 504 961 511 943 511 950 l 478 1003 b 450 1008 469 1015 460 1019 l 276 825 b 281 801 261 810 267 801 l 336 801 b 372 815 350 801 363 807 z "},"Ẁ":{"ha":1335,"x_min":0,"x_max":0,"o":"m 410 210 l 643 968 b 663 990 649 983 653 990 l 676 990 b 696 968 686 990 690 983 l 929 210 l 1192 950 b 1219 972 1197 967 1204 972 l 1304 972 b 1314 950 1318 972 1321 967 l 954 -4 b 939 -24 949 -17 946 -24 l 929 -24 b 914 -4 924 -24 919 -17 l 669 783 l 425 -4 b 410 -24 419 -17 415 -24 l 400 -24 b 385 -4 394 -24 390 -18 l 25 950 b 35 972 18 967 21 972 l 119 972 b 147 950 135 972 142 967 z m 610 1081 b 644 1067 619 1072 631 1067 l 701 1067 b 704 1090 715 1067 719 1075 l 532 1274 b 503 1268 522 1285 511 1281 l 476 1226 b 482 1199 471 1215 471 1208 z "},"ẁ":{"ha":1018,"x_min":0,"x_max":0,"o":"m 282 200 l 485 708 b 504 728 490 718 493 728 l 514 728 b 533 708 524 728 528 718 l 736 200 l 883 685 b 913 707 889 703 897 707 l 988 707 b 999 685 1004 707 1006 701 l 783 6 b 765 -15 778 -8 771 -15 l 756 -15 b 735 6 747 -15 742 -8 l 510 563 l 283 6 b 263 -15 276 -8 271 -15 l 254 -15 b 235 6 247 -15 240 -8 l 19 685 b 31 707 13 701 15 707 l 106 707 b 133 688 119 707 128 703 z m 451 815 b 486 801 461 807 472 801 l 543 801 b 546 825 557 801 561 810 l 374 1008 b 344 1003 364 1019 353 1015 l 318 961 b 324 933 313 950 313 943 z "},"Ẃ":{"ha":1335,"x_min":0,"x_max":0,"o":"m 147 950 b 119 972 142 967 135 972 l 35 972 b 25 950 21 972 18 967 l 385 -4 b 400 -24 390 -18 394 -24 l 410 -24 b 425 -4 415 -24 419 -17 l 669 783 l 914 -4 b 929 -24 919 -17 924 -24 l 939 -24 b 954 -4 946 -24 949 -17 l 1314 950 b 1304 972 1321 967 1318 972 l 1219 972 b 1192 950 1204 972 1197 967 l 929 210 l 696 968 b 676 990 690 983 686 990 l 663 990 b 643 968 653 990 649 983 l 410 210 z m 829 1199 b 833 1226 840 1208 840 1215 l 807 1268 b 779 1274 799 1281 789 1285 l 606 1090 b 610 1067 590 1075 596 1067 l 665 1067 b 701 1081 679 1067 692 1072 z "},"ẃ":{"ha":1018,"x_min":0,"x_max":0,"o":"m 133 688 b 106 707 128 703 119 707 l 31 707 b 19 685 15 707 13 701 l 235 6 b 254 -15 240 -8 247 -15 l 263 -15 b 283 6 271 -15 276 -8 l 510 563 l 735 6 b 756 -15 742 -8 747 -15 l 765 -15 b 783 6 771 -15 778 -8 l 999 685 b 988 707 1006 701 1004 707 l 913 707 b 883 685 897 707 889 703 l 736 200 l 533 708 b 514 728 528 718 524 728 l 504 728 b 485 708 493 728 490 718 l 282 200 z m 664 933 b 668 961 675 943 675 950 l 642 1003 b 614 1008 633 1015 624 1019 l 440 825 b 444 801 425 810 431 801 l 500 801 b 536 815 514 801 526 807 z "},"Ļ":{"ha":792,"x_min":0,"x_max":0,"o":"m 461 -315 b 347 -482 454 -375 419 -436 b 343 -499 339 -487 339 -492 l 361 -528 b 378 -529 365 -533 371 -533 b 538 -257 474 -476 538 -389 b 453 -153 538 -192 500 -153 b 372 -235 406 -153 372 -190 b 451 -315 372 -279 407 -315 z m 247 96 l 247 950 b 225 972 247 967 242 972 l 160 972 b 138 950 143 972 138 967 l 138 22 b 160 0 138 6 143 0 l 725 0 b 746 22 742 0 746 6 l 746 74 b 725 96 746 90 742 96 z "},"ˆ":{"ha":525,"x_min":0,"x_max":0,"o":"m 243 1046 b 213 1024 231 1046 222 1036 l 68 818 b 78 796 60 803 63 796 l 119 796 b 154 818 136 796 146 803 l 263 981 l 369 818 b 404 796 379 803 389 796 l 447 796 b 456 818 461 796 465 803 l 311 1024 b 282 1046 301 1036 294 1046 z "},"ˇ":{"ha":525,"x_min":0,"x_max":0,"o":"m 282 796 b 311 818 294 796 301 806 l 456 1024 b 447 1046 465 1039 461 1046 l 404 1046 b 369 1024 389 1046 379 1039 l 263 861 l 154 1024 b 119 1046 146 1039 136 1046 l 78 1046 b 68 1024 63 1046 60 1039 l 213 818 b 243 796 222 806 231 796 z "},"Â":{"ha":989,"x_min":0,"x_max":0,"o":"m 497 806 l 701 353 l 292 353 l 496 806 z m 515 976 b 499 996 510 988 506 996 l 494 996 b 476 976 486 996 483 988 l 24 22 b 36 0 18 10 24 0 l 117 0 b 146 22 132 0 138 6 l 254 258 l 739 258 l 847 22 b 875 0 856 6 861 0 l 956 0 b 969 22 969 0 975 10 z m 478 1311 b 447 1289 465 1311 457 1301 l 303 1083 b 313 1061 294 1068 297 1061 l 354 1061 b 389 1083 371 1061 381 1068 l 497 1246 l 604 1083 b 639 1061 614 1068 624 1061 l 682 1061 b 690 1083 696 1061 700 1068 l 546 1289 b 517 1311 536 1301 529 1311 z "},"Î":{"ha":417,"x_min":0,"x_max":0,"o":"m 153 22 b 175 0 153 6 158 0 l 242 0 b 263 22 258 0 263 6 l 263 950 b 242 972 263 967 258 972 l 175 972 b 153 950 158 972 153 967 z m 189 1311 b 158 1289 176 1311 168 1301 l 14 1083 b 24 1061 6 1068 8 1061 l 65 1061 b 100 1083 82 1061 92 1068 l 208 1246 l 315 1083 b 350 1061 325 1068 335 1061 l 393 1061 b 401 1083 407 1061 411 1068 l 257 1289 b 228 1311 247 1301 240 1311 z "},"ô":{"ha":864,"x_min":0,"x_max":0,"o":"m 67 353 b 432 -15 67 150 229 -15 b 797 353 635 -15 797 150 b 432 722 797 556 635 722 b 67 353 229 722 67 556 z m 432 78 b 171 353 288 78 171 200 b 432 628 171 506 288 628 b 694 353 578 628 694 506 b 432 78 694 200 578 78 z m 413 1046 b 382 1024 400 1046 392 1036 l 238 818 b 247 796 229 803 232 796 l 289 796 b 324 818 306 796 315 803 l 432 981 l 539 818 b 574 796 549 803 558 796 l 617 796 b 625 818 631 796 635 803 l 481 1024 b 451 1046 471 1036 464 1046 z "},"î":{"ha":406,"x_min":0,"x_max":0,"o":"m 150 22 b 172 0 150 6 156 0 l 232 0 b 254 22 249 0 254 6 l 254 685 b 232 707 254 701 250 707 l 172 707 b 150 685 156 707 150 701 z m 183 1046 b 153 1024 171 1046 163 1036 l 8 818 b 18 796 0 803 3 796 l 60 796 b 94 818 76 796 86 803 l 203 981 l 310 818 b 344 796 319 803 329 796 l 388 796 b 396 818 401 796 406 803 l 251 1024 b 222 1046 242 1036 235 1046 z "},"ê":{"ha":833,"x_min":0,"x_max":0,"o":"m 718 113 b 718 82 728 100 728 92 b 438 -15 653 18 540 -15 b 67 353 228 -15 67 150 b 431 722 67 556 228 722 b 774 339 647 722 774 547 b 753 317 774 322 771 317 l 174 317 b 442 76 183 188 301 76 b 660 146 510 76 593 97 b 692 144 675 154 681 157 z m 667 389 b 429 635 661 514 571 635 b 176 389 286 635 181 514 z m 417 1046 b 386 1024 404 1046 396 1036 l 242 818 b 251 796 233 803 236 796 l 293 796 b 328 818 310 796 319 803 l 436 981 l 543 818 b 578 796 553 803 563 796 l 621 796 b 629 818 635 796 639 803 l 485 1024 b 456 1046 475 1036 468 1046 z "},"â":{"ha":779,"x_min":0,"x_max":0,"o":"m 165 608 b 379 631 218 618 290 631 b 576 392 525 631 576 567 b 351 440 506 421 425 440 b 67 215 181 440 67 367 b 314 -15 67 67 181 -15 b 593 117 464 -15 556 65 l 599 22 b 619 0 603 6 608 0 l 660 0 b 681 22 675 0 681 6 l 681 389 b 383 722 681 618 617 722 b 144 697 276 722 161 701 b 128 669 128 692 124 685 l 139 628 b 165 608 143 611 147 604 z m 372 363 b 576 313 451 363 506 342 l 576 197 b 346 67 532 132 442 67 b 171 215 233 67 171 129 b 372 363 171 310 240 363 z m 369 1046 b 339 1024 357 1046 349 1036 l 194 818 b 204 796 186 803 189 796 l 246 796 b 281 818 263 796 272 803 l 389 981 l 496 818 b 531 796 506 803 515 796 l 574 796 b 582 818 588 796 592 803 l 438 1024 b 408 1046 428 1036 421 1046 z "},"Û":{"ha":994,"x_min":0,"x_max":0,"o":"m 497 -18 b 890 400 724 -18 890 124 l 890 950 b 869 972 890 967 886 972 l 803 972 b 781 950 786 972 781 967 l 781 407 b 497 79 781 176 664 79 b 214 407 331 79 214 176 l 214 950 b 192 972 214 967 208 972 l 126 972 b 104 950 110 972 104 968 l 104 400 b 497 -18 104 124 271 -18 z m 478 1311 b 447 1289 465 1311 457 1301 l 303 1083 b 313 1061 294 1068 297 1061 l 354 1061 b 389 1083 371 1061 381 1068 l 497 1246 l 604 1083 b 639 1061 614 1068 624 1061 l 682 1061 b 690 1083 696 1061 700 1068 l 546 1289 b 517 1311 536 1301 529 1311 z "},"Ô":{"ha":1133,"x_min":0,"x_max":0,"o":"m 69 486 b 567 -18 69 210 293 -18 b 1064 486 840 -18 1064 210 b 567 990 1064 763 840 990 b 69 486 293 990 69 763 z m 181 486 b 567 893 181 696 350 893 b 953 486 786 893 953 696 b 567 79 953 278 786 79 b 181 486 350 79 181 278 z m 547 1311 b 517 1289 535 1311 526 1301 l 372 1083 b 382 1061 364 1068 367 1061 l 424 1061 b 458 1083 440 1061 450 1068 l 567 1246 l 674 1083 b 708 1061 683 1068 693 1061 l 751 1061 b 760 1083 765 1061 769 1068 l 615 1289 b 586 1311 606 1301 599 1311 z "},"û":{"ha":840,"x_min":0,"x_max":0,"o":"m 613 147 b 375 -15 583 92 511 -15 b 100 297 226 -15 100 75 l 100 685 b 121 707 100 701 106 707 l 183 707 b 204 685 199 707 204 701 l 204 325 b 400 79 204 160 288 79 b 599 335 521 79 599 196 l 599 685 b 619 707 599 701 604 707 l 682 707 b 703 685 697 707 703 701 l 703 340 l 703 22 b 682 0 703 6 697 0 l 647 0 b 624 22 636 0 631 6 z m 386 1046 b 356 1024 374 1046 365 1036 l 211 818 b 221 796 203 803 206 796 l 263 796 b 297 818 279 796 289 803 l 406 981 l 513 818 b 547 796 522 803 532 796 l 590 796 b 599 818 604 796 608 803 l 454 1024 b 425 1046 444 1036 438 1046 z "},"Ĉ":{"ha":1007,"x_min":0,"x_max":0,"o":"m 561 79 b 854 204 690 79 789 136 b 885 203 867 215 875 213 l 926 158 b 925 125 938 144 938 138 b 561 -18 836 36 696 -18 b 64 486 288 -18 64 210 b 561 990 64 763 288 990 b 925 847 696 990 836 936 b 924 817 936 836 935 829 l 883 772 b 851 771 872 760 863 760 b 561 893 790 836 690 893 b 175 486 344 893 175 696 b 561 79 175 276 344 79 z m 539 1311 b 508 1289 526 1311 518 1301 l 364 1083 b 374 1061 356 1068 358 1061 l 415 1061 b 450 1083 432 1061 442 1068 l 558 1246 l 665 1083 b 700 1061 675 1068 685 1061 l 743 1061 b 751 1083 757 1061 761 1068 l 607 1289 b 578 1311 597 1301 590 1311 z "},"ĉ":{"ha":739,"x_min":0,"x_max":0,"o":"m 429 79 b 167 353 283 79 167 199 b 429 628 167 506 283 628 b 622 550 506 628 575 597 b 651 554 633 539 642 542 l 685 589 b 685 618 696 601 696 608 b 428 722 614 689 524 722 b 64 353 225 722 64 556 b 428 -15 64 150 225 -15 b 685 89 524 -15 614 18 b 685 118 696 99 696 106 l 651 153 b 622 157 642 165 633 168 b 429 79 575 110 506 79 z m 396 1046 b 365 1024 383 1046 375 1036 l 221 818 b 231 796 213 803 215 796 l 272 796 b 307 818 289 796 299 803 l 415 981 l 522 818 b 557 796 532 803 542 796 l 600 796 b 608 818 614 796 618 803 l 464 1024 b 435 1046 454 1036 447 1046 z "},"Č":{"ha":1007,"x_min":0,"x_max":0,"o":"m 561 79 b 854 204 690 79 789 136 b 885 203 867 215 875 213 l 926 158 b 925 125 938 144 938 138 b 561 -18 836 36 696 -18 b 64 486 288 -18 64 210 b 561 990 64 763 288 990 b 925 847 696 990 836 936 b 924 817 936 836 935 829 l 883 772 b 851 771 872 760 863 760 b 561 893 790 836 690 893 b 175 486 344 893 175 696 b 561 79 175 276 344 79 z m 568 1061 b 597 1083 581 1061 588 1071 l 742 1289 b 733 1311 751 1304 747 1311 l 690 1311 b 656 1289 675 1311 665 1304 l 549 1126 l 440 1289 b 406 1311 432 1304 422 1311 l 364 1311 b 354 1289 349 1311 346 1304 l 499 1083 b 529 1061 508 1071 517 1061 z "},"č":{"ha":739,"x_min":0,"x_max":0,"o":"m 429 79 b 167 353 283 79 167 199 b 429 628 167 506 283 628 b 622 550 506 628 575 597 b 651 554 633 539 642 542 l 685 589 b 685 618 696 601 696 608 b 428 722 614 689 524 722 b 64 353 225 722 64 556 b 428 -15 64 150 225 -15 b 685 89 524 -15 614 18 b 685 118 696 99 696 106 l 651 153 b 622 157 642 165 633 168 b 429 79 575 110 506 79 z m 433 796 b 463 818 446 796 453 806 l 607 1024 b 599 1046 617 1039 613 1046 l 556 1046 b 521 1024 540 1046 531 1039 l 414 861 l 306 1024 b 271 1046 297 1039 288 1046 l 229 1046 b 219 1024 214 1046 211 1039 l 364 818 b 394 796 374 806 382 796 z "},"Ď":{"ha":1046,"x_min":0,"x_max":0,"o":"m 156 972 b 133 950 139 972 133 967 l 133 22 b 156 0 133 6 140 0 l 496 0 b 979 486 769 0 979 210 b 496 972 979 763 769 972 z m 494 878 b 868 486 721 878 868 696 b 494 94 868 278 721 94 l 243 94 l 243 878 z m 504 1061 b 533 1083 517 1061 524 1071 l 678 1289 b 669 1311 688 1304 683 1311 l 626 1311 b 592 1289 611 1311 601 1304 l 485 1126 l 376 1289 b 342 1311 368 1304 358 1311 l 300 1311 b 290 1289 285 1311 282 1304 l 435 1083 b 465 1061 444 1071 453 1061 z "},"Ě":{"ha":886,"x_min":0,"x_max":0,"o":"m 767 0 b 788 22 783 0 788 6 l 788 74 b 767 96 788 90 783 96 l 236 96 l 236 443 l 742 443 b 764 465 758 443 764 449 l 764 517 b 742 539 764 533 758 539 l 236 539 l 236 876 l 767 876 b 788 899 782 876 788 882 l 788 950 b 767 972 788 967 782 972 l 149 972 b 126 950 132 972 126 967 l 126 22 b 149 0 126 6 132 0 z m 476 1061 b 506 1083 489 1061 496 1071 l 650 1289 b 642 1311 660 1304 656 1311 l 599 1311 b 564 1289 583 1311 574 1304 l 457 1126 l 349 1289 b 314 1311 340 1304 331 1311 l 272 1311 b 263 1289 257 1311 254 1304 l 407 1083 b 438 1061 417 1071 425 1061 z "},"ě":{"ha":833,"x_min":0,"x_max":0,"o":"m 718 113 b 718 82 728 100 728 92 b 438 -15 653 18 540 -15 b 67 353 228 -15 67 150 b 431 722 67 556 228 722 b 774 339 647 722 774 547 b 753 317 774 322 771 317 l 174 317 b 442 76 183 188 301 76 b 660 146 510 76 593 97 b 692 144 675 154 681 157 z m 667 389 b 429 635 661 514 571 635 b 176 389 286 635 181 514 z m 438 796 b 467 818 450 796 457 806 l 611 1024 b 603 1046 621 1039 617 1046 l 560 1046 b 525 1024 544 1046 535 1039 l 418 861 l 310 1024 b 275 1046 301 1039 292 1046 l 233 1046 b 224 1024 218 1046 215 1039 l 368 818 b 399 796 378 806 386 796 z "},"Ľ":{"ha":810,"x_min":0,"x_max":0,"o":"m 688 814 b 572 647 679 754 644 693 b 568 632 565 642 564 638 l 588 601 b 603 600 592 596 597 596 b 763 872 700 653 763 740 b 678 976 763 938 726 976 b 597 894 632 976 597 939 b 676 814 597 850 632 815 z m 247 96 l 247 950 b 225 972 247 967 242 972 l 160 972 b 138 950 143 972 138 967 l 138 22 b 160 0 138 6 143 0 l 725 0 b 746 22 742 0 746 6 l 746 74 b 725 96 746 90 742 96 z "},"Ĵ":{"ha":651,"x_min":0,"x_max":0,"o":"m 190 885 b 168 907 174 885 168 890 l 168 950 b 190 972 168 967 174 972 l 500 972 b 521 950 517 972 521 967 l 521 378 b 90 -18 521 90 371 -17 b 61 4 68 -18 64 -12 l 56 58 b 82 82 53 75 61 82 b 411 378 322 82 411 175 l 411 885 z m 328 1311 b 297 1289 315 1311 307 1301 l 153 1083 b 163 1061 144 1068 147 1061 l 204 1061 b 239 1083 221 1061 231 1068 l 347 1246 l 454 1083 b 489 1061 464 1068 474 1061 l 532 1061 b 540 1083 546 1061 550 1068 l 396 1289 b 367 1311 386 1301 379 1311 z "},"ĥ":{"ha":836,"x_min":0,"x_max":0,"o":"m 238 575 b 461 722 263 622 333 722 b 736 410 610 722 736 632 l 736 22 b 715 0 736 6 731 0 l 653 0 b 632 22 638 0 632 6 l 632 382 b 436 628 632 547 549 628 b 238 372 315 628 238 511 l 238 22 b 217 0 238 6 232 0 l 154 0 b 133 22 139 0 133 6 l 133 367 l 133 1003 b 154 1025 133 1019 139 1025 l 217 1025 b 238 1003 232 1025 238 1019 z m 167 1311 b 136 1289 154 1311 146 1301 l -8 1083 b 1 1061 -17 1068 -14 1061 l 43 1061 b 78 1083 60 1061 69 1068 l 186 1246 l 293 1083 b 328 1061 303 1068 313 1061 l 371 1061 b 379 1083 385 1061 389 1068 l 235 1289 b 206 1311 225 1301 218 1311 z "},"Ĥ":{"ha":1053,"x_min":0,"x_max":0,"o":"m 800 536 l 253 536 l 253 950 b 232 972 253 967 249 972 l 165 972 b 143 950 149 972 143 967 l 143 22 b 165 0 143 6 149 0 l 232 0 b 253 22 249 0 253 6 l 253 439 l 800 439 l 800 22 b 821 0 800 6 804 0 l 888 0 b 910 22 904 0 910 6 l 910 950 b 888 972 910 967 904 972 l 821 972 b 800 950 804 972 800 967 z m 508 1311 b 478 1289 496 1311 488 1301 l 333 1083 b 343 1061 325 1068 328 1061 l 385 1061 b 419 1083 401 1061 411 1068 l 528 1246 l 635 1083 b 669 1061 644 1068 654 1061 l 713 1061 b 721 1083 726 1061 731 1068 l 576 1289 b 547 1311 567 1301 560 1311 z "},"ģ":{"ha":879,"x_min":0,"x_max":0,"o":"m 424 989 b 539 1156 431 1049 465 1110 b 543 1172 546 1161 547 1165 l 524 1201 b 508 1203 519 1207 514 1207 b 349 931 411 1150 349 1063 b 433 826 349 865 385 826 b 514 908 479 826 514 864 b 435 989 514 953 479 989 z m 644 147 b 388 -15 628 108 551 -15 b 67 353 192 -15 67 150 b 388 722 67 554 193 722 b 661 556 551 722 626 608 l 672 685 b 696 707 678 701 683 707 l 728 707 b 749 685 743 707 749 701 l 749 50 b 425 -343 749 -217 640 -343 b 150 -293 274 -343 179 -304 b 138 -268 136 -287 133 -283 l 151 -215 b 175 -203 156 -199 160 -196 b 410 -250 218 -218 290 -250 b 644 39 589 -250 644 -128 z m 408 629 b 171 353 263 629 171 507 b 408 79 171 211 263 79 b 646 354 553 79 646 215 b 408 629 646 492 553 629 z "},"ĝ":{"ha":879,"x_min":0,"x_max":0,"o":"m 644 147 b 388 -15 628 108 551 -15 b 67 353 192 -15 67 150 b 388 722 67 554 193 722 b 661 556 551 722 626 608 l 672 685 b 696 707 678 701 683 707 l 728 707 b 749 685 743 707 749 701 l 749 50 b 425 -343 749 -217 640 -343 b 150 -293 274 -343 179 -304 b 138 -268 136 -287 133 -283 l 151 -215 b 175 -203 156 -199 160 -196 b 410 -250 218 -218 290 -250 b 644 39 589 -250 644 -128 z m 408 629 b 171 353 263 629 171 507 b 408 79 171 211 263 79 b 646 354 553 79 646 215 b 408 629 646 492 553 629 z m 411 1046 b 381 1024 399 1046 390 1036 l 236 818 b 246 796 228 803 231 796 l 288 796 b 322 818 304 796 314 803 l 431 981 l 538 818 b 572 796 547 803 557 796 l 615 796 b 624 818 629 796 633 803 l 479 1024 b 450 1046 469 1036 463 1046 z "},"Ĝ":{"ha":1049,"x_min":0,"x_max":0,"o":"m 564 893 b 181 486 347 893 181 696 b 564 79 181 278 347 79 b 850 186 686 79 783 126 l 850 411 l 585 411 b 563 432 568 411 563 415 l 563 485 b 585 507 563 501 568 507 l 939 507 b 960 485 956 507 960 500 l 960 178 b 938 128 960 156 953 143 b 564 -18 846 38 700 -18 b 69 486 290 -18 69 210 b 564 990 69 763 290 990 b 928 849 699 990 835 936 b 925 818 940 836 936 831 l 883 772 b 851 772 874 761 865 760 b 564 893 788 836 676 893 z m 525 1311 b 494 1289 513 1311 504 1301 l 350 1083 b 360 1061 342 1068 344 1061 l 401 1061 b 436 1083 418 1061 428 1068 l 544 1246 l 651 1083 b 686 1061 661 1068 671 1061 l 729 1061 b 738 1083 743 1061 747 1068 l 593 1289 b 564 1311 583 1301 576 1311 z "},"Ň":{"ha":1078,"x_min":0,"x_max":0,"o":"m 251 769 l 897 -7 b 918 -18 906 -15 911 -18 l 925 -18 b 936 -7 933 -18 936 -17 l 936 950 b 915 972 936 968 932 972 l 849 972 b 826 950 832 972 826 968 l 826 208 l 179 981 b 161 990 174 988 169 990 l 154 990 b 142 979 144 990 142 989 l 142 22 b 164 0 142 6 147 0 l 229 0 b 251 22 246 0 251 6 z m 553 1061 b 582 1083 565 1061 572 1071 l 726 1289 b 718 1311 736 1304 732 1311 l 675 1311 b 640 1289 660 1311 650 1304 l 533 1126 l 425 1289 b 390 1311 417 1304 407 1311 l 349 1311 b 339 1289 333 1311 331 1304 l 483 1083 b 514 1061 493 1071 501 1061 z "},"ň":{"ha":840,"x_min":0,"x_max":0,"o":"m 228 560 b 465 722 257 615 329 722 b 740 410 614 722 740 632 l 740 22 b 719 0 740 6 735 0 l 657 0 b 636 22 642 0 636 6 l 636 382 b 440 628 636 547 553 628 b 242 372 319 628 242 511 l 242 22 b 221 0 242 6 236 0 l 158 0 b 138 22 143 0 138 6 l 138 367 l 138 685 b 158 707 138 701 143 707 l 193 707 b 217 685 204 707 210 701 z m 454 796 b 483 818 467 796 474 806 l 628 1024 b 619 1046 638 1039 633 1046 l 576 1046 b 542 1024 561 1046 551 1039 l 435 861 l 326 1024 b 292 1046 318 1039 308 1046 l 250 1046 b 240 1024 235 1046 232 1039 l 385 818 b 415 796 394 806 403 796 z "},"Ř":{"ha":928,"x_min":0,"x_max":0,"o":"m 828 681 b 490 972 828 906 649 972 l 160 972 b 138 950 143 972 138 967 l 138 22 b 160 0 138 3 143 0 l 225 0 b 247 22 242 0 247 4 l 247 381 l 496 381 l 751 22 b 789 0 761 8 772 0 l 854 0 b 871 26 871 0 882 8 l 610 393 b 828 681 739 428 828 515 z m 247 475 l 247 878 l 483 878 b 721 681 626 878 721 819 b 483 475 721 554 649 475 z m 469 1061 b 499 1083 482 1061 489 1071 l 643 1289 b 635 1311 653 1304 649 1311 l 592 1311 b 557 1289 576 1311 567 1304 l 450 1126 l 342 1289 b 307 1311 333 1304 324 1311 l 265 1311 b 256 1289 250 1311 247 1304 l 400 1083 b 431 1061 410 1071 418 1061 z "},"ř":{"ha":515,"x_min":0,"x_max":0,"o":"m 453 619 b 478 640 469 619 474 624 l 486 703 b 467 722 489 717 486 722 b 178 546 269 722 206 604 l 161 685 b 138 707 154 701 149 707 l 103 707 b 82 685 88 707 82 701 l 82 22 b 103 0 82 6 88 0 l 165 0 b 186 22 181 0 186 6 l 186 364 b 453 619 186 493 272 619 z m 297 796 b 326 818 310 796 317 806 l 471 1024 b 463 1046 481 1039 476 1046 l 419 1046 b 385 1024 404 1046 394 1039 l 278 861 l 169 1024 b 135 1046 161 1039 151 1046 l 93 1046 b 83 1024 78 1046 75 1039 l 228 818 b 258 796 238 806 246 796 z "},"Ŝ":{"ha":888,"x_min":0,"x_max":0,"o":"m 456 890 b 733 799 553 890 644 858 b 764 808 747 788 756 793 l 790 851 b 783 882 796 865 799 874 b 442 988 678 946 585 988 b 92 697 172 988 92 804 b 419 446 92 513 268 467 b 706 268 601 421 706 383 b 444 82 706 124 572 82 b 136 175 340 82 225 114 b 104 167 119 185 114 182 l 78 122 b 83 92 69 107 69 100 b 458 -15 189 18 311 -15 b 813 272 697 -15 813 124 b 481 538 813 458 660 514 b 199 700 328 557 199 586 b 456 890 199 772 244 890 z m 424 1311 b 393 1289 411 1311 403 1301 l 249 1083 b 258 1061 240 1068 243 1061 l 300 1061 b 335 1083 317 1061 326 1068 l 443 1246 l 550 1083 b 585 1061 560 1068 569 1061 l 628 1061 b 636 1083 642 1061 646 1068 l 492 1289 b 463 1311 482 1301 475 1311 z "},"ŝ":{"ha":706,"x_min":0,"x_max":0,"o":"m 354 69 b 119 147 263 69 181 104 b 89 139 103 160 96 153 l 69 104 b 74 74 61 89 61 82 b 360 -15 176 6 286 -15 b 644 204 539 -15 644 76 b 374 403 644 339 511 383 b 178 511 247 421 178 435 b 351 638 178 588 235 638 b 569 571 442 638 494 617 b 600 581 586 560 593 567 l 618 614 b 611 644 625 626 628 635 b 346 722 514 704 418 722 b 79 506 182 722 79 638 b 349 310 79 360 211 328 b 544 199 475 292 544 260 b 354 69 544 128 489 69 z m 335 1046 b 304 1024 322 1046 314 1036 l 160 818 b 169 796 151 803 154 796 l 211 796 b 246 818 228 796 238 803 l 354 981 l 461 818 b 496 796 471 803 481 796 l 539 796 b 547 818 553 796 557 803 l 403 1024 b 374 1046 393 1036 386 1046 z "},"Š":{"ha":896,"x_min":0,"x_max":0,"o":"m 464 890 b 742 799 561 890 653 858 b 772 808 756 788 764 793 l 799 851 b 792 882 804 865 807 874 b 450 988 686 946 593 988 b 100 697 181 988 100 804 b 428 446 100 513 276 467 b 714 268 610 421 714 383 b 453 82 714 124 581 82 b 144 175 349 82 233 114 b 113 167 128 185 122 182 l 86 122 b 92 92 78 107 78 100 b 467 -15 197 18 319 -15 b 821 272 706 -15 821 124 b 489 538 821 458 668 514 b 207 700 336 557 207 586 b 464 890 207 772 253 890 z m 471 1061 b 500 1083 483 1061 490 1071 l 644 1289 b 636 1311 654 1304 650 1311 l 593 1311 b 558 1289 578 1311 568 1304 l 451 1126 l 343 1289 b 308 1311 335 1304 325 1311 l 267 1311 b 257 1289 251 1311 249 1304 l 401 1083 b 432 1061 411 1071 419 1061 z "},"š":{"ha":706,"x_min":0,"x_max":0,"o":"m 354 69 b 119 147 263 69 181 104 b 89 139 103 160 96 153 l 69 104 b 74 74 61 89 61 82 b 360 -15 176 6 286 -15 b 644 204 539 -15 644 76 b 374 403 644 339 511 383 b 178 511 247 421 178 435 b 351 638 178 588 235 638 b 569 571 442 638 494 617 b 600 581 586 560 593 567 l 618 614 b 611 644 625 626 628 635 b 346 722 514 704 418 722 b 79 506 182 722 79 638 b 349 310 79 360 211 328 b 544 199 475 292 544 260 b 354 69 544 128 489 69 z m 369 796 b 399 818 382 796 389 806 l 543 1024 b 535 1046 553 1039 549 1046 l 492 1046 b 457 1024 476 1046 467 1039 l 350 861 l 242 1024 b 207 1046 233 1039 224 1046 l 165 1046 b 156 1024 150 1046 147 1039 l 300 818 b 331 796 310 806 318 796 z "},"Ť":{"ha":846,"x_min":0,"x_max":0,"o":"m 36 972 b 14 950 19 972 14 967 l 14 894 b 36 872 14 878 18 872 l 368 872 l 368 22 b 390 0 368 6 372 0 l 457 0 b 478 22 474 0 478 6 l 478 872 l 811 872 b 832 894 828 872 832 878 l 832 950 b 811 972 832 967 829 972 z m 442 1061 b 471 1083 454 1061 461 1071 l 615 1289 b 607 1311 625 1304 621 1311 l 564 1311 b 529 1289 549 1311 539 1304 l 422 1126 l 314 1289 b 279 1311 306 1304 296 1311 l 238 1311 b 228 1289 222 1311 219 1304 l 372 1083 b 403 1061 382 1071 390 1061 z "},"ť":{"ha":661,"x_min":0,"x_max":0,"o":"m 733 1015 b 618 849 725 956 690 894 b 614 833 611 843 610 839 l 633 803 b 649 801 638 797 643 797 b 808 1074 746 854 808 942 b 724 1178 808 1139 772 1178 b 643 1096 678 1178 643 1140 b 722 1015 643 1051 678 1017 z m 540 18 b 550 44 553 25 554 31 l 542 89 b 514 100 536 108 532 110 b 418 79 479 82 457 79 b 258 301 307 79 258 139 l 258 621 l 510 621 b 531 643 526 621 531 626 l 531 685 b 510 707 531 703 525 707 l 258 707 l 258 850 b 238 872 258 867 254 872 l 176 872 b 156 850 160 872 156 867 l 156 707 l 88 707 b 65 685 71 707 65 703 l 65 643 b 88 621 65 626 71 621 l 156 621 l 156 293 b 407 -15 156 100 224 -15 b 540 18 425 -15 485 -15 z "},"ž":{"ha":678,"x_min":0,"x_max":0,"o":"m 610 0 b 632 22 626 0 632 6 l 632 71 b 610 93 632 89 626 93 l 206 93 l 619 665 b 628 688 625 675 628 679 l 628 696 b 615 707 628 704 625 707 l 103 707 b 81 685 86 707 81 701 l 81 636 b 103 614 81 619 86 614 l 468 614 l 53 40 b 44 19 47 32 44 29 l 44 11 b 56 0 44 1 49 0 z m 375 796 b 404 818 388 796 394 806 l 549 1024 b 540 1046 558 1039 554 1046 l 497 1046 b 463 1024 482 1046 472 1039 l 356 861 l 247 1024 b 213 1046 239 1039 229 1046 l 171 1046 b 161 1024 156 1046 153 1039 l 306 818 b 336 796 315 806 324 796 z "},"Ž":{"ha":863,"x_min":0,"x_max":0,"o":"m 783 0 b 806 22 800 0 806 6 l 806 74 b 783 96 806 92 799 96 l 213 96 l 815 931 b 824 951 822 942 824 943 l 824 961 b 811 972 824 969 821 972 l 107 972 b 85 950 90 972 85 967 l 85 899 b 107 876 85 882 90 876 l 656 876 l 51 40 b 43 21 46 32 43 31 l 43 11 b 54 0 43 1 47 0 z m 463 1061 b 492 1083 475 1061 482 1071 l 636 1289 b 628 1311 646 1304 642 1311 l 585 1311 b 550 1289 569 1311 560 1304 l 443 1126 l 335 1289 b 300 1311 326 1304 317 1311 l 258 1311 b 249 1289 243 1311 240 1304 l 393 1083 b 424 1061 403 1071 411 1061 z "},"ŷ":{"ha":717,"x_min":0,"x_max":0,"o":"m 360 154 l 358 154 l 124 685 b 96 707 115 703 110 707 l 24 707 b 13 685 8 707 6 701 l 303 36 l 171 -261 b 182 -283 163 -278 167 -283 l 253 -283 b 282 -261 267 -283 274 -279 l 703 685 b 692 707 711 701 707 707 l 621 707 b 592 685 607 707 600 703 z m 344 1046 b 314 1024 332 1046 324 1036 l 169 818 b 179 796 161 803 164 796 l 221 796 b 256 818 238 796 247 803 l 364 981 l 471 818 b 506 796 481 803 490 796 l 549 796 b 557 818 563 796 567 803 l 413 1024 b 383 1046 403 1036 396 1046 z "},"Ŷ":{"ha":865,"x_min":0,"x_max":0,"o":"m 18 950 b 28 972 8 967 13 972 l 107 972 b 136 950 121 972 128 967 l 436 483 l 735 950 b 765 972 746 968 751 972 l 842 972 b 851 950 858 972 860 965 l 489 381 l 489 22 b 467 0 489 6 483 0 l 404 0 b 382 22 388 0 382 6 l 382 381 z m 419 1311 b 389 1289 407 1311 399 1301 l 244 1083 b 254 1061 236 1068 239 1061 l 296 1061 b 331 1083 313 1061 322 1068 l 439 1246 l 546 1083 b 581 1061 556 1068 565 1061 l 624 1061 b 632 1083 638 1061 642 1068 l 488 1289 b 458 1311 478 1301 471 1311 z "},"ŵ":{"ha":1018,"x_min":0,"x_max":0,"o":"m 282 200 l 485 708 b 504 728 490 718 493 728 l 514 728 b 533 708 524 728 528 718 l 736 200 l 883 685 b 913 707 889 703 897 707 l 988 707 b 999 685 1004 707 1006 701 l 783 6 b 765 -15 778 -8 771 -15 l 756 -15 b 735 6 747 -15 742 -8 l 510 563 l 283 6 b 263 -15 276 -8 271 -15 l 254 -15 b 235 6 247 -15 240 -8 l 19 685 b 31 707 13 701 15 707 l 106 707 b 133 688 119 707 128 703 z m 493 1046 b 463 1024 481 1046 472 1036 l 318 818 b 328 796 310 803 313 796 l 369 796 b 404 818 386 796 396 803 l 513 981 l 619 818 b 654 796 629 803 639 796 l 697 796 b 706 818 711 796 715 803 l 561 1024 b 532 1046 551 1036 544 1046 z "},"Ŵ":{"ha":1335,"x_min":0,"x_max":0,"o":"m 410 210 l 643 968 b 663 990 649 983 653 990 l 676 990 b 696 968 686 990 690 983 l 929 210 l 1192 950 b 1219 972 1197 967 1204 972 l 1304 972 b 1314 950 1318 972 1321 967 l 954 -4 b 939 -24 949 -17 946 -24 l 929 -24 b 914 -4 924 -24 919 -17 l 669 783 l 425 -4 b 410 -24 419 -17 415 -24 l 400 -24 b 385 -4 394 -24 390 -18 l 25 950 b 35 972 18 967 21 972 l 119 972 b 147 950 135 972 142 967 z m 650 1311 b 619 1289 638 1311 629 1301 l 475 1083 b 485 1061 467 1068 469 1061 l 526 1061 b 561 1083 543 1061 553 1068 l 669 1246 l 776 1083 b 811 1061 786 1068 796 1061 l 854 1061 b 863 1083 868 1061 872 1068 l 718 1289 b 689 1311 708 1301 701 1311 z "},"Ï":{"ha":415,"x_min":0,"x_max":0,"o":"m 153 22 b 175 0 153 6 158 0 l 242 0 b 263 22 258 0 263 6 l 263 950 b 242 972 263 967 258 972 l 175 972 b 153 950 158 972 153 967 z m -4 1204 b 58 1142 -4 1169 24 1142 b 122 1204 93 1142 122 1169 b 58 1268 122 1239 93 1268 b -4 1204 24 1268 -4 1239 z m 264 1204 b 328 1142 264 1169 292 1142 b 390 1204 363 1142 390 1169 b 328 1268 390 1239 363 1268 b 264 1204 292 1268 264 1239 z "},"Ñ":{"ha":1078,"x_min":0,"x_max":0,"o":"m 251 767 l 897 -7 b 918 -18 906 -15 911 -18 l 925 -18 b 936 -7 933 -18 936 -17 l 936 950 b 915 972 936 968 932 972 l 849 972 b 826 950 832 972 826 968 l 826 208 l 179 981 b 161 990 174 988 169 990 l 154 990 b 142 979 144 990 142 989 l 142 22 b 164 0 142 6 147 0 l 229 0 b 251 22 246 0 251 6 z m 628 1200 b 538 1244 594 1200 579 1210 b 415 1293 499 1275 468 1293 b 271 1182 326 1293 290 1232 b 281 1150 264 1165 264 1158 l 308 1139 b 339 1153 325 1132 332 1138 b 424 1218 358 1201 382 1218 b 517 1171 456 1218 476 1204 b 635 1125 554 1139 582 1125 b 781 1236 724 1125 760 1186 b 771 1268 788 1253 788 1261 l 743 1279 b 713 1265 725 1286 719 1283 b 628 1200 693 1218 669 1200 z "},"ľ":{"ha":501,"x_min":0,"x_max":0,"o":"m 499 863 b 383 696 490 803 456 742 b 379 681 376 690 375 686 l 399 650 b 414 649 403 644 408 644 b 574 921 511 701 574 789 b 489 1025 574 986 538 1025 b 408 943 443 1025 408 988 b 488 863 408 899 443 864 z m 133 22 b 156 0 133 6 139 0 l 217 0 b 238 22 233 0 238 6 l 238 1003 b 217 1025 238 1019 233 1025 l 156 1025 b 133 1003 139 1025 133 1019 z "},"Ŀ":{"ha":796,"x_min":0,"x_max":0,"o":"m 247 96 l 247 950 b 225 972 247 967 242 972 l 160 972 b 138 950 143 972 138 967 l 138 22 b 160 0 138 6 143 0 l 725 0 b 746 22 742 0 746 6 l 746 74 b 725 96 746 90 742 96 z m 603 481 b 675 408 603 440 635 408 b 749 481 715 408 749 440 b 675 553 749 521 715 553 b 603 481 635 553 603 521 z "},"ŀ":{"ha":614,"x_min":0,"x_max":0,"o":"m 143 22 b 165 0 143 6 149 0 l 226 0 b 247 22 243 0 247 6 l 247 1003 b 226 1025 247 1019 243 1025 l 165 1025 b 143 1003 149 1025 143 1019 z m 431 496 b 503 424 431 456 463 424 b 576 496 543 424 576 456 b 503 568 576 536 543 568 b 431 496 463 568 431 536 z "},"Ŧ":{"ha":860,"x_min":0,"x_max":0,"o":"m 800 483 b 822 506 817 483 822 489 l 822 554 b 800 575 822 569 817 575 l 485 575 l 485 872 l 824 872 b 846 894 840 872 846 878 l 846 950 b 824 972 846 967 840 972 l 36 972 b 14 950 19 972 14 967 l 14 894 b 36 872 14 878 19 872 l 375 872 l 375 575 l 60 575 b 38 554 43 575 38 568 l 38 506 b 60 483 38 490 43 483 l 375 483 l 375 22 b 397 0 375 6 379 0 l 463 0 b 485 22 481 0 485 6 l 485 483 z "},"ŧ":{"ha":654,"x_min":0,"x_max":0,"o":"m 546 360 b 567 382 563 360 567 365 l 567 424 b 546 446 567 442 563 446 l 294 446 l 294 621 l 546 621 b 567 643 563 621 567 626 l 567 685 b 546 707 567 703 563 707 l 294 707 l 294 836 b 274 858 294 853 289 858 l 213 858 b 192 836 196 858 192 853 l 192 707 l 89 707 b 67 685 72 707 67 703 l 67 643 b 89 621 67 626 72 621 l 192 621 l 192 446 l 89 446 b 67 424 72 446 67 442 l 67 382 b 89 360 67 365 72 360 l 192 360 b 197 249 192 319 193 289 b 443 -15 210 82 276 -15 b 581 21 461 -15 526 -15 b 592 49 593 28 594 33 l 582 92 b 556 103 578 111 574 111 b 454 79 532 92 475 79 b 300 272 351 79 306 131 b 294 360 297 303 296 332 z "},"˜":{"ha":611,"x_min":0,"x_max":0,"o":"m 410 935 b 319 979 376 935 361 944 b 197 1028 281 1010 250 1028 b 53 917 108 1028 72 967 b 63 885 46 900 46 893 l 90 874 b 121 888 107 867 114 872 b 206 953 140 936 164 953 b 299 906 238 953 258 939 b 417 860 336 874 364 860 b 563 971 506 860 542 921 b 553 1003 569 988 569 996 l 525 1014 b 494 1000 507 1021 501 1018 b 410 935 475 953 451 935 z "},"Ã":{"ha":989,"x_min":0,"x_max":0,"o":"m 497 806 l 701 353 l 292 353 l 496 806 z m 515 976 b 499 996 510 988 506 996 l 494 996 b 476 976 486 996 483 988 l 24 22 b 36 0 18 10 24 0 l 117 0 b 146 22 132 0 138 6 l 254 258 l 739 258 l 847 22 b 875 0 856 6 861 0 l 956 0 b 969 22 969 0 975 10 z m 597 1200 b 507 1244 564 1200 549 1210 b 385 1293 468 1275 438 1293 b 240 1182 296 1293 260 1232 b 250 1150 233 1165 233 1158 l 278 1139 b 308 1153 294 1132 301 1138 b 393 1218 328 1201 351 1218 b 486 1171 425 1218 446 1204 b 604 1125 524 1139 551 1125 b 750 1236 693 1125 729 1186 b 740 1268 757 1253 757 1261 l 713 1279 b 682 1265 694 1286 689 1283 b 597 1200 663 1218 639 1200 z "},"õ":{"ha":864,"x_min":0,"x_max":0,"o":"m 67 353 b 432 -15 67 150 229 -15 b 797 353 635 -15 797 150 b 432 722 797 556 635 722 b 67 353 229 722 67 556 z m 432 78 b 171 353 288 78 171 200 b 432 628 171 506 288 628 b 694 353 578 628 694 506 b 432 78 694 200 578 78 z m 535 935 b 444 979 501 935 486 944 b 322 1028 406 1010 375 1028 b 178 917 233 1028 197 967 b 188 885 171 900 171 893 l 215 874 b 246 888 232 867 239 872 b 331 953 265 936 289 953 b 424 906 363 953 383 939 b 542 860 461 874 489 860 b 688 971 631 860 667 921 b 678 1003 694 988 694 996 l 650 1014 b 619 1000 632 1021 626 1018 b 535 935 600 953 576 935 z "},"ã":{"ha":779,"x_min":0,"x_max":0,"o":"m 165 608 b 379 631 218 618 290 631 b 576 392 525 631 576 567 b 351 440 506 421 425 440 b 67 215 181 440 67 367 b 314 -15 67 67 181 -15 b 593 117 464 -15 556 65 l 599 22 b 619 0 603 6 608 0 l 660 0 b 681 22 675 0 681 6 l 681 389 b 383 722 681 618 617 722 b 144 697 276 722 161 701 b 128 669 128 692 124 685 l 139 628 b 165 608 143 611 147 604 z m 372 363 b 576 313 451 363 506 342 l 576 197 b 346 67 532 132 442 67 b 171 215 233 67 171 129 b 372 363 171 310 240 363 z m 490 935 b 400 979 457 935 442 944 b 278 1028 361 1010 331 1028 b 133 917 189 1028 153 967 b 143 885 126 900 126 893 l 171 874 b 201 888 188 867 194 872 b 286 953 221 936 244 953 b 379 906 318 953 339 939 b 497 860 417 874 444 860 b 643 971 586 860 622 921 b 633 1003 650 988 650 996 l 606 1014 b 575 1000 588 1021 582 1018 b 490 935 556 953 532 935 z "},"Õ":{"ha":1133,"x_min":0,"x_max":0,"o":"m 69 486 b 567 -18 69 210 293 -18 b 1064 486 840 -18 1064 210 b 567 990 1064 763 840 990 b 69 486 293 990 69 763 z m 181 486 b 567 893 181 696 350 893 b 953 486 786 893 953 696 b 567 79 953 278 786 79 b 181 486 350 79 181 278 z m 663 1200 b 572 1244 629 1200 614 1210 b 450 1293 533 1275 503 1293 b 306 1182 361 1293 325 1232 b 315 1150 299 1165 299 1158 l 343 1139 b 374 1153 360 1132 367 1138 b 458 1218 393 1201 417 1218 b 551 1171 490 1218 511 1204 b 669 1125 589 1139 617 1125 b 815 1236 758 1125 794 1186 b 806 1268 822 1253 822 1261 l 778 1279 b 747 1265 760 1286 754 1283 b 663 1200 728 1218 704 1200 z "},"ĩ":{"ha":406,"x_min":0,"x_max":0,"o":"m 150 22 b 172 0 150 6 156 0 l 232 0 b 254 22 249 0 254 6 l 254 685 b 232 707 254 701 250 707 l 172 707 b 150 685 156 707 150 701 z m 306 935 b 215 979 272 935 257 944 b 93 1028 176 1010 146 1028 b -51 917 4 1028 -32 967 b -42 885 -58 900 -58 893 l -14 874 b 17 888 3 867 10 872 b 101 953 36 936 60 953 b 194 906 133 953 154 939 b 313 860 232 874 260 860 b 458 971 401 860 438 921 b 449 1003 465 988 465 996 l 421 1014 b 390 1000 403 1021 397 1018 b 306 935 371 953 347 935 z "},"Ĩ":{"ha":403,"x_min":0,"x_max":0,"o":"m 146 22 b 168 0 146 6 151 0 l 235 0 b 256 22 251 0 256 6 l 256 950 b 235 972 256 967 251 972 l 168 972 b 146 950 151 972 146 967 z m 304 1200 b 214 1244 271 1200 256 1210 b 92 1293 175 1275 144 1293 b -53 1182 3 1293 -33 1232 b -43 1150 -60 1165 -60 1158 l -15 1139 b 15 1153 1 1132 8 1138 b 100 1218 35 1201 58 1218 b 193 1171 132 1218 153 1204 b 311 1125 231 1139 258 1125 b 457 1236 400 1125 436 1186 b 447 1268 464 1253 464 1261 l 419 1279 b 389 1265 401 1286 396 1283 b 304 1200 369 1218 346 1200 z "},"ğ":{"ha":879,"x_min":0,"x_max":0,"o":"m 431 854 b 626 978 506 854 585 879 b 621 1010 632 992 633 1004 l 586 1028 b 563 1018 575 1033 568 1031 b 431 926 533 950 501 926 b 297 1018 360 926 326 950 b 274 1028 292 1031 286 1033 l 239 1010 b 235 978 228 1004 228 992 b 431 854 276 879 356 854 z m 644 147 b 388 -15 628 108 551 -15 b 67 353 192 -15 67 150 b 388 722 67 554 193 722 b 661 556 551 722 626 608 l 672 685 b 696 707 678 701 683 707 l 728 707 b 749 685 743 707 749 701 l 749 50 b 425 -343 749 -217 640 -343 b 150 -293 274 -343 179 -304 b 138 -268 136 -287 133 -283 l 151 -215 b 175 -203 156 -199 160 -196 b 410 -250 218 -218 290 -250 b 644 39 589 -250 644 -128 z m 408 629 b 171 353 263 629 171 507 b 408 79 171 211 263 79 b 646 354 553 79 646 215 b 408 629 646 492 553 629 z "},"ũ":{"ha":840,"x_min":0,"x_max":0,"o":"m 613 147 b 375 -15 583 92 511 -15 b 100 297 226 -15 100 75 l 100 685 b 121 707 100 701 106 707 l 183 707 b 204 685 199 707 204 701 l 204 325 b 400 79 204 160 288 79 b 599 335 521 79 599 196 l 599 685 b 619 707 599 701 604 707 l 682 707 b 703 685 697 707 703 701 l 703 340 l 703 22 b 682 0 703 6 697 0 l 647 0 b 624 22 636 0 631 6 z m 508 935 b 418 979 475 935 460 944 b 296 1028 379 1010 349 1028 b 151 917 207 1028 171 967 b 161 885 144 900 144 893 l 189 874 b 219 888 206 867 213 872 b 304 953 239 936 263 953 b 397 906 336 953 357 939 b 515 860 435 874 463 860 b 661 971 604 860 640 921 b 651 1003 668 988 668 996 l 624 1014 b 593 1000 606 1021 600 1018 b 508 935 574 953 550 935 z "},"Ũ":{"ha":994,"x_min":0,"x_max":0,"o":"m 497 -18 b 890 400 724 -18 890 124 l 890 950 b 869 972 890 967 886 972 l 803 972 b 781 950 786 972 781 967 l 781 407 b 497 79 781 176 664 79 b 214 407 331 79 214 176 l 214 950 b 192 972 214 967 208 972 l 126 972 b 104 950 110 972 104 968 l 104 400 b 497 -18 104 124 271 -18 z m 600 1200 b 510 1244 567 1200 551 1210 b 388 1293 471 1275 440 1293 b 243 1182 299 1293 263 1232 b 253 1150 236 1165 236 1158 l 281 1139 b 311 1153 297 1132 304 1138 b 396 1218 331 1201 354 1218 b 489 1171 428 1218 449 1204 b 607 1125 526 1139 554 1125 b 753 1236 696 1125 732 1186 b 743 1268 760 1253 760 1261 l 715 1279 b 685 1265 697 1286 692 1283 b 600 1200 665 1218 642 1200 z "},"Ä":{"ha":989,"x_min":0,"x_max":0,"o":"m 497 806 l 701 353 l 292 353 l 496 806 z m 515 976 b 499 996 510 988 506 996 l 494 996 b 476 976 486 996 483 988 l 24 22 b 36 0 18 10 24 0 l 117 0 b 146 22 132 0 138 6 l 254 258 l 739 258 l 847 22 b 875 0 856 6 861 0 l 956 0 b 969 22 969 0 975 10 z m 300 1204 b 363 1142 300 1169 328 1142 b 426 1204 397 1142 426 1169 b 363 1268 426 1239 397 1268 b 300 1204 328 1268 300 1239 z m 568 1204 b 632 1142 568 1169 596 1142 b 694 1204 667 1142 694 1169 b 632 1268 694 1239 667 1268 b 568 1204 596 1268 568 1239 z "},"Ë":{"ha":881,"x_min":0,"x_max":0,"o":"m 767 0 b 788 22 783 0 788 6 l 788 74 b 767 96 788 90 783 96 l 236 96 l 236 443 l 742 443 b 764 465 758 443 764 449 l 764 517 b 742 539 764 533 758 539 l 236 539 l 236 876 l 767 876 b 788 899 782 876 788 882 l 788 950 b 767 972 788 967 782 972 l 149 972 b 126 950 132 972 126 967 l 126 22 b 149 0 126 6 132 0 z m 264 1204 b 326 1142 264 1169 292 1142 b 390 1204 361 1142 390 1169 b 326 1268 390 1239 361 1268 b 264 1204 292 1268 264 1239 z m 532 1204 b 596 1142 532 1169 560 1142 b 658 1204 631 1142 658 1169 b 596 1268 658 1239 631 1268 b 532 1204 560 1268 532 1239 z "},"Ö":{"ha":1133,"x_min":0,"x_max":0,"o":"m 69 486 b 567 -18 69 210 293 -18 b 1064 486 840 -18 1064 210 b 567 990 1064 763 840 990 b 69 486 293 990 69 763 z m 181 486 b 567 893 181 696 350 893 b 953 486 786 893 953 696 b 567 79 953 278 786 79 b 181 486 350 79 181 278 z m 358 1204 b 421 1142 358 1169 386 1142 b 485 1204 456 1142 485 1169 b 421 1268 485 1239 456 1268 b 358 1204 386 1268 358 1239 z m 626 1204 b 690 1142 626 1169 654 1142 b 753 1204 725 1142 753 1169 b 690 1268 753 1239 725 1268 b 626 1204 654 1268 626 1239 z "},"Ü":{"ha":994,"x_min":0,"x_max":0,"o":"m 497 -18 b 890 400 724 -18 890 124 l 890 950 b 869 972 890 967 886 972 l 803 972 b 781 950 786 972 781 967 l 781 407 b 497 79 781 176 664 79 b 214 407 331 79 214 176 l 214 950 b 192 972 214 967 208 972 l 126 972 b 104 950 110 972 104 968 l 104 400 b 497 -18 104 124 271 -18 z m 301 1204 b 364 1142 301 1169 329 1142 b 428 1204 399 1142 428 1169 b 364 1268 428 1239 399 1268 b 301 1204 329 1268 301 1239 z m 569 1204 b 633 1142 569 1169 597 1142 b 696 1204 668 1142 696 1169 b 633 1268 696 1239 668 1268 b 569 1204 597 1268 569 1239 z "},"ä":{"ha":779,"x_min":0,"x_max":0,"o":"m 165 608 b 379 631 218 618 290 631 b 576 392 525 631 576 567 b 351 440 506 421 425 440 b 67 215 181 440 67 367 b 314 -15 67 67 181 -15 b 593 117 464 -15 556 65 l 599 22 b 619 0 603 6 608 0 l 660 0 b 681 22 675 0 681 6 l 681 389 b 383 722 681 618 617 722 b 144 697 276 722 161 701 b 128 669 128 692 124 685 l 139 628 b 165 608 143 611 147 604 z m 372 363 b 576 313 451 363 506 342 l 576 197 b 346 67 532 132 442 67 b 171 215 233 67 171 129 b 372 363 171 310 240 363 z m 181 939 b 243 876 181 904 208 876 b 307 939 278 876 307 904 b 243 1003 307 974 278 1003 b 181 939 208 1003 181 974 z m 449 939 b 513 876 449 904 476 876 b 575 939 547 876 575 904 b 513 1003 575 974 547 1003 b 449 939 476 1003 449 974 z "},"ë":{"ha":833,"x_min":0,"x_max":0,"o":"m 718 113 b 718 82 728 100 728 92 b 438 -15 653 18 540 -15 b 67 353 228 -15 67 150 b 431 722 67 556 228 722 b 774 339 647 722 774 547 b 753 317 774 322 771 317 l 174 317 b 442 76 183 188 301 76 b 660 146 510 76 593 97 b 692 144 675 154 681 157 z m 667 389 b 429 635 661 514 571 635 b 176 389 286 635 181 514 z m 231 939 b 293 876 231 904 258 876 b 357 939 328 876 357 904 b 293 1003 357 974 328 1003 b 231 939 258 1003 231 974 z m 499 939 b 563 876 499 904 526 876 b 625 939 597 876 625 904 b 563 1003 625 974 597 1003 b 499 939 526 1003 499 974 z "},"ï":{"ha":406,"x_min":0,"x_max":0,"o":"m 150 22 b 172 0 150 6 156 0 l 232 0 b 254 22 249 0 254 6 l 254 685 b 232 707 254 701 250 707 l 172 707 b 150 685 156 707 150 701 z m 7 939 b 69 876 7 904 35 876 b 133 939 104 876 133 904 b 69 1003 133 974 104 1003 b 7 939 35 1003 7 974 z m 275 939 b 339 876 275 904 303 876 b 401 939 374 876 401 904 b 339 1003 401 974 374 1003 b 275 939 303 1003 275 974 z "},"ö":{"ha":864,"x_min":0,"x_max":0,"o":"m 67 353 b 432 -15 67 150 229 -15 b 797 353 635 -15 797 150 b 432 722 797 556 635 722 b 67 353 229 722 67 556 z m 432 78 b 171 353 288 78 171 200 b 432 628 171 506 288 628 b 694 353 578 628 694 506 b 432 78 694 200 578 78 z m 233 939 b 296 876 233 904 261 876 b 360 939 331 876 360 904 b 296 1003 360 974 331 1003 b 233 939 261 1003 233 974 z m 501 939 b 565 876 501 904 529 876 b 628 939 600 876 628 904 b 565 1003 628 974 600 1003 b 501 939 529 1003 501 974 z "},"ė":{"ha":833,"x_min":0,"x_max":0,"o":"m 718 113 b 718 82 728 100 728 92 b 438 -15 653 18 540 -15 b 67 353 228 -15 67 150 b 431 722 67 556 228 722 b 774 339 647 722 774 547 b 753 317 774 322 771 317 l 174 317 b 442 76 183 188 301 76 b 660 146 510 76 593 97 b 692 144 675 154 681 157 z m 667 389 b 429 635 661 514 571 635 b 176 389 286 635 181 514 z m 353 939 b 425 867 353 899 385 867 b 499 939 465 867 499 899 b 425 1011 499 979 465 1011 b 353 939 385 1011 353 979 z "},"ÿ":{"ha":717,"x_min":0,"x_max":0,"o":"m 360 154 l 358 154 l 124 685 b 96 707 115 703 110 707 l 24 707 b 13 685 8 707 6 701 l 303 36 l 171 -261 b 182 -283 163 -278 167 -283 l 253 -283 b 282 -261 267 -283 274 -279 l 703 685 b 692 707 711 701 707 707 l 621 707 b 592 685 607 707 600 703 z m 157 939 b 219 876 157 904 185 876 b 283 939 254 876 283 904 b 219 1003 283 974 254 1003 b 157 939 185 1003 157 974 z m 425 939 b 489 876 425 904 453 876 b 551 939 524 876 551 904 b 489 1003 551 974 524 1003 b 425 939 453 1003 425 974 z "},"ü":{"ha":840,"x_min":0,"x_max":0,"o":"m 613 147 b 375 -15 583 92 511 -15 b 100 297 226 -15 100 75 l 100 685 b 121 707 100 701 106 707 l 183 707 b 204 685 199 707 204 701 l 204 325 b 400 79 204 160 288 79 b 599 335 521 79 599 196 l 599 685 b 619 707 599 701 604 707 l 682 707 b 703 685 697 707 703 701 l 703 340 l 703 22 b 682 0 703 6 697 0 l 647 0 b 624 22 636 0 631 6 z m 206 939 b 268 876 206 904 233 876 b 332 939 303 876 332 904 b 268 1003 332 974 303 1003 b 206 939 233 1003 206 974 z m 474 939 b 538 876 474 904 501 876 b 600 939 572 876 600 904 b 538 1003 600 974 572 1003 b 474 939 501 1003 474 974 z "},"Ẅ":{"ha":1335,"x_min":0,"x_max":0,"o":"m 410 210 l 643 968 b 663 990 649 983 653 990 l 676 990 b 696 968 686 990 690 983 l 929 210 l 1192 950 b 1219 972 1197 967 1204 972 l 1304 972 b 1314 950 1318 972 1321 967 l 954 -4 b 939 -24 949 -17 946 -24 l 929 -24 b 914 -4 924 -24 919 -17 l 669 783 l 425 -4 b 410 -24 419 -17 415 -24 l 400 -24 b 385 -4 394 -24 390 -18 l 25 950 b 35 972 18 967 21 972 l 119 972 b 147 950 135 972 142 967 z m 472 1204 b 535 1142 472 1169 500 1142 b 599 1204 569 1142 599 1169 b 535 1268 599 1239 569 1268 b 472 1204 500 1268 472 1239 z m 740 1204 b 804 1142 740 1169 768 1142 b 867 1204 839 1142 867 1169 b 804 1268 867 1239 839 1268 b 740 1204 768 1268 740 1239 z "},"ẅ":{"ha":1018,"x_min":0,"x_max":0,"o":"m 282 200 l 485 708 b 504 728 490 718 493 728 l 514 728 b 533 708 524 728 528 718 l 736 200 l 883 685 b 913 707 889 703 897 707 l 988 707 b 999 685 1004 707 1006 701 l 783 6 b 765 -15 778 -8 771 -15 l 756 -15 b 735 6 747 -15 742 -8 l 510 563 l 283 6 b 263 -15 276 -8 271 -15 l 254 -15 b 235 6 247 -15 240 -8 l 19 685 b 31 707 13 701 15 707 l 106 707 b 133 688 119 707 128 703 z m 313 939 b 375 876 313 904 340 876 b 439 939 410 876 439 904 b 375 1003 439 974 410 1003 b 313 939 340 1003 313 974 z m 581 939 b 644 876 581 904 608 876 b 707 939 679 876 707 904 b 644 1003 707 974 679 1003 b 581 939 608 1003 581 974 z "},"Ÿ":{"ha":865,"x_min":0,"x_max":0,"o":"m 18 950 b 28 972 8 967 13 972 l 107 972 b 136 950 121 972 128 967 l 436 483 l 735 950 b 765 972 746 968 751 972 l 842 972 b 851 950 858 972 860 965 l 489 381 l 489 22 b 467 0 489 6 483 0 l 404 0 b 382 22 388 0 382 6 l 382 381 z m 224 1204 b 286 1142 224 1169 251 1142 b 350 1204 321 1142 350 1169 b 286 1268 350 1239 321 1268 b 224 1204 251 1268 224 1239 z m 492 1204 b 556 1142 492 1169 519 1142 b 618 1204 590 1142 618 1169 b 556 1268 618 1239 590 1268 b 492 1204 519 1268 492 1239 z "},"œ":{"ha":1347,"x_min":0,"x_max":0,"o":"m 742 317 l 1267 317 b 1288 339 1285 317 1288 322 b 944 722 1288 522 1182 722 b 689 618 844 722 756 682 b 432 722 622 682 531 722 b 67 353 229 722 67 556 b 432 -15 67 150 229 -15 b 689 89 531 -15 622 24 b 951 -15 756 24 847 -15 b 1233 83 1054 -15 1167 18 b 1232 113 1242 92 1242 100 l 1206 144 b 1174 146 1194 157 1189 154 b 956 76 1108 99 1024 76 b 742 188 878 76 776 117 z m 744 519 b 943 635 782 579 851 635 b 1181 389 1085 635 1175 522 l 744 389 z m 640 214 b 432 78 604 133 528 78 b 171 353 286 78 171 199 b 432 628 171 506 288 628 b 640 492 528 628 604 572 z "},"Œ":{"ha":1547,"x_min":0,"x_max":0,"o":"m 182 485 b 561 893 182 696 343 893 b 939 486 781 893 939 696 b 561 79 939 278 781 79 b 182 485 343 79 182 275 z m 1407 443 b 1429 465 1424 443 1429 449 l 1429 517 b 1407 539 1429 533 1424 539 l 1049 539 b 851 876 1039 683 960 811 l 994 876 l 1439 876 b 1461 899 1456 876 1461 882 l 1461 950 b 1439 972 1461 967 1456 972 l 806 972 b 561 990 729 972 635 990 b 69 485 288 990 69 761 b 561 -18 69 208 288 -18 b 806 0 636 -18 729 0 l 1439 0 b 1461 22 1456 0 1461 6 l 1461 74 b 1439 96 1461 90 1456 96 l 851 96 b 1049 443 969 172 1039 293 z "},"˚":{"ha":403,"x_min":0,"x_max":0,"o":"m 201 804 b 349 956 286 804 349 869 b 201 1107 349 1042 286 1107 b 54 956 115 1107 54 1042 b 201 804 54 869 115 804 z m 201 860 b 114 956 146 860 114 908 b 203 1050 114 1003 147 1050 b 289 956 258 1050 289 1003 b 201 860 289 908 258 860 z "},"å":{"ha":779,"x_min":0,"x_max":0,"o":"m 165 608 b 379 631 218 618 290 631 b 576 392 525 631 576 567 b 351 440 506 421 425 440 b 67 215 181 440 67 367 b 314 -15 67 67 181 -15 b 593 117 464 -15 556 65 l 599 22 b 619 0 603 6 608 0 l 660 0 b 681 22 675 0 681 6 l 681 389 b 383 722 681 618 617 722 b 144 697 276 722 161 701 b 128 669 128 692 124 685 l 139 628 b 165 608 143 611 147 604 z m 372 363 b 576 313 451 363 506 342 l 576 197 b 346 67 532 132 442 67 b 171 215 233 67 171 129 b 372 363 171 310 240 363 z m 390 804 b 538 956 475 804 538 869 b 390 1107 538 1042 475 1107 b 243 956 304 1107 243 1042 b 390 804 243 869 304 804 z m 390 860 b 303 956 335 860 303 908 b 392 1050 303 1003 336 1050 b 478 956 447 1050 478 1003 b 390 860 478 908 447 860 z "},"Ů":{"ha":994,"x_min":0,"x_max":0,"o":"m 497 -18 b 890 400 724 -18 890 124 l 890 950 b 869 972 890 967 886 972 l 803 972 b 781 950 786 972 781 967 l 781 407 b 497 79 781 176 664 79 b 214 407 331 79 214 176 l 214 950 b 192 972 214 967 208 972 l 126 972 b 104 950 110 972 104 968 l 104 400 b 497 -18 104 124 271 -18 z m 497 1069 b 644 1221 582 1069 644 1135 b 497 1372 644 1307 582 1372 b 350 1221 411 1372 350 1307 b 497 1069 350 1135 411 1069 z m 497 1125 b 410 1221 442 1125 410 1174 b 499 1315 410 1268 443 1315 b 585 1221 554 1315 585 1268 b 497 1125 585 1174 554 1125 z "},"ů":{"ha":840,"x_min":0,"x_max":0,"o":"m 613 147 b 375 -15 583 92 511 -15 b 100 297 226 -15 100 75 l 100 685 b 121 707 100 701 106 707 l 183 707 b 204 685 199 707 204 701 l 204 325 b 400 79 204 160 288 79 b 599 335 521 79 599 196 l 599 685 b 619 707 599 701 604 707 l 682 707 b 703 685 697 707 703 701 l 703 340 l 703 22 b 682 0 703 6 697 0 l 647 0 b 624 22 636 0 631 6 z m 406 804 b 553 956 490 804 553 869 b 406 1107 553 1042 490 1107 b 258 956 319 1107 258 1042 b 406 804 258 869 319 804 z m 406 860 b 318 956 350 860 318 908 b 407 1050 318 1003 351 1050 b 493 956 463 1050 493 1003 b 406 860 493 908 463 860 z "},"ˉ":{"ha":549,"x_min":0,"x_max":0,"o":"m 442 911 b 464 932 458 911 464 917 l 464 968 b 442 990 464 985 458 990 l 106 990 b 85 968 89 990 85 985 l 85 933 b 106 911 85 917 89 911 z "},"Ē":{"ha":881,"x_min":0,"x_max":0,"o":"m 767 0 b 788 22 783 0 788 6 l 788 74 b 767 96 788 90 783 96 l 236 96 l 236 443 l 742 443 b 764 465 758 443 764 449 l 764 517 b 742 539 764 533 758 539 l 236 539 l 236 876 l 767 876 b 788 899 782 876 788 882 l 788 950 b 767 972 788 967 782 972 l 149 972 b 126 950 132 972 126 967 l 126 22 b 149 0 126 6 132 0 z m 624 1182 b 646 1203 640 1182 646 1188 l 646 1239 b 624 1261 646 1256 640 1261 l 289 1261 b 267 1239 272 1261 267 1256 l 267 1204 b 289 1182 267 1188 272 1182 z "},"ē":{"ha":833,"x_min":0,"x_max":0,"o":"m 718 113 b 718 82 728 100 728 92 b 438 -15 653 18 540 -15 b 67 353 228 -15 67 150 b 431 722 67 556 228 722 b 774 339 647 722 774 547 b 753 317 774 322 771 317 l 174 317 b 442 76 183 188 301 76 b 660 146 510 76 593 97 b 692 144 675 154 681 157 z m 667 389 b 429 635 661 514 571 635 b 176 389 286 635 181 514 z m 599 911 b 621 932 615 911 621 917 l 621 968 b 599 990 621 985 615 990 l 264 990 b 242 968 247 990 242 985 l 242 933 b 264 911 242 917 247 911 z "},"Ō":{"ha":1133,"x_min":0,"x_max":0,"o":"m 69 486 b 567 -18 69 210 293 -18 b 1064 486 840 -18 1064 210 b 567 990 1064 763 840 990 b 69 486 293 990 69 763 z m 181 486 b 567 893 181 696 350 893 b 953 486 786 893 953 696 b 567 79 953 278 786 79 b 181 486 350 79 181 278 z m 735 1176 b 757 1197 751 1176 757 1182 l 757 1233 b 735 1256 757 1250 751 1256 l 400 1256 b 378 1233 383 1256 378 1250 l 378 1199 b 400 1176 378 1182 383 1176 z "},"ō":{"ha":864,"x_min":0,"x_max":0,"o":"m 67 353 b 432 -15 67 150 229 -15 b 797 353 635 -15 797 150 b 432 722 797 556 635 722 b 67 353 229 722 67 556 z m 432 78 b 171 353 288 78 171 200 b 432 628 171 506 288 628 b 694 353 578 628 694 506 b 432 78 694 200 578 78 z m 600 911 b 622 932 617 911 622 917 l 622 968 b 600 990 622 985 617 990 l 265 990 b 243 968 249 990 243 985 l 243 933 b 265 911 243 917 249 911 z "},"ū":{"ha":840,"x_min":0,"x_max":0,"o":"m 613 147 b 375 -15 583 92 511 -15 b 100 297 226 -15 100 75 l 100 685 b 121 707 100 701 106 707 l 183 707 b 204 685 199 707 204 701 l 204 325 b 400 79 204 160 288 79 b 599 335 521 79 599 196 l 599 685 b 619 707 599 701 604 707 l 682 707 b 703 685 697 707 703 701 l 703 340 l 703 22 b 682 0 703 6 697 0 l 647 0 b 624 22 636 0 631 6 z m 568 911 b 590 932 585 911 590 917 l 590 968 b 568 990 590 985 585 990 l 233 990 b 211 968 217 990 211 985 l 211 933 b 233 911 211 917 217 911 z "},"Ū":{"ha":994,"x_min":0,"x_max":0,"o":"m 497 -18 b 890 400 724 -18 890 124 l 890 950 b 869 972 890 967 886 972 l 803 972 b 781 950 786 972 781 967 l 781 407 b 497 79 781 176 664 79 b 214 407 331 79 214 176 l 214 950 b 192 972 214 967 208 972 l 126 972 b 104 950 110 972 104 968 l 104 400 b 497 -18 104 124 271 -18 z m 665 1176 b 688 1197 682 1176 688 1182 l 688 1233 b 665 1256 688 1250 682 1256 l 331 1256 b 308 1233 314 1256 308 1250 l 308 1199 b 331 1176 308 1182 314 1176 z "},"˙":{"ha":238,"x_min":0,"x_max":0,"o":"m 46 939 b 118 867 46 899 78 867 b 192 939 158 867 192 899 b 118 1011 192 979 158 1011 b 46 939 78 1011 46 979 z "},"ċ":{"ha":739,"x_min":0,"x_max":0,"o":"m 429 79 b 167 353 283 79 167 199 b 429 628 167 506 283 628 b 622 550 506 628 575 597 b 651 554 633 539 642 542 l 685 589 b 685 618 696 601 696 608 b 428 722 614 689 524 722 b 64 353 225 722 64 556 b 428 -15 64 150 225 -15 b 685 89 524 -15 614 18 b 685 118 696 99 696 106 l 651 153 b 622 157 642 165 633 168 b 429 79 575 110 506 79 z m 349 939 b 421 867 349 899 381 867 b 494 939 461 867 494 899 b 421 1011 494 979 461 1011 b 349 939 381 1011 349 979 z "},"Ċ":{"ha":1007,"x_min":0,"x_max":0,"o":"m 561 79 b 854 204 690 79 789 136 b 885 203 867 215 875 213 l 926 158 b 925 125 938 144 938 138 b 561 -18 836 36 696 -18 b 64 486 288 -18 64 210 b 561 990 64 763 288 990 b 925 847 696 990 836 936 b 924 817 936 836 935 829 l 883 772 b 851 771 872 760 863 760 b 561 893 790 836 690 893 b 175 486 344 893 175 696 b 561 79 175 276 344 79 z m 481 1204 b 553 1132 481 1164 513 1132 b 626 1204 593 1132 626 1164 b 553 1276 626 1244 593 1276 b 481 1204 513 1276 481 1244 z "},"Ġ":{"ha":1049,"x_min":0,"x_max":0,"o":"m 564 893 b 181 486 347 893 181 696 b 564 79 181 278 347 79 b 850 186 686 79 783 126 l 850 411 l 585 411 b 563 432 568 411 563 415 l 563 485 b 585 507 563 501 568 507 l 939 507 b 960 485 956 507 960 500 l 960 178 b 938 128 960 156 953 143 b 564 -18 846 38 700 -18 b 69 486 290 -18 69 210 b 564 990 69 763 290 990 b 928 849 699 990 835 936 b 925 818 940 836 936 831 l 883 772 b 851 772 874 761 865 760 b 564 893 788 836 676 893 z m 469 1204 b 542 1132 469 1164 501 1132 b 615 1204 582 1132 615 1164 b 542 1276 615 1244 582 1276 b 469 1204 501 1276 469 1244 z "},"ġ":{"ha":879,"x_min":0,"x_max":0,"o":"m 644 147 b 388 -15 628 108 551 -15 b 67 353 192 -15 67 150 b 388 722 67 554 193 722 b 661 556 551 722 626 608 l 672 685 b 696 707 678 701 683 707 l 728 707 b 749 685 743 707 749 701 l 749 50 b 425 -343 749 -217 640 -343 b 150 -293 274 -343 179 -304 b 138 -268 136 -287 133 -283 l 151 -215 b 175 -203 156 -199 160 -196 b 410 -250 218 -218 290 -250 b 644 39 589 -250 644 -128 z m 408 629 b 171 353 263 629 171 507 b 408 79 171 211 263 79 b 646 354 553 79 646 215 b 408 629 646 492 553 629 z m 347 939 b 419 867 347 899 379 867 b 493 939 460 867 493 899 b 419 1011 493 979 460 1011 b 347 939 379 1011 347 979 z "},"į":{"ha":400,"x_min":0,"x_max":0,"o":"m 153 33 b 167 14 153 18 156 14 l 176 14 b 54 -136 125 -6 54 -50 b 190 -283 54 -244 119 -283 b 261 -281 228 -283 261 -281 b 283 -258 278 -279 283 -275 l 283 -242 b 261 -222 283 -226 278 -222 b 199 -225 238 -224 222 -225 b 119 -121 156 -225 119 -203 b 238 0 119 -44 207 -6 b 257 22 251 0 257 6 l 257 685 b 235 707 257 701 253 707 l 174 707 b 153 685 157 707 153 701 z m 132 939 b 204 867 132 899 164 867 b 276 939 244 867 276 899 b 204 1011 276 979 244 1011 b 132 939 164 1011 132 979 z "},"Ī":{"ha":415,"x_min":0,"x_max":0,"o":"m 153 22 b 175 0 153 6 158 0 l 242 0 b 263 22 258 0 263 6 l 263 950 b 242 972 263 967 258 972 l 175 972 b 153 950 158 972 153 967 z m 375 1176 b 397 1197 392 1176 397 1182 l 397 1233 b 375 1256 397 1250 392 1256 l 40 1256 b 18 1233 24 1256 18 1250 l 18 1199 b 40 1176 18 1182 24 1176 z "},"ī":{"ha":406,"x_min":0,"x_max":0,"o":"m 150 22 b 172 0 150 6 156 0 l 232 0 b 254 22 249 0 254 6 l 254 685 b 232 707 254 701 250 707 l 172 707 b 150 685 156 707 150 701 z m 371 911 b 393 932 388 911 393 917 l 393 968 b 371 990 393 985 388 990 l 36 990 b 14 968 19 990 14 985 l 14 933 b 36 911 14 917 19 911 z "},"ż":{"ha":678,"x_min":0,"x_max":0,"o":"m 610 0 b 632 22 626 0 632 6 l 632 71 b 610 93 632 89 626 93 l 206 93 l 619 665 b 628 688 625 675 628 679 l 628 696 b 615 707 628 704 625 707 l 103 707 b 81 685 86 707 81 701 l 81 636 b 103 614 81 619 86 614 l 468 614 l 53 40 b 44 19 47 32 44 29 l 44 11 b 56 0 44 1 49 0 z m 286 939 b 358 867 286 899 318 867 b 432 939 399 867 432 899 b 358 1011 432 979 399 1011 b 286 939 318 1011 286 979 z "},"Ż":{"ha":863,"x_min":0,"x_max":0,"o":"m 783 0 b 806 22 800 0 806 6 l 806 74 b 783 96 806 92 799 96 l 213 96 l 815 931 b 824 951 822 942 824 943 l 824 961 b 811 972 824 969 821 972 l 107 972 b 85 950 90 972 85 967 l 85 899 b 107 876 85 882 90 876 l 656 876 l 51 40 b 43 21 46 32 43 31 l 43 11 b 54 0 43 1 47 0 z m 375 1204 b 447 1132 375 1164 407 1132 b 521 1204 488 1132 521 1164 b 447 1276 521 1244 488 1276 b 375 1204 407 1276 375 1244 z "},"Ģ":{"ha":1049,"x_min":0,"x_max":0,"o":"m 578 -315 b 464 -482 571 -375 536 -436 b 460 -499 456 -487 456 -492 l 479 -528 b 494 -529 482 -533 489 -533 b 654 -257 590 -476 654 -389 b 569 -153 654 -192 618 -153 b 489 -235 524 -153 489 -190 b 568 -315 489 -279 524 -315 z m 564 893 b 851 772 676 893 788 836 b 883 772 865 760 874 761 l 925 818 b 928 849 936 831 940 836 b 564 990 835 936 699 990 b 69 486 290 990 69 763 b 564 -18 69 210 290 -18 b 938 128 700 -18 846 38 b 960 178 953 143 960 156 l 960 485 b 939 507 960 500 956 507 l 585 507 b 563 485 568 507 563 501 l 563 432 b 585 411 563 415 568 411 l 850 411 l 850 186 b 564 79 783 126 686 79 b 181 486 347 79 181 278 b 564 893 181 696 347 893 z "},"þ":{"ha":904,"x_min":0,"x_max":0,"o":"m 510 0 b 838 353 696 0 838 150 b 510 707 838 554 696 707 l 239 707 l 239 968 b 217 990 239 985 235 990 l 157 990 b 135 968 140 990 135 985 l 135 -261 b 157 -283 135 -278 140 -283 l 217 -283 b 239 -261 233 -283 239 -278 l 239 0 z m 239 94 l 239 614 l 488 614 b 733 353 617 614 733 515 b 488 94 733 192 617 94 z "},"Ŗ":{"ha":928,"x_min":0,"x_max":0,"o":"m 494 -315 b 381 -482 488 -375 453 -436 b 375 -499 372 -487 372 -492 l 394 -528 b 410 -529 399 -533 404 -533 b 571 -257 507 -476 571 -389 b 485 -153 571 -192 533 -153 b 404 -235 439 -153 404 -190 b 485 -315 404 -279 439 -315 z m 828 681 b 490 972 828 906 649 972 l 160 972 b 138 950 143 972 138 967 l 138 22 b 160 0 138 3 143 0 l 225 0 b 247 22 242 0 247 4 l 247 381 l 496 381 l 751 22 b 789 0 761 8 772 0 l 854 0 b 871 26 871 0 882 8 l 610 393 b 828 681 739 428 828 515 z m 247 475 l 247 878 l 483 878 b 721 681 626 878 721 819 b 483 475 721 554 649 475 z "},"Ķ":{"ha":906,"x_min":0,"x_max":0,"o":"m 347 508 l 836 950 b 828 972 849 965 842 972 l 739 972 b 700 950 722 972 717 967 l 254 546 l 254 950 b 232 972 254 968 249 972 l 165 972 b 143 950 149 972 143 967 l 143 22 b 165 0 143 6 149 0 l 232 0 b 254 22 249 0 254 4 l 254 467 l 725 22 b 761 0 740 6 747 0 l 856 0 b 863 22 868 0 878 6 z m 489 -315 b 374 -482 481 -375 446 -436 b 369 -499 367 -487 365 -492 l 389 -528 b 404 -529 393 -533 399 -533 b 564 -257 501 -476 564 -389 b 479 -153 564 -192 528 -153 b 399 -235 433 -153 399 -190 b 478 -315 399 -279 433 -315 z "},"ķ":{"ha":765,"x_min":0,"x_max":0,"o":"m 351 375 l 689 685 b 682 707 700 696 696 707 l 588 707 b 551 685 572 707 565 701 l 239 397 l 239 982 b 217 1004 239 999 235 1004 l 157 1004 b 135 982 140 1004 135 999 l 135 22 b 157 0 135 6 140 0 l 217 0 b 239 22 233 0 239 6 l 239 346 l 571 22 b 606 0 585 6 592 0 l 700 0 b 708 22 713 0 724 6 z m 414 -315 b 300 -482 407 -375 372 -436 b 296 -499 292 -487 292 -492 l 314 -528 b 331 -529 318 -533 324 -533 b 490 -257 426 -476 490 -389 b 406 -153 490 -192 453 -153 b 325 -235 358 -153 325 -190 b 404 -315 325 -279 360 -315 z "},"ĸ":{"ha":765,"x_min":0,"x_max":0,"o":"m 351 375 l 689 685 b 682 707 700 696 696 707 l 588 707 b 551 685 572 707 565 701 l 239 397 l 239 685 b 217 707 239 701 235 707 l 157 707 b 135 685 140 707 135 701 l 135 22 b 157 0 135 6 140 0 l 217 0 b 239 22 233 0 239 6 l 239 346 l 571 22 b 606 0 585 6 592 0 l 700 0 b 708 22 713 0 724 6 z "},"Ș":{"ha":888,"x_min":0,"x_max":0,"o":"m 471 -315 b 357 -482 464 -375 429 -436 b 353 -499 349 -487 349 -492 l 372 -528 b 388 -529 375 -533 382 -533 b 547 -257 483 -476 547 -389 b 463 -153 547 -192 511 -153 b 382 -235 417 -153 382 -190 b 461 -315 382 -279 417 -315 z m 456 890 b 733 799 553 890 644 858 b 764 808 747 788 756 793 l 790 851 b 783 882 796 865 799 874 b 442 988 678 946 585 988 b 92 697 172 988 92 804 b 419 446 92 513 268 467 b 706 268 601 421 706 383 b 444 82 706 124 572 82 b 136 175 340 82 225 114 b 104 167 119 185 114 182 l 78 122 b 83 92 69 107 69 100 b 458 -15 189 18 311 -15 b 813 272 697 -15 813 124 b 481 538 813 458 660 514 b 199 700 328 557 199 586 b 456 890 199 772 244 890 z "},"ș":{"ha":706,"x_min":0,"x_max":0,"o":"m 378 -315 b 263 -482 371 -375 336 -436 b 258 -499 256 -487 254 -492 l 278 -528 b 293 -529 282 -533 288 -533 b 453 -257 390 -476 453 -389 b 368 -153 453 -192 417 -153 b 288 -235 322 -153 288 -190 b 367 -315 288 -279 322 -315 z m 354 69 b 119 147 263 69 181 104 b 89 139 103 160 96 153 l 69 104 b 74 74 61 89 61 82 b 360 -15 176 6 286 -15 b 644 204 539 -15 644 76 b 374 403 644 339 511 383 b 178 511 247 421 178 435 b 351 638 178 588 235 638 b 569 571 442 638 494 617 b 600 581 586 560 593 567 l 618 614 b 611 644 625 626 628 635 b 346 722 514 704 418 722 b 79 506 182 722 79 638 b 349 310 79 360 211 328 b 544 199 475 292 544 260 b 354 69 544 128 489 69 z "},"Ş":{"ha":881,"x_min":0,"x_max":0,"o":"m 449 890 b 726 799 547 890 638 858 b 757 808 742 788 749 793 l 783 851 b 775 883 790 865 792 874 b 435 988 671 946 578 988 b 85 697 165 988 85 804 b 414 446 85 513 263 467 b 699 268 594 421 699 383 b 438 82 699 124 567 82 b 135 175 333 82 224 114 b 104 167 119 185 113 182 l 76 122 b 86 89 68 107 68 100 b 392 -12 183 24 279 -4 l 367 -133 b 382 -151 367 -146 371 -151 l 435 -151 b 525 -221 500 -151 525 -174 b 458 -281 525 -264 499 -281 b 356 -247 424 -281 390 -272 b 335 -250 346 -242 342 -240 l 319 -269 b 324 -292 313 -276 314 -285 b 453 -343 367 -324 407 -343 b 589 -221 538 -343 589 -294 b 433 -93 589 -136 532 -93 l 444 -15 b 806 272 696 -15 806 125 b 475 538 806 458 653 514 b 192 700 322 557 192 586 b 449 890 192 772 239 890 z "},"ş":{"ha":706,"x_min":0,"x_max":0,"o":"m 286 -132 b 301 -150 286 -144 290 -150 l 354 -150 b 444 -219 419 -150 444 -172 b 378 -279 444 -262 418 -279 b 275 -246 343 -279 311 -268 b 254 -249 265 -240 261 -239 l 239 -268 b 243 -290 232 -275 233 -283 b 372 -342 286 -322 326 -342 b 508 -219 457 -342 508 -293 b 353 -92 508 -132 451 -92 l 364 -15 b 644 204 544 -12 644 79 b 374 403 644 339 525 381 b 178 511 247 421 178 435 b 351 638 178 588 236 638 b 576 565 442 638 501 611 b 607 575 593 556 600 563 l 625 610 b 618 640 631 622 635 629 b 346 722 522 703 419 722 b 79 506 182 722 79 638 b 349 310 79 360 211 328 b 544 199 475 292 544 260 b 354 69 544 128 489 69 b 119 147 263 69 181 103 b 89 139 103 160 96 153 l 69 104 b 74 74 61 89 61 82 b 311 -12 165 13 244 -3 z "},"Ā":{"ha":989,"x_min":0,"x_max":0,"o":"m 497 806 l 701 353 l 292 353 l 496 806 z m 515 976 b 499 996 510 988 506 996 l 494 996 b 476 976 486 996 483 988 l 24 22 b 36 0 18 10 24 0 l 117 0 b 146 22 132 0 138 6 l 254 258 l 739 258 l 847 22 b 875 0 856 6 861 0 l 956 0 b 969 22 969 0 975 10 z m 665 1176 b 688 1197 682 1176 688 1182 l 688 1233 b 665 1256 688 1250 682 1256 l 331 1256 b 308 1233 314 1256 308 1250 l 308 1199 b 331 1176 308 1182 314 1176 z "},"ā":{"ha":779,"x_min":0,"x_max":0,"o":"m 165 608 b 379 631 218 618 290 631 b 576 392 525 631 576 567 b 351 440 506 421 425 440 b 67 215 181 440 67 367 b 314 -15 67 67 181 -15 b 593 117 464 -15 556 65 l 599 22 b 619 0 603 6 608 0 l 660 0 b 681 22 675 0 681 6 l 681 389 b 383 722 681 618 617 722 b 144 697 276 722 161 701 b 128 669 128 692 124 685 l 139 628 b 165 608 143 611 147 604 z m 372 363 b 576 313 451 363 506 342 l 576 197 b 346 67 532 132 442 67 b 171 215 233 67 171 129 b 372 363 171 310 240 363 z m 558 911 b 581 932 575 911 581 917 l 581 968 b 558 990 581 985 575 990 l 224 990 b 201 968 207 990 201 985 l 201 933 b 224 911 201 917 207 911 z "},"Ė":{"ha":881,"x_min":0,"x_max":0,"o":"m 767 0 b 788 22 783 0 788 6 l 788 74 b 767 96 788 90 783 96 l 236 96 l 236 443 l 742 443 b 764 465 758 443 764 449 l 764 517 b 742 539 764 533 758 539 l 236 539 l 236 876 l 767 876 b 788 899 782 876 788 882 l 788 950 b 767 972 788 967 782 972 l 149 972 b 126 950 132 972 126 967 l 126 22 b 149 0 126 6 132 0 z m 393 1204 b 465 1132 393 1164 425 1132 b 539 1204 506 1132 539 1164 b 465 1276 539 1244 506 1276 b 393 1204 425 1276 393 1244 z "},"ħ":{"ha":838,"x_min":0,"x_max":0,"o":"m 154 867 l 76 867 b 54 846 60 867 54 861 l 54 814 b 76 793 54 799 60 793 l 154 793 l 154 22 b 175 0 154 6 160 0 l 238 0 b 258 22 253 0 258 6 l 258 353 b 456 628 258 501 342 628 b 638 375 568 628 638 544 l 638 22 b 658 0 638 6 643 0 l 721 0 b 742 22 736 0 742 6 l 742 403 b 476 722 742 629 635 722 b 258 571 357 722 282 618 l 258 793 l 431 793 b 453 814 447 793 453 799 l 453 846 b 431 867 453 861 447 867 l 258 867 l 258 982 b 238 1004 258 999 251 1004 l 175 1004 b 154 982 160 1004 154 999 z "},"Ç":{"ha":997,"x_min":0,"x_max":0,"o":"m 478 -136 b 493 -154 478 -149 481 -154 l 546 -154 b 636 -224 610 -154 636 -176 b 569 -283 636 -267 610 -283 b 467 -250 533 -283 501 -275 b 444 -253 456 -244 451 -243 l 431 -272 b 433 -294 422 -279 425 -287 b 563 -346 475 -326 517 -346 b 699 -224 647 -346 699 -297 b 543 -96 699 -139 646 -96 l 554 -18 b 931 125 703 -17 842 38 b 932 158 943 138 943 146 l 890 203 b 860 204 881 213 872 215 b 567 79 794 136 696 79 b 181 486 350 79 181 276 b 567 893 181 696 350 893 b 857 771 696 893 796 836 b 889 772 868 760 878 760 l 929 817 b 931 847 940 829 942 836 b 567 990 842 936 701 990 b 69 486 293 990 69 763 b 501 -14 69 242 263 21 z "},"˘":{"ha":492,"x_min":0,"x_max":0,"o":"m 246 854 b 442 978 321 854 400 879 b 436 1010 447 992 449 1004 l 401 1028 b 378 1018 390 1033 383 1031 b 246 926 349 950 317 926 b 113 1018 175 926 142 950 b 89 1028 107 1031 101 1033 l 54 1010 b 50 978 43 1004 43 992 b 246 854 92 879 171 854 z "},"Ă":{"ha":989,"x_min":0,"x_max":0,"o":"m 497 806 l 701 353 l 292 353 l 496 806 z m 515 976 b 499 996 510 988 506 996 l 494 996 b 476 976 486 996 483 988 l 24 22 b 36 0 18 10 24 0 l 117 0 b 146 22 132 0 138 6 l 254 258 l 739 258 l 847 22 b 875 0 856 6 861 0 l 956 0 b 969 22 969 0 975 10 z m 497 1119 b 693 1243 572 1119 651 1144 b 688 1275 699 1257 700 1269 l 653 1293 b 629 1283 642 1299 635 1296 b 497 1192 600 1215 568 1192 b 364 1283 426 1192 393 1215 b 340 1293 358 1296 353 1299 l 306 1275 b 301 1243 294 1269 294 1257 b 497 1119 343 1144 422 1119 z "},"ă":{"ha":779,"x_min":0,"x_max":0,"o":"m 165 608 b 379 631 218 618 290 631 b 576 392 525 631 576 567 b 351 440 506 421 425 440 b 67 215 181 440 67 367 b 314 -15 67 67 181 -15 b 593 117 464 -15 556 65 l 599 22 b 619 0 603 6 608 0 l 660 0 b 681 22 675 0 681 6 l 681 389 b 383 722 681 618 617 722 b 144 697 276 722 161 701 b 128 669 128 692 124 685 l 139 628 b 165 608 143 611 147 604 z m 372 363 b 576 313 451 363 506 342 l 576 197 b 346 67 532 132 442 67 b 171 215 233 67 171 129 b 372 363 171 310 240 363 z m 394 854 b 590 978 469 854 549 879 b 585 1010 596 992 597 1004 l 550 1028 b 526 1018 539 1033 532 1031 b 394 926 497 950 465 926 b 261 1018 324 926 290 950 b 238 1028 256 1031 250 1033 l 203 1010 b 199 978 192 1004 192 992 b 394 854 240 879 319 854 z "},"Ğ":{"ha":1049,"x_min":0,"x_max":0,"o":"m 564 893 b 181 486 347 893 181 696 b 564 79 181 278 347 79 b 850 186 686 79 783 126 l 850 411 l 585 411 b 563 432 568 411 563 415 l 563 485 b 585 507 563 501 568 507 l 939 507 b 960 485 956 507 960 500 l 960 178 b 938 128 960 156 953 143 b 564 -18 846 38 700 -18 b 69 486 290 -18 69 210 b 564 990 69 763 290 990 b 928 849 699 990 835 936 b 925 818 940 836 936 831 l 883 772 b 851 772 874 761 865 760 b 564 893 788 836 676 893 z m 540 1119 b 736 1243 615 1119 694 1144 b 731 1275 742 1257 743 1269 l 696 1293 b 672 1283 685 1299 678 1296 b 540 1192 643 1215 611 1192 b 407 1283 469 1192 436 1215 b 383 1293 401 1296 396 1299 l 349 1275 b 344 1243 338 1269 338 1257 b 540 1119 386 1144 465 1119 z "},"Ŭ":{"ha":994,"x_min":0,"x_max":0,"o":"m 497 -18 b 890 400 724 -18 890 124 l 890 950 b 869 972 890 967 886 972 l 803 972 b 781 950 786 972 781 967 l 781 407 b 497 79 781 176 664 79 b 214 407 331 79 214 176 l 214 950 b 192 972 214 967 208 972 l 126 972 b 104 950 110 972 104 968 l 104 400 b 497 -18 104 124 271 -18 z m 499 1119 b 694 1243 574 1119 653 1144 b 689 1275 700 1257 701 1269 l 654 1293 b 631 1283 643 1299 636 1296 b 499 1192 601 1215 569 1192 b 365 1283 428 1192 394 1215 b 342 1293 360 1296 354 1299 l 307 1275 b 303 1243 296 1269 296 1257 b 499 1119 344 1144 424 1119 z "},"ŭ":{"ha":840,"x_min":0,"x_max":0,"o":"m 613 147 b 375 -15 583 92 511 -15 b 100 297 226 -15 100 75 l 100 685 b 121 707 100 701 106 707 l 183 707 b 204 685 199 707 204 701 l 204 325 b 400 79 204 160 288 79 b 599 335 521 79 599 196 l 599 685 b 619 707 599 701 604 707 l 682 707 b 703 685 697 707 703 701 l 703 340 l 703 22 b 682 0 703 6 697 0 l 647 0 b 624 22 636 0 631 6 z m 406 854 b 601 978 481 854 560 879 b 596 1010 607 992 608 1004 l 561 1028 b 538 1018 550 1033 543 1031 b 406 926 508 950 476 926 b 272 1018 335 926 301 950 b 249 1028 267 1031 261 1033 l 214 1010 b 210 978 203 1004 203 992 b 406 854 251 879 331 854 z "},"Ŏ":{"ha":1133,"x_min":0,"x_max":0,"o":"m 69 486 b 567 -18 69 210 293 -18 b 1064 486 840 -18 1064 210 b 567 990 1064 763 840 990 b 69 486 293 990 69 763 z m 181 486 b 567 893 181 696 350 893 b 953 486 786 893 953 696 b 567 79 953 278 786 79 b 181 486 350 79 181 278 z m 567 1119 b 763 1243 642 1119 721 1144 b 757 1275 768 1257 769 1269 l 722 1293 b 699 1283 711 1299 704 1296 b 567 1192 669 1215 638 1192 b 433 1283 496 1192 463 1215 b 410 1293 428 1296 422 1299 l 375 1275 b 371 1243 364 1269 364 1257 b 567 1119 413 1144 492 1119 z "},"ŏ":{"ha":864,"x_min":0,"x_max":0,"o":"m 67 353 b 432 -15 67 150 229 -15 b 797 353 635 -15 797 150 b 432 722 797 556 635 722 b 67 353 229 722 67 556 z m 432 78 b 171 353 288 78 171 200 b 432 628 171 506 288 628 b 694 353 578 628 694 506 b 432 78 694 200 578 78 z m 433 854 b 629 978 508 854 588 879 b 624 1010 635 992 636 1004 l 589 1028 b 565 1018 578 1033 571 1031 b 433 926 536 950 504 926 b 300 1018 363 926 329 950 b 276 1028 294 1031 289 1033 l 242 1010 b 238 978 231 1004 231 992 b 433 854 279 879 358 854 z "},"Ĕ":{"ha":881,"x_min":0,"x_max":0,"o":"m 767 0 b 788 22 783 0 788 6 l 788 74 b 767 96 788 90 783 96 l 236 96 l 236 443 l 742 443 b 764 465 758 443 764 449 l 764 517 b 742 539 764 533 758 539 l 236 539 l 236 876 l 767 876 b 788 899 782 876 788 882 l 788 950 b 767 972 788 967 782 972 l 149 972 b 126 950 132 972 126 967 l 126 22 b 149 0 126 6 132 0 z m 457 1119 b 653 1243 532 1119 611 1144 b 647 1275 658 1257 660 1269 l 613 1293 b 589 1283 601 1299 594 1296 b 457 1192 560 1215 528 1192 b 324 1283 386 1192 353 1215 b 300 1293 318 1296 313 1299 l 265 1275 b 261 1243 254 1269 254 1257 b 457 1119 303 1144 382 1119 z "},"ĕ":{"ha":833,"x_min":0,"x_max":0,"o":"m 718 113 b 718 82 728 100 728 92 b 438 -15 653 18 540 -15 b 67 353 228 -15 67 150 b 431 722 67 556 228 722 b 774 339 647 722 774 547 b 753 317 774 322 771 317 l 174 317 b 442 76 183 188 301 76 b 660 146 510 76 593 97 b 692 144 675 154 681 157 z m 667 389 b 429 635 661 514 571 635 b 176 389 286 635 181 514 z m 429 854 b 625 978 504 854 583 879 b 619 1010 631 992 632 1004 l 585 1028 b 561 1018 574 1033 567 1031 b 429 926 532 950 500 926 b 296 1018 358 926 325 950 b 272 1028 290 1031 285 1033 l 238 1010 b 233 978 226 1004 226 992 b 429 854 275 879 354 854 z "},"Ņ":{"ha":1078,"x_min":0,"x_max":0,"o":"m 558 -315 b 444 -482 551 -375 517 -436 b 439 -499 436 -487 436 -492 l 458 -528 b 474 -529 463 -533 468 -533 b 635 -257 571 -476 635 -389 b 549 -153 635 -192 597 -153 b 468 -235 503 -153 468 -190 b 549 -315 468 -279 503 -315 z m 251 769 l 897 -7 b 918 -18 906 -15 911 -18 l 925 -18 b 936 -7 933 -18 936 -17 l 936 950 b 915 972 936 968 932 972 l 849 972 b 826 950 832 972 826 968 l 826 208 l 179 981 b 161 990 174 988 169 990 l 154 990 b 142 979 144 990 142 989 l 142 22 b 164 0 142 6 147 0 l 229 0 b 251 22 246 0 251 6 z "},"ņ":{"ha":840,"x_min":0,"x_max":0,"o":"m 458 -315 b 343 -482 450 -375 415 -436 b 339 -499 336 -487 335 -492 l 358 -528 b 374 -529 363 -533 368 -533 b 533 -257 471 -476 533 -389 b 449 -153 533 -192 497 -153 b 368 -235 403 -153 368 -190 b 447 -315 368 -279 403 -315 z m 217 685 b 193 707 210 701 204 707 l 158 707 b 138 685 143 707 138 701 l 138 367 l 138 22 b 158 0 138 6 143 0 l 221 0 b 242 22 236 0 242 6 l 242 372 b 440 628 242 511 319 628 b 636 382 553 628 636 547 l 636 22 b 657 0 636 6 642 0 l 719 0 b 740 22 735 0 740 6 l 740 410 b 465 722 740 632 614 722 b 228 560 329 722 257 615 z "},"đ":{"ha":876,"x_min":0,"x_max":0,"o":"m 817 794 b 839 815 833 794 839 800 l 839 847 b 817 868 839 863 833 868 l 749 868 l 749 982 b 728 1004 749 999 743 1004 l 665 1004 b 644 982 649 1004 644 999 l 644 868 l 490 868 b 469 847 474 868 469 863 l 469 815 b 490 794 469 800 475 794 l 644 794 l 644 560 b 388 722 626 599 551 722 b 67 354 193 722 67 557 b 388 -15 67 153 193 -15 b 660 151 551 -15 625 99 l 671 22 b 694 0 676 6 682 0 l 728 0 b 749 22 743 0 749 6 l 749 794 z m 407 78 b 171 354 263 78 171 200 b 407 628 171 497 263 628 b 644 353 553 628 644 492 b 407 78 644 215 553 78 z "},"Ð":{"ha":1111,"x_min":0,"x_max":0,"o":"m 51 539 b 29 517 35 539 29 533 l 29 469 b 51 447 29 453 35 447 l 196 447 l 196 22 b 218 0 196 6 203 0 l 558 0 b 1042 486 832 0 1042 210 b 558 972 1042 763 832 972 l 218 972 b 196 950 201 972 196 967 l 196 539 z m 557 878 b 931 486 783 878 931 696 b 557 94 931 278 783 94 l 306 94 l 306 447 l 540 447 b 563 469 557 447 563 453 l 563 517 b 540 539 563 533 557 539 l 306 539 l 306 878 z "},"ø":{"ha":861,"x_min":0,"x_max":0,"o":"m 64 353 b 222 49 64 229 128 114 l 178 -40 b 197 -62 171 -56 178 -62 l 232 -62 b 263 -42 249 -62 256 -56 l 288 14 b 429 -15 324 0 371 -15 b 794 353 632 -15 794 150 b 626 663 794 489 724 599 l 674 747 b 656 769 681 761 674 769 l 619 769 b 589 750 601 769 594 761 l 558 697 b 429 722 518 715 467 722 b 64 353 226 722 64 556 z m 429 78 b 332 100 381 78 343 94 l 579 572 b 690 353 628 532 690 465 b 429 78 690 200 574 78 z m 167 353 b 429 628 167 506 283 628 b 514 611 458 628 489 621 l 269 140 b 167 353 240 168 167 232 z "},"˝":{"ha":500,"x_min":0,"x_max":0,"o":"m 260 951 b 267 992 275 968 276 978 l 254 1011 b 225 1017 244 1026 235 1028 l 54 821 b 57 796 39 804 44 796 l 106 796 b 144 813 121 796 138 803 z m 449 951 b 454 992 463 968 464 978 l 442 1011 b 413 1017 432 1026 422 1028 l 242 821 b 246 796 228 804 232 796 l 293 796 b 332 813 308 796 325 803 z "},"Ű":{"ha":994,"x_min":0,"x_max":0,"o":"m 497 -18 b 890 400 724 -18 890 124 l 890 950 b 869 972 890 967 886 972 l 803 972 b 781 950 786 972 781 967 l 781 407 b 497 79 781 176 664 79 b 214 407 331 79 214 176 l 214 950 b 192 972 214 967 208 972 l 126 972 b 104 950 110 972 104 968 l 104 400 b 497 -18 104 124 271 -18 z m 538 1217 b 544 1257 553 1233 554 1243 l 532 1276 b 503 1282 522 1292 513 1293 l 332 1086 b 335 1061 317 1069 322 1061 l 383 1061 b 422 1078 399 1061 415 1068 z m 726 1217 b 732 1257 740 1233 742 1243 l 719 1276 b 690 1282 710 1292 700 1293 l 519 1086 b 524 1061 506 1069 510 1061 l 571 1061 b 610 1078 586 1061 603 1068 z "},"ű":{"ha":840,"x_min":0,"x_max":0,"o":"m 613 147 b 375 -15 583 92 511 -15 b 100 297 226 -15 100 75 l 100 685 b 121 707 100 701 106 707 l 183 707 b 204 685 199 707 204 701 l 204 325 b 400 79 204 160 288 79 b 599 335 521 79 599 196 l 599 685 b 619 707 599 701 604 707 l 682 707 b 703 685 697 707 703 701 l 703 340 l 703 22 b 682 0 703 6 697 0 l 647 0 b 624 22 636 0 631 6 z m 451 951 b 458 992 467 968 468 978 l 446 1011 b 417 1017 436 1026 426 1028 l 246 821 b 249 796 231 804 236 796 l 297 796 b 336 813 313 796 329 803 z m 640 951 b 646 992 654 968 656 978 l 633 1011 b 604 1017 624 1026 614 1028 l 433 821 b 438 796 419 804 424 796 l 485 796 b 524 813 500 796 517 803 z "},"Ő":{"ha":1133,"x_min":0,"x_max":0,"o":"m 69 486 b 567 -18 69 210 293 -18 b 1064 486 840 -18 1064 210 b 567 990 1064 763 840 990 b 69 486 293 990 69 763 z m 181 486 b 567 893 181 696 350 893 b 953 486 786 893 953 696 b 567 79 953 278 786 79 b 181 486 350 79 181 278 z m 626 1217 b 633 1257 642 1233 643 1243 l 621 1276 b 592 1282 611 1292 601 1293 l 421 1086 b 424 1061 406 1069 411 1061 l 472 1061 b 511 1078 488 1061 504 1068 z m 815 1217 b 821 1257 829 1233 831 1243 l 808 1276 b 779 1282 799 1292 789 1293 l 608 1086 b 613 1061 594 1069 599 1061 l 660 1061 b 699 1078 675 1061 692 1068 z "},"ő":{"ha":864,"x_min":0,"x_max":0,"o":"m 67 353 b 432 -15 67 150 229 -15 b 797 353 635 -15 797 150 b 432 722 797 556 635 722 b 67 353 229 722 67 556 z m 432 78 b 171 353 288 78 171 200 b 432 628 171 506 288 628 b 694 353 578 628 694 506 b 432 78 694 200 578 78 z m 489 951 b 496 992 504 968 506 978 l 483 1011 b 454 1017 474 1026 464 1028 l 283 821 b 286 796 268 804 274 796 l 335 796 b 374 813 350 796 367 803 z m 678 951 b 683 992 692 968 693 978 l 671 1011 b 642 1017 661 1026 651 1028 l 471 821 b 475 796 457 804 461 796 l 522 796 b 561 813 538 796 554 803 z "},"ļ":{"ha":374,"x_min":0,"x_max":0,"o":"m 194 -315 b 81 -482 188 -375 153 -436 b 76 -499 72 -487 72 -492 l 94 -528 b 111 -529 99 -533 104 -533 b 271 -257 207 -476 271 -389 b 186 -153 271 -192 233 -153 b 106 -235 139 -153 106 -190 b 185 -315 106 -279 140 -315 z m 135 22 b 157 0 135 6 140 0 l 218 0 b 239 22 235 0 239 6 l 239 1003 b 218 1025 239 1019 235 1025 l 157 1025 b 135 1003 140 1025 135 1019 z "},"Ţ":{"ha":846,"x_min":0,"x_max":0,"o":"m 428 -315 b 314 -482 421 -375 386 -436 b 310 -499 306 -487 306 -492 l 328 -528 b 344 -529 332 -533 338 -533 b 504 -257 440 -476 504 -389 b 419 -153 504 -192 467 -153 b 339 -235 372 -153 339 -190 b 418 -315 339 -279 374 -315 z m 36 972 b 14 950 19 972 14 967 l 14 894 b 36 872 14 878 18 872 l 368 872 l 368 22 b 390 0 368 6 372 0 l 457 0 b 478 22 474 0 478 6 l 478 872 l 811 872 b 832 894 828 872 832 878 l 832 950 b 811 972 832 967 829 972 z "},"ţ":{"ha":608,"x_min":0,"x_max":0,"o":"m 269 -315 b 154 -482 263 -375 228 -436 b 150 -499 147 -487 146 -492 l 169 -528 b 185 -529 174 -533 179 -533 b 344 -257 282 -476 344 -389 b 260 -153 344 -192 308 -153 b 179 -235 214 -153 179 -190 b 258 -315 179 -279 214 -315 z m 539 18 b 549 44 551 25 553 31 l 540 89 b 513 100 535 108 531 110 b 417 79 478 82 456 79 b 257 301 306 79 257 139 l 257 621 l 508 621 b 529 643 525 621 529 626 l 529 685 b 508 707 529 703 524 707 l 257 707 l 257 850 b 236 872 257 867 253 872 l 175 872 b 154 850 158 872 154 867 l 154 707 l 86 707 b 64 685 69 707 64 703 l 64 643 b 86 621 64 626 69 621 l 154 621 l 154 293 b 406 -15 154 100 222 -15 b 539 18 424 -15 483 -15 z "},"ŗ":{"ha":551,"x_min":0,"x_max":0,"o":"m 189 -315 b 75 -482 182 -375 147 -436 b 71 -499 67 -487 67 -492 l 89 -528 b 106 -529 93 -533 99 -533 b 265 -257 201 -476 265 -389 b 181 -153 265 -192 228 -153 b 100 -235 133 -153 100 -190 b 179 -315 100 -279 135 -315 z m 486 619 b 511 640 503 619 507 624 l 519 703 b 500 722 522 717 519 722 b 211 546 303 722 239 604 l 194 685 b 171 707 188 701 182 707 l 136 707 b 115 685 121 707 115 701 l 115 22 b 136 0 115 6 121 0 l 199 0 b 219 22 214 0 219 6 l 219 364 b 486 619 219 493 306 619 z "},"ŉ":{"ha":835,"x_min":0,"x_max":0,"o":"m 107 1017 b -7 849 100 957 65 896 b -12 833 -15 843 -15 840 l 7 803 b 22 801 11 797 17 799 b 183 1074 119 854 183 942 b 97 1178 183 1140 146 1178 b 17 1097 51 1178 17 1142 b 97 1017 17 1051 51 1017 z m 222 560 b 460 722 251 615 324 722 b 735 410 608 722 735 632 l 735 22 b 714 0 735 6 729 0 l 651 0 b 631 22 636 0 631 6 l 631 382 b 435 628 631 547 547 628 b 236 372 314 628 236 511 l 236 22 b 215 0 236 6 231 0 l 153 0 b 132 22 138 0 132 6 l 132 367 l 132 685 b 153 707 132 701 138 707 l 188 707 b 211 685 199 707 204 701 z "},"Ł":{"ha":818,"x_min":0,"x_max":0,"o":"m 267 96 l 267 400 l 563 507 b 575 535 578 513 581 518 l 567 561 b 539 575 560 576 554 581 l 267 476 l 267 950 b 246 972 267 967 263 972 l 179 972 b 157 950 163 972 157 967 l 157 438 l 44 397 b 31 369 28 392 25 385 l 40 343 b 68 329 46 328 51 324 l 157 361 l 157 22 b 179 0 157 6 163 0 l 751 0 b 772 22 768 0 772 6 l 772 74 b 751 96 772 90 768 96 z "},"Ț":{"ha":846,"x_min":0,"x_max":0,"o":"m 428 -315 b 314 -482 421 -375 386 -436 b 310 -499 306 -487 306 -492 l 328 -528 b 344 -529 332 -533 338 -533 b 504 -257 440 -476 504 -389 b 419 -153 504 -192 467 -153 b 339 -235 372 -153 339 -190 b 418 -315 339 -279 374 -315 z m 36 972 b 14 950 19 972 14 967 l 14 894 b 36 872 14 878 18 872 l 368 872 l 368 22 b 390 0 368 6 372 0 l 457 0 b 478 22 474 0 478 6 l 478 872 l 811 872 b 832 894 828 872 832 878 l 832 950 b 811 972 832 967 829 972 z "},"ł":{"ha":488,"x_min":0,"x_max":0,"o":"m 190 22 b 211 0 190 6 194 0 l 272 0 b 294 22 289 0 294 6 l 294 432 l 456 490 b 468 518 471 496 474 501 l 460 544 b 432 558 453 560 447 563 l 294 508 l 294 982 b 272 1004 294 999 290 1004 l 211 1004 b 190 982 194 1004 190 999 l 190 472 l 33 415 b 19 388 17 410 15 403 l 29 361 b 57 347 33 346 40 342 l 190 396 z "},"ç":{"ha":751,"x_min":0,"x_max":0,"o":"m 354 -133 b 368 -151 354 -146 357 -151 l 422 -151 b 511 -221 485 -151 511 -174 b 446 -281 511 -264 485 -281 b 342 -247 410 -281 376 -272 b 321 -250 332 -242 328 -240 l 306 -269 b 310 -292 299 -276 301 -285 b 439 -343 353 -324 393 -343 b 575 -221 524 -343 575 -294 b 419 -93 575 -136 518 -93 l 431 -15 b 688 89 533 -14 621 22 b 688 118 699 99 699 106 l 654 153 b 625 157 644 165 636 168 b 432 79 578 110 508 79 b 169 353 286 79 169 199 b 432 628 169 506 286 628 b 625 550 508 628 578 597 b 654 554 636 539 644 542 l 688 589 b 688 618 699 601 699 608 b 431 722 617 689 526 722 b 67 353 228 722 67 556 b 378 -12 67 156 203 18 z "},"¸":{"ha":393,"x_min":0,"x_max":0,"o":"m 136 -14 l 113 -136 b 128 -154 113 -149 117 -154 l 181 -154 b 271 -224 244 -154 271 -176 b 204 -283 271 -267 244 -283 b 101 -250 168 -283 136 -275 b 79 -253 90 -244 88 -243 l 65 -272 b 68 -294 58 -279 60 -287 b 199 -346 110 -326 153 -346 b 335 -224 283 -346 335 -297 b 178 -96 335 -139 281 -96 l 189 -18 z "},"ð":{"ha":835,"x_min":0,"x_max":0,"o":"m 603 1015 b 594 1044 611 1029 608 1038 l 583 1051 b 554 1043 569 1060 563 1058 l 511 971 b 372 989 475 981 417 989 b 324 988 356 989 339 988 b 301 963 307 986 301 979 l 301 910 b 324 889 301 893 307 886 b 458 881 372 892 418 889 l 383 754 b 392 724 375 740 378 732 l 403 718 b 432 726 418 708 424 713 l 513 860 b 657 461 619 792 657 643 b 368 635 614 558 517 635 b 56 331 203 635 56 532 b 392 -18 56 140 179 -18 b 765 428 679 -18 765 156 b 563 949 765 689 711 865 z m 396 76 b 164 325 242 76 164 193 b 396 544 164 461 271 544 b 646 313 524 544 646 435 b 396 76 646 228 604 76 z "},"Ę":{"ha":875,"x_min":0,"x_max":0,"o":"m 785 0 b 796 22 793 3 796 6 l 796 74 b 775 96 796 90 792 96 l 244 96 l 244 443 l 743 443 b 765 465 760 443 765 449 l 765 517 b 743 539 765 533 760 539 l 244 539 l 244 876 l 775 876 b 796 899 790 876 796 882 l 796 950 b 775 972 796 967 790 972 l 157 972 b 135 950 140 972 135 967 l 135 22 b 157 0 135 6 140 0 l 683 0 b 603 -136 646 -28 603 -67 b 739 -283 603 -244 668 -283 b 810 -281 776 -283 810 -281 b 832 -258 825 -279 832 -275 l 832 -242 b 810 -222 832 -226 825 -222 b 747 -225 786 -224 771 -225 b 667 -121 704 -225 667 -203 b 785 0 667 -44 754 -6 z "},"Ą":{"ha":989,"x_min":0,"x_max":0,"o":"m 849 19 b 722 -136 793 -3 722 -47 b 857 -283 722 -244 788 -283 b 929 -281 894 -283 929 -281 b 950 -258 944 -279 950 -275 l 950 -242 b 929 -222 950 -226 944 -222 b 867 -225 906 -224 890 -225 b 786 -121 826 -225 786 -203 b 911 0 786 -44 876 -6 l 956 0 b 969 22 969 0 975 10 l 515 979 b 499 996 510 988 506 996 l 494 996 b 476 976 486 996 483 988 l 24 22 b 36 0 18 10 24 0 l 117 0 b 146 22 132 0 138 6 l 254 258 l 739 258 z m 496 807 l 497 806 l 701 353 l 292 353 z "},"ą":{"ha":776,"x_min":0,"x_max":0,"o":"m 718 -281 b 739 -258 733 -279 739 -275 l 739 -242 b 718 -222 739 -226 733 -222 b 656 -225 694 -224 679 -225 b 558 -119 607 -225 558 -196 b 653 0 558 -50 625 -14 b 672 22 667 0 672 7 l 672 389 b 375 722 672 618 608 722 b 144 697 268 722 161 701 b 128 669 128 692 124 685 l 139 628 b 165 608 143 611 147 604 b 371 631 218 618 282 631 b 568 392 517 631 568 567 b 343 440 497 421 408 440 b 67 215 181 440 67 367 b 310 -15 67 67 185 -15 b 585 94 451 -15 539 51 l 590 51 b 596 18 592 38 594 28 b 496 -135 553 -7 496 -56 b 646 -283 496 -244 571 -283 b 718 -281 683 -283 718 -281 z m 364 363 b 568 313 435 363 497 342 l 568 175 b 342 67 524 129 429 67 b 171 215 239 67 171 129 b 364 363 171 310 240 363 z "},"Į":{"ha":415,"x_min":0,"x_max":0,"o":"m 153 33 b 168 14 153 21 156 14 l 178 14 b 56 -136 125 -6 56 -50 b 190 -283 56 -244 119 -283 b 263 -281 228 -283 263 -281 b 283 -258 278 -279 283 -275 l 283 -242 b 263 -222 283 -226 278 -222 b 200 -225 239 -224 224 -225 b 119 -121 157 -225 119 -203 b 238 0 119 -44 207 -6 l 240 0 b 263 22 257 0 263 6 l 263 950 b 240 972 263 967 258 972 l 175 972 b 153 950 158 972 153 967 z "},"ę":{"ha":833,"x_min":0,"x_max":0,"o":"m 461 -14 b 719 83 553 -11 657 22 b 718 113 728 92 728 100 l 692 144 b 660 146 681 157 675 154 b 442 76 593 97 510 76 b 174 317 301 76 183 188 l 753 317 b 774 339 771 317 774 322 l 774 354 b 431 722 774 547 647 722 b 67 353 228 722 67 556 b 389 -12 67 156 215 8 b 332 -135 356 -42 332 -83 b 485 -283 332 -244 410 -283 b 553 -281 522 -283 553 -281 b 575 -258 569 -279 575 -275 l 575 -242 b 553 -222 575 -226 569 -222 b 490 -225 529 -224 514 -225 b 394 -119 443 -225 394 -194 b 461 -14 394 -74 424 -37 z m 176 389 b 429 635 181 514 286 635 b 667 389 571 635 661 514 z "},"Ų":{"ha":994,"x_min":0,"x_max":0,"o":"m 388 -147 b 522 -294 388 -256 453 -294 b 594 -292 560 -294 594 -292 b 615 -269 610 -289 615 -285 l 615 -253 b 594 -233 615 -236 610 -233 b 532 -236 571 -235 556 -236 b 451 -132 489 -236 451 -214 b 546 -15 451 -78 493 -42 b 890 400 746 3 890 143 l 890 950 b 869 972 890 967 886 972 l 803 972 b 781 950 786 972 781 967 l 781 407 b 497 79 781 178 664 79 b 214 407 332 79 214 176 l 214 950 b 192 972 214 967 208 972 l 126 972 b 104 950 110 972 104 968 l 104 400 b 461 -17 104 150 243 -1 b 388 -147 422 -44 388 -85 z "},"˛":{"ha":317,"x_min":0,"x_max":0,"o":"m 171 19 b 44 -136 115 -3 44 -47 b 179 -283 44 -244 110 -283 b 251 -281 217 -283 251 -281 b 272 -258 267 -279 272 -275 l 272 -242 b 251 -222 272 -226 267 -222 b 189 -225 228 -224 213 -225 b 108 -121 149 -225 108 -203 b 233 0 108 -44 199 -6 z "},"ų":{"ha":867,"x_min":0,"x_max":0,"o":"m 629 19 l 626 18 b 501 -136 586 4 501 -46 b 636 -283 501 -244 567 -283 b 708 -281 674 -283 708 -281 b 729 -258 724 -279 729 -275 l 729 -242 b 708 -222 729 -226 724 -222 b 646 -225 675 -225 669 -225 b 565 -121 603 -225 565 -196 b 683 0 565 -40 651 -8 b 703 22 697 0 703 6 l 703 685 b 682 707 703 701 697 707 l 619 707 b 599 685 604 707 599 701 l 599 335 b 400 79 599 196 521 79 b 204 325 288 79 204 160 l 204 685 b 183 707 203 701 199 707 l 121 707 b 100 685 106 707 100 701 l 100 297 b 375 -15 100 75 226 -15 b 613 147 511 -15 583 92 z "},"¿":{"ha":718,"x_min":0,"x_max":0,"o":"m 424 43 b 121 -167 251 11 121 -49 b 386 -369 121 -274 218 -369 b 642 -274 472 -369 550 -335 b 671 -283 656 -264 663 -268 l 699 -328 b 692 -358 706 -340 706 -350 b 381 -467 611 -411 506 -467 b 14 -172 119 -467 14 -306 b 342 107 14 1 164 68 l 342 210 b 364 232 342 226 347 232 l 418 232 b 439 210 435 232 439 226 l 439 61 b 424 43 439 49 435 44 z m 474 457 b 393 538 474 503 438 538 b 311 457 347 538 311 503 b 393 375 311 413 347 375 b 474 457 438 375 474 413 z "},"Ħ":{"ha":1031,"x_min":0,"x_max":0,"o":"m 1011 707 b 1032 728 1028 707 1032 711 l 1032 758 b 1011 781 1032 775 1028 781 l 899 781 l 899 950 b 876 972 899 967 893 972 l 810 972 b 789 950 793 972 789 967 l 789 781 l 242 781 l 242 950 b 219 972 242 967 236 972 l 154 972 b 132 950 138 972 132 967 l 132 781 l 19 781 b -3 758 3 781 -3 775 l -3 728 b 19 707 -3 711 3 707 l 132 707 l 132 22 b 154 0 132 6 138 0 l 219 0 b 242 22 236 0 242 6 l 242 439 l 789 439 l 789 22 b 810 0 789 6 793 0 l 876 0 b 899 22 893 0 899 6 l 899 707 z m 789 536 l 242 536 l 242 707 l 789 707 z "},"Å":{"ha":989,"x_min":0,"x_max":0,"o":"m 497 806 l 701 353 l 292 353 l 496 806 z m 515 976 b 499 996 510 988 506 996 l 494 996 b 476 976 486 996 483 988 l 24 22 b 36 0 18 10 24 0 l 117 0 b 146 22 132 0 138 6 l 254 258 l 739 258 l 847 22 b 875 0 856 6 861 0 l 956 0 b 969 22 969 0 975 10 z m 496 1069 b 643 1221 581 1069 643 1135 b 496 1372 643 1307 581 1372 b 349 1221 410 1372 349 1307 b 496 1069 349 1135 410 1069 z m 496 1125 b 408 1221 440 1125 408 1174 b 497 1315 408 1268 442 1315 b 583 1221 553 1315 583 1268 b 496 1125 583 1174 553 1125 z "},"ĵ":{"ha":567,"x_min":0,"x_max":0,"o":"m 72 642 b 94 619 72 626 79 619 l 286 619 l 286 586 l 286 -11 b 128 -233 286 -174 239 -233 b 26 -208 100 -233 60 -229 b 0 -221 8 -199 4 -200 l -10 -264 b 0 -292 -14 -281 -11 -285 b 138 -328 56 -328 119 -328 b 390 -18 321 -328 390 -212 l 390 685 b 368 707 390 701 386 707 l 94 707 b 72 685 79 707 72 701 z m 215 1046 b 185 1024 203 1046 194 1036 l 40 818 b 50 796 32 803 35 796 l 92 796 b 126 818 108 796 118 803 l 235 981 l 342 818 b 376 796 351 803 361 796 l 419 796 b 428 818 433 796 438 803 l 283 1024 b 254 1046 274 1036 267 1046 z "},"ñ":{"ha":840,"x_min":0,"x_max":0,"o":"m 228 560 b 465 722 257 615 329 722 b 740 410 614 722 740 632 l 740 22 b 719 0 740 6 735 0 l 657 0 b 636 22 642 0 636 6 l 636 382 b 440 628 636 547 553 628 b 242 372 319 628 242 511 l 242 22 b 221 0 242 6 236 0 l 158 0 b 138 22 143 0 138 6 l 138 367 l 138 685 b 158 707 138 701 143 707 l 193 707 b 217 685 204 707 210 701 z m 538 935 b 447 979 504 935 489 944 b 325 1028 408 1010 378 1028 b 181 917 236 1028 200 967 b 190 885 174 900 174 893 l 218 874 b 249 888 235 867 242 872 b 333 953 268 936 292 953 b 426 906 365 953 386 939 b 544 860 464 874 492 860 b 690 971 633 860 669 921 b 681 1003 697 988 697 996 l 653 1014 b 622 1000 635 1021 629 1018 b 538 935 603 953 579 935 z "},"ț":{"ha":608,"x_min":0,"x_max":0,"o":"m 265 -315 b 151 -482 258 -375 224 -436 b 147 -499 143 -487 143 -492 l 165 -528 b 182 -529 169 -533 175 -533 b 342 -257 278 -476 342 -389 b 257 -153 342 -192 304 -153 b 176 -235 210 -153 176 -190 b 256 -315 176 -279 211 -315 z m 539 18 b 549 44 551 25 553 31 l 540 89 b 513 100 535 108 531 110 b 417 79 478 82 456 79 b 257 301 306 79 257 139 l 257 621 l 508 621 b 529 643 525 621 529 626 l 529 685 b 508 707 529 703 524 707 l 257 707 l 257 850 b 236 872 257 867 253 872 l 175 872 b 154 850 158 872 154 867 l 154 707 l 86 707 b 64 685 69 707 64 703 l 64 643 b 86 621 64 626 69 621 l 154 621 l 154 293 b 406 -15 154 100 222 -15 b 539 18 424 -15 483 -15 z "},"Ŋ":{"ha":1078,"x_min":0,"x_max":0,"o":"m 825 60 b 499 -242 814 -164 729 -242 b 472 -267 478 -242 469 -249 l 478 -321 b 507 -343 481 -337 485 -343 b 936 1 775 -343 924 -239 l 936 950 b 915 972 936 968 932 972 l 849 972 b 826 950 832 972 826 968 l 826 208 l 179 981 b 161 990 174 988 169 990 l 154 990 b 142 979 144 990 142 989 l 142 22 b 164 0 142 6 147 0 l 229 0 b 251 22 246 0 251 6 l 251 769 z "},"ŋ":{"ha":840,"x_min":0,"x_max":0,"o":"m 740 410 b 465 722 740 632 614 722 b 228 560 329 722 257 615 l 217 685 b 193 707 210 701 204 707 l 158 707 b 138 685 143 707 138 701 l 138 367 l 138 22 b 158 0 138 6 143 0 l 221 0 b 242 22 236 0 242 6 l 242 372 b 440 628 242 511 319 628 b 636 382 553 628 636 547 l 636 -11 b 478 -233 636 -174 589 -233 b 376 -208 450 -233 410 -229 b 350 -221 358 -199 354 -200 l 340 -264 b 350 -292 336 -281 339 -285 b 488 -328 406 -328 469 -328 b 740 -18 671 -328 740 -212 z "},"ﬁ":{"ha":925,"x_min":0,"x_max":0,"o":"m 658 619 l 658 22 b 679 0 658 6 663 0 l 740 0 b 763 22 757 0 763 6 l 763 685 b 740 707 763 701 758 707 l 269 707 l 269 740 b 429 963 269 903 318 963 b 513 947 465 963 485 958 b 540 958 531 939 535 940 l 549 1003 b 539 1031 553 1018 551 1022 b 418 1057 490 1056 436 1057 b 167 747 235 1057 167 942 l 167 707 l 64 707 b 42 685 47 707 42 701 l 42 642 b 64 619 42 624 47 619 l 167 619 l 167 22 b 188 0 167 6 171 0 l 249 0 b 269 22 265 0 269 6 l 269 619 z m 636 939 b 708 867 636 899 668 867 b 782 939 749 867 782 899 b 708 1011 782 979 749 1011 b 636 939 668 1011 636 979 z "},"ﬃ":{"ha":1383,"x_min":0,"x_max":0,"o":"m 1115 619 l 1115 22 b 1138 0 1115 6 1121 0 l 1199 0 b 1219 22 1215 0 1219 6 l 1219 685 b 1199 707 1219 701 1215 707 l 728 707 l 728 740 b 886 963 728 903 776 963 b 971 947 922 963 943 958 b 997 958 989 939 993 940 l 1007 1003 b 996 1031 1010 1018 1008 1022 b 876 1057 947 1056 894 1057 b 624 747 693 1057 624 942 l 624 707 l 269 707 l 269 740 b 429 963 269 903 318 963 b 513 947 465 963 485 958 b 540 958 531 939 535 940 l 549 1003 b 539 1031 553 1018 551 1022 b 418 1057 490 1056 436 1057 b 167 747 235 1057 167 942 l 167 707 l 64 707 b 42 685 47 707 42 701 l 42 642 b 64 619 42 624 47 619 l 167 619 l 167 22 b 188 0 167 6 171 0 l 249 0 b 269 22 265 0 269 6 l 269 619 l 624 619 l 624 22 b 646 0 624 6 628 0 l 706 0 b 728 22 722 0 728 6 l 728 619 z m 1094 939 b 1167 867 1094 899 1126 867 b 1239 939 1207 867 1239 899 b 1167 1011 1239 979 1207 1011 b 1094 939 1126 1011 1094 979 z "},"ſ":{"ha":574,"x_min":0,"x_max":0,"o":"m 167 704 l 64 704 b 42 682 47 704 42 699 l 42 640 b 64 618 42 622 47 618 l 167 618 l 167 22 b 188 0 167 6 171 0 l 249 0 b 269 22 265 0 269 6 l 269 740 b 429 963 269 903 318 963 b 513 947 465 963 485 958 b 540 958 531 939 535 940 l 549 1003 b 539 1031 553 1018 551 1022 b 418 1057 490 1056 436 1057 b 167 747 235 1057 167 942 z "},"₁":{"ha":253,"x_min":0,"x_max":0,"o":"m 28 368 b 21 354 22 365 21 361 l 21 319 b 33 310 21 310 25 308 l 126 346 l 126 14 b 140 0 126 3 131 0 l 182 0 b 194 14 192 0 194 3 l 194 417 b 182 431 194 426 192 431 l 151 431 b 124 421 143 431 133 426 z "},"ª":{"ha":549,"x_min":0,"x_max":0,"o":"m 135 911 b 264 926 168 917 210 926 b 381 786 351 926 381 889 b 247 815 336 806 293 815 b 71 675 142 815 71 769 b 224 532 71 583 140 532 b 390 614 318 532 368 583 l 393 556 b 407 542 397 544 401 542 l 439 542 b 453 556 449 542 453 544 l 453 783 b 267 990 453 925 413 990 b 118 975 200 990 128 978 b 108 957 108 972 106 967 l 118 924 b 135 911 121 913 124 908 z m 260 758 b 381 729 308 758 336 750 l 381 675 b 244 590 353 635 304 590 b 142 675 178 590 142 625 b 260 758 142 731 182 758 z "},"ď":{"ha":1024,"x_min":0,"x_max":0,"o":"m 644 560 b 388 722 628 599 551 722 b 67 354 193 722 67 557 b 388 -15 67 153 193 -15 b 661 151 551 -15 626 99 l 672 22 b 696 0 678 6 683 0 l 728 0 b 749 22 743 0 749 6 l 749 1003 b 728 1025 749 1019 743 1025 l 665 1025 b 644 1003 650 1025 644 1019 z m 408 78 b 171 354 263 78 171 200 b 408 628 171 497 263 628 b 646 353 553 628 646 492 b 408 78 646 215 553 78 z m 1019 863 b 906 696 1013 803 978 742 b 901 681 897 690 897 686 l 919 650 b 936 649 924 644 929 644 b 1096 921 1032 701 1096 789 b 1011 1025 1096 986 1058 1025 b 931 943 964 1025 931 988 b 1010 863 931 899 965 864 z "},"Ỳ":{"ha":865,"x_min":0,"x_max":0,"o":"m 18 950 b 28 972 8 967 13 972 l 107 972 b 136 950 121 972 128 967 l 436 483 l 735 950 b 765 972 746 968 751 972 l 842 972 b 851 950 858 972 860 965 l 489 381 l 489 22 b 467 0 489 6 483 0 l 404 0 b 382 22 388 0 382 6 l 382 381 z m 425 1081 b 460 1067 435 1072 446 1067 l 517 1067 b 519 1090 531 1067 535 1075 l 347 1274 b 318 1268 338 1285 326 1281 l 292 1226 b 297 1199 286 1215 286 1208 z "},"ỳ":{"ha":717,"x_min":0,"x_max":0,"o":"m 360 154 l 358 154 l 124 685 b 96 707 115 703 110 707 l 24 707 b 13 685 8 707 6 701 l 303 36 l 171 -261 b 182 -283 163 -278 167 -283 l 253 -283 b 282 -261 267 -283 274 -279 l 703 685 b 692 707 711 701 707 707 l 621 707 b 592 685 607 707 600 703 z m 354 815 b 389 801 364 807 375 801 l 446 801 b 449 825 460 801 464 810 l 276 1008 b 247 1003 267 1019 256 1015 l 221 961 b 226 933 215 950 215 943 z "},"Ǻ":{"ha":989,"x_min":0,"x_max":0,"o":"m 497 806 l 701 353 l 292 353 l 496 806 z m 515 976 b 499 996 510 988 506 996 l 494 996 b 476 976 486 996 483 988 l 24 22 b 36 0 18 10 24 0 l 117 0 b 146 22 132 0 138 6 l 254 258 l 739 258 l 847 22 b 875 0 856 6 861 0 l 956 0 b 969 22 969 0 975 10 z m 493 1069 b 640 1221 578 1069 640 1135 b 493 1372 640 1307 578 1372 b 346 1221 407 1372 346 1307 b 493 1069 346 1135 407 1069 z m 493 1125 b 406 1221 438 1125 406 1174 b 494 1315 406 1268 439 1315 b 581 1221 550 1315 581 1268 b 493 1125 581 1174 550 1125 z m 644 1572 b 649 1600 656 1582 656 1589 l 622 1642 b 594 1647 614 1654 604 1658 l 421 1464 b 425 1440 406 1449 411 1440 l 481 1440 b 517 1454 494 1440 507 1446 z "},"ǻ":{"ha":779,"x_min":0,"x_max":0,"o":"m 165 608 b 379 631 218 618 290 631 b 576 392 525 631 576 567 b 351 440 506 421 425 440 b 67 215 181 440 67 367 b 314 -15 67 67 181 -15 b 593 117 464 -15 556 65 l 599 22 b 619 0 603 6 608 0 l 660 0 b 681 22 675 0 681 6 l 681 389 b 383 722 681 618 617 722 b 144 697 276 722 161 701 b 128 669 128 692 124 685 l 139 628 b 165 608 143 611 147 604 z m 372 363 b 576 313 451 363 506 342 l 576 197 b 346 67 532 132 442 67 b 171 215 233 67 171 129 b 372 363 171 310 240 363 z m 389 804 b 536 956 474 804 536 869 b 389 1107 536 1042 474 1107 b 242 956 303 1107 242 1042 b 389 804 242 869 303 804 z m 389 860 b 301 956 333 860 301 908 b 390 1050 301 1003 335 1050 b 476 956 446 1050 476 1003 b 389 860 476 908 446 860 z m 539 1317 b 543 1344 550 1326 550 1333 l 517 1386 b 489 1392 508 1399 499 1403 l 315 1208 b 319 1185 300 1193 306 1185 l 375 1185 b 411 1199 389 1185 401 1190 z "},"Ǽ":{"ha":1351,"x_min":0,"x_max":0,"o":"m 618 0 l 1244 0 b 1265 22 1261 0 1265 6 l 1265 74 b 1244 96 1265 90 1261 96 l 714 96 l 714 443 l 1213 443 b 1235 465 1229 443 1235 449 l 1235 517 b 1213 539 1235 533 1229 539 l 714 539 l 714 876 l 1244 876 b 1265 899 1260 876 1265 882 l 1265 950 b 1244 972 1265 967 1260 972 l 582 972 b 549 935 569 972 563 960 l 24 22 b 36 0 18 10 24 0 l 117 0 b 146 22 132 0 138 4 l 283 258 l 596 258 l 596 22 b 618 0 596 6 601 0 z m 596 821 l 596 353 l 332 353 z m 919 1199 b 924 1226 931 1208 931 1215 l 897 1268 b 869 1274 889 1281 879 1285 l 696 1090 b 700 1067 681 1075 686 1067 l 756 1067 b 792 1081 769 1067 782 1072 z "},"ǽ":{"ha":1301,"x_min":0,"x_max":0,"o":"m 582 392 b 346 440 511 421 419 440 b 67 213 176 440 67 367 b 314 -15 67 63 181 -15 b 635 140 464 -15 585 79 b 901 -15 671 71 771 -15 b 1188 83 1007 -15 1124 19 b 1185 113 1196 92 1196 100 l 1158 144 b 1128 146 1150 154 1142 154 b 907 76 1063 97 974 76 b 689 226 807 76 721 150 l 689 317 l 1221 317 b 1242 336 1239 317 1242 324 l 1242 342 b 901 722 1242 522 1139 722 b 635 613 799 722 717 692 b 388 722 588 696 506 722 b 146 697 286 722 163 701 b 131 669 129 692 126 685 l 140 628 b 168 608 144 614 151 606 b 382 631 221 618 293 631 b 582 507 493 631 561 603 z m 582 197 b 335 67 539 132 432 67 b 163 211 222 67 163 129 b 368 363 163 311 236 363 b 582 313 447 363 511 342 z m 692 510 b 900 635 731 574 793 635 b 1135 389 1058 635 1129 514 l 692 389 z m 775 933 b 779 961 786 943 786 950 l 753 1003 b 725 1008 744 1015 735 1019 l 551 825 b 556 801 536 810 542 801 l 611 801 b 647 815 625 801 638 807 z "},"Ǿ":{"ha":1133,"x_min":0,"x_max":0,"o":"m 69 488 b 296 64 69 307 164 154 l 242 -37 b 260 -60 235 -50 242 -60 l 297 -60 b 325 -43 314 -60 319 -54 l 363 28 b 567 -18 417 3 490 -18 b 1064 486 840 -18 1064 210 b 824 917 1064 719 917 854 l 874 1008 b 857 1032 882 1022 875 1032 l 818 1032 b 790 1015 803 1032 796 1026 l 757 951 b 567 990 703 974 631 990 b 69 488 293 990 69 764 z m 953 486 b 567 79 953 278 786 79 b 408 117 497 79 438 103 l 775 822 b 953 486 833 778 953 668 z m 181 486 b 567 893 178 696 351 893 b 713 861 632 893 686 872 l 347 158 b 181 486 296 201 182 311 z m 722 1199 b 726 1226 733 1208 733 1215 l 700 1268 b 672 1274 692 1281 682 1285 l 499 1090 b 503 1067 483 1075 489 1067 l 558 1067 b 594 1081 572 1067 585 1072 z "},"ǿ":{"ha":864,"x_min":0,"x_max":0,"o":"m 64 353 b 222 49 64 229 128 114 l 178 -40 b 197 -62 171 -56 178 -62 l 232 -62 b 263 -42 249 -62 256 -56 l 288 14 b 429 -15 324 0 371 -15 b 794 353 632 -15 794 150 b 626 663 794 489 724 599 l 674 747 b 656 769 681 761 674 769 l 619 769 b 589 750 601 769 594 761 l 558 697 b 429 722 518 715 467 722 b 64 353 226 722 64 556 z m 429 78 b 332 100 381 78 343 94 l 579 572 b 690 353 628 532 690 465 b 429 78 690 200 574 78 z m 167 353 b 429 628 167 506 283 628 b 514 611 458 628 489 621 l 269 140 b 167 353 240 168 167 232 z m 572 933 b 576 961 583 943 583 950 l 550 1003 b 522 1008 542 1015 532 1019 l 349 825 b 353 801 333 810 339 801 l 408 801 b 444 815 422 801 435 807 z "},"Ĭ":{"ha":396,"x_min":0,"x_max":0,"o":"m 143 22 b 165 0 143 6 149 0 l 232 0 b 253 22 249 0 253 6 l 253 950 b 232 972 253 967 249 972 l 165 972 b 143 950 149 972 143 967 z m 199 1119 b 394 1243 274 1119 353 1144 b 389 1275 400 1257 401 1269 l 354 1293 b 331 1283 343 1299 336 1296 b 199 1192 301 1215 269 1192 b 65 1283 128 1192 94 1215 b 42 1293 60 1296 54 1299 l 7 1275 b 3 1243 -4 1269 -4 1257 b 199 1119 44 1144 124 1119 z "},"ĭ":{"ha":388,"x_min":0,"x_max":0,"o":"m 142 22 b 164 0 142 6 147 0 l 224 0 b 246 22 240 0 246 6 l 246 685 b 224 707 246 701 242 707 l 164 707 b 142 685 147 707 142 701 z m 194 854 b 390 978 269 854 349 879 b 385 1010 396 992 397 1004 l 350 1028 b 326 1018 339 1033 332 1031 b 194 926 297 950 265 926 b 61 1018 124 926 90 950 b 38 1028 56 1031 50 1033 l 3 1010 b -1 978 -8 1004 -8 992 b 194 854 40 879 119 854 z "},"⅛":{"ha":893,"x_min":0,"x_max":0,"o":"m 681 950 b 664 972 689 965 681 972 l 628 972 b 600 953 613 972 606 967 l 122 22 b 140 0 115 7 122 0 l 175 0 b 204 19 190 0 197 6 z m 65 910 b 58 896 60 907 58 903 l 58 860 b 71 850 58 850 63 849 l 163 886 l 163 556 b 176 542 163 544 167 542 l 219 542 b 232 556 229 542 232 544 l 232 958 b 219 972 232 968 229 972 l 189 972 b 161 963 181 972 171 968 z m 672 -18 b 835 108 785 -18 835 39 b 743 221 835 185 763 215 l 743 221 b 824 325 760 228 824 254 b 672 449 824 394 769 449 b 522 325 576 449 522 394 b 603 221 522 254 586 228 l 603 221 b 511 108 583 215 511 185 b 672 -18 511 39 560 -18 z m 672 197 b 775 111 729 192 775 161 b 672 36 775 71 750 36 b 571 111 597 36 571 71 b 672 197 571 161 615 192 z m 672 394 b 764 322 731 394 764 365 b 672 246 764 276 729 250 b 581 322 617 250 581 276 b 672 394 581 365 614 394 z "},"⅜":{"ha":969,"x_min":0,"x_max":0,"o":"m 757 950 b 739 972 764 965 757 972 l 704 972 b 675 953 689 972 682 967 l 199 22 b 215 0 190 7 199 0 l 251 0 b 279 19 267 0 274 6 z m 749 -18 b 911 108 861 -18 911 39 b 819 221 911 185 838 215 l 819 221 b 900 325 835 228 900 254 b 749 449 900 394 846 449 b 597 325 653 449 597 394 b 678 221 597 254 663 228 l 678 221 b 586 108 660 215 586 185 b 749 -18 586 39 636 -18 z m 749 197 b 851 111 806 192 851 161 b 749 36 851 71 825 36 b 646 111 674 36 646 71 b 749 197 646 161 692 192 z m 749 394 b 840 322 807 394 840 365 b 749 246 840 276 804 250 b 657 322 693 250 657 276 b 749 394 657 365 690 394 z m 210 529 b 371 658 283 529 371 565 b 296 758 371 714 333 747 l 296 760 b 371 860 333 772 371 806 b 210 990 371 954 283 990 b 64 929 149 990 104 969 b 64 911 57 922 58 917 l 90 882 b 111 882 97 876 103 874 b 210 926 135 906 156 926 b 310 854 278 926 310 896 b 210 789 310 817 267 789 l 169 789 b 156 775 160 789 156 786 l 156 744 b 169 731 156 733 160 731 l 210 731 b 310 667 267 731 310 703 b 210 593 310 624 278 593 b 111 638 156 593 135 614 b 90 638 103 646 97 644 l 64 608 b 64 590 58 603 57 597 b 210 529 104 550 149 529 z "},"⅝":{"ha":958,"x_min":0,"x_max":0,"o":"m 746 950 b 729 972 754 965 746 972 l 693 972 b 665 953 678 972 671 967 l 188 22 b 206 0 181 7 188 0 l 240 0 b 269 19 256 0 263 6 z m 738 -18 b 900 108 850 -18 900 39 b 808 221 900 185 828 215 l 808 221 b 889 325 825 228 889 254 b 738 449 889 394 835 449 b 588 325 642 449 588 394 b 668 221 588 254 651 228 l 668 221 b 576 108 649 215 576 185 b 738 -18 576 39 625 -18 z m 738 197 b 840 111 794 192 840 161 b 738 36 840 71 815 36 b 636 111 663 36 636 71 b 738 197 636 161 681 192 z m 738 394 b 829 322 796 394 829 365 b 738 246 829 276 794 250 b 646 322 682 250 646 276 b 738 394 646 365 679 394 z m 122 972 b 113 963 114 972 113 971 l 85 756 b 94 744 83 747 86 744 l 213 744 b 313 665 271 744 313 721 b 208 578 313 604 271 578 b 100 628 151 578 126 603 b 88 628 94 633 90 632 l 63 601 b 61 589 58 596 57 593 b 208 524 101 547 149 524 b 372 667 301 524 372 567 b 214 800 372 765 301 800 l 146 800 l 160 918 l 335 918 b 343 929 342 918 343 921 l 343 963 b 335 972 343 971 342 972 z "},"⅞":{"ha":857,"x_min":0,"x_max":0,"o":"m 644 950 b 626 972 651 965 644 972 l 592 972 b 563 953 576 972 569 967 l 86 22 b 103 0 78 7 86 0 l 139 0 b 167 19 154 0 161 6 z m 636 -18 b 799 108 749 -18 799 39 b 707 221 799 185 725 215 l 707 221 b 788 325 722 228 788 254 b 636 449 788 394 733 449 b 485 325 540 449 485 394 b 565 221 485 254 550 228 l 565 221 b 474 108 547 215 474 185 b 636 -18 474 39 524 -18 z m 636 197 b 739 111 693 192 739 161 b 636 36 739 71 713 36 b 533 111 561 36 533 71 b 636 197 533 161 579 192 z m 636 394 b 728 322 694 394 728 365 b 636 246 728 276 692 250 b 544 322 581 250 544 276 b 636 394 544 365 578 394 z m 361 965 b 353 972 361 971 360 972 l 68 972 b 58 963 61 972 58 971 l 58 922 b 68 913 58 915 61 914 l 274 913 l 64 551 b 72 542 61 544 65 542 l 118 542 b 132 551 125 542 129 544 l 356 936 b 361 950 361 943 361 946 z "},"\u0000":{"ha":0,"x_min":0,"x_max":0,"o":""},"\r":{"ha":351,"x_min":0,"x_max":0,"o":""}," ":{"ha":351,"x_min":0,"x_max":0,"o":""},"⁰":{"ha":0,"x_min":0,"x_max":0,"o":""},"₀":{"ha":432,"x_min":0,"x_max":0,"o":""},"₆":{"ha":0,"x_min":0,"x_max":0,"o":""},"₃":{"ha":0,"x_min":0,"x_max":0,"o":""},"₈":{"ha":0,"x_min":0,"x_max":0,"o":""}}}
